<?xml version="1.0" encoding="utf-8"?>
<!-- Generator: Adobe Illustrator 23.1.0, SVG Export Plug-In . SVG Version: 6.00 Build 0)  -->
<svg version="1.1" id="Layer_1" xmlns="http://www.w3.org/2000/svg" xmlns:xlink="http://www.w3.org/1999/xlink" x="0px" y="0px"
	 viewBox="0 0 543 12" style="enable-background:new 0 0 543 12;" xml:space="preserve">
<g>
	<line x1="4" y1="6.6" x2="539" y2="6.6"/>
	<g>
		<g>
			<g>
				<g>
					<path d="M5.3,6.3c-2,0,1,0.1-1.3,0.1C4.3,6.3,4.6,6.2,5.3,6.3z"/>
					<path d="M532.5,6.4c-6.3,0.5-14.6,0-21.6,0.3c-0.8,0,0.2-0.2-1.6-0.2c-6.7,0.3-17.3,0.1-25.5-0.1l0.5-0.1
						c-1.6-0.1-3.5,0.2-5.1,0.2c0-0.1,0.5-0.1,0.1-0.1c-0.4,0.1-3,0.1-3.7,0.2c-0.7-0.1-0.6-0.2-1.4-0.2l-0.9,0.2
						c-2.6,0.3-6.4,0-10,0.2c0.2-0.1,0.5-0.1,0.2-0.1c-5.8,0.2-12.9,0.2-19.4,0.3c0.3-0.1,0.5-0.2,0.1-0.2c-0.3,0.2-2.3,0.2-4,0.2
						c-0.8-0.2-3,0.2-5,0.1l0.2-0.1c-1.5,0.2-2.2-0.1-3.4,0.1l-0.9-0.1c-0.7,0.2-2.2-0.1-3.4,0v0.1c-1.2,0.1-1.8-0.1-2.8,0h-0.1
						c-2.5,0.1-4-0.1-3.9,0.1c-0.9-0.2,2.5-0.1,1.1-0.3c-8.3,0.2-16.9,0.2-25.3,0.2c-1-0.1-1.6-0.1-1.8-0.2
						c-0.8,0.1-3.2,0.1-3.9,0.1c0.3,0-0.5-0.1-1-0.1c-1.5-0.1-1.7,0.2-3.3,0.1c0.7-0.1,0.9-0.1,0.7-0.2c-1.4,0.1-3.3,0.1-5,0.2
						c0.3-0.1,0.7-0.1,0.6-0.1c-1.8,0.2-3.4-0.1-5,0.1l0.6-0.1c-2.6-0.1-0.8,0.2-3,0.2c0.5-0.1,0.4-0.1,0.4-0.1
						c-2.1,0.2-5.5,0.1-7.6,0.2c0.1,0,0.1-0.1,0.1-0.1c-2.3,0-4.7-0.1-7.2,0.1c-0.9-0.1,0.3-0.3-2.1-0.2c0.1,0.2-4.1,0.1-2.7,0.3
						c-2.1-0.1-5.3-0.1-6.7-0.1c0.9-0.1-1-0.3,0.7-0.3l-1.3-0.1c0.2-0.1,1.3,0.1,0.9-0.1c-0.9,0-3.4,0.1-4.1,0.1
						c-1.6,0.1-3.1,0.4-5.6,0.4c1.2-0.1-0.7-0.2,0.1-0.3L336.9,7c-0.9,0-0.2-0.2-1.4-0.1C335.6,7,335,7,334.6,7
						c-0.3,0-3.6,0.1-3.9-0.2c-0.4-0.1,1.4-0.1,0.4-0.1c-1.6,0-1.7,0.1-3.2,0.1l0,0c-1-0.1-3.1,0.1-1.9,0.2c0.7,0-0.3-0.1,0.8-0.1
						c-0.7,0.1-2.6,0.2-4.2,0.2c0.5-0.1,0.5-0.1,0.7-0.2c-2.1,0.2-4.4,0.2-6.8,0.3c0,0.1,0.9-0.2,1.2-0.1c-3-0.1-6.3,0.2-8.8,0
						c0.4,0,0.2,0.1,0.2,0.1c-1.5,0-1.4-0.2-2.4-0.1c-0.1-0.1-1.2,0-2.2,0.1c-0.5,0.1-0.3-0.1,0.6-0.1c-1.4,0.1-6.9,0.2-10,0.1
						c0.1,0.1-1.9,0.2-2.7,0.2l0.3-0.1c-0.7-0.1-2.4,0-2.6-0.1c-1.6,0.2,6-0.1,3.9,0c-0.5-0.1-2.9,0.2-2.5,0.1
						c-1.5,0-2.9,0.2-4.3,0.1c0.4,0,1.2-0.2,0-0.2c-2.1,0-0.6,0.1-2.3,0.1L284,7.2c-0.1,0.1-1.9,0-1.1,0.1c-0.3-0.1-3,0.1-2.8-0.2
						l0.3-0.2c-0.9,0-1.5,0.2-2.2,0.2c-0.1,0-0.4-0.1-0.3-0.1c-0.1,0.2-2.1,0-3.2,0.2c-1.9-0.1-4.8,0-5.7-0.2
						c-1.4,0.1-2.8,0.2-4.4,0.1c0.3,0,0.8-0.1,0.9-0.1c-1-0.1-1.3,0-2.2,0.1c0.2-0.1-2.1-0.2-3.2-0.2c-1.4,0.1-0.9,0.2-1.1,0.3
						c-1.3-0.2-4.1,0.2-5.7-0.1c0.5-0.1,2.1-0.1,0.9-0.2c-1.3-0.2-2.7,0.2-4.8,0.1l0.5,0.2c-0.9-0.1-3.1,0.1-2.9-0.1
						c-0.7,0.1-2.5-0.1-2.3,0.1c-3.5-0.2-8.5,0.1-10.6-0.3c-0.5,0.1-1.7,0-1.5,0.1c0.8,0.1,1.2-0.1,1.5,0c-0.4,0-0.5,0.1-0.6,0.1
						c-1.1-0.1-1.9-0.1-0.9-0.2c-2.4-0.1-2.5,0.3-5.6,0.3c0.1-0.1-0.1-0.1-1-0.1l-1.7,0.2c-2-0.1-1.1-0.2-1.2-0.3
						c-1.1,0-2.4,0-2.8,0.1L219,6.9c0.9,0.1-0.9,0.1-1.4,0.1l0.5-0.1c-0.2-0.1-1.4,0-2,0c0.1,0.1,1.4,0.1,2.1,0.2
						c-0.5,0.1-1.4,0.1-2.1,0.1c0.2-0.1-1.7-0.1-2.6-0.1c-1-0.1-1.1,0.1-1.4,0.1c0-0.1-1.6,0-0.8-0.1c0.3,0,0.8,0.1,1.3,0
						C212,7.1,212,7,210.7,7c-1,0.1,0.3,0.3-1.6,0.2c0.5-0.1,0.6-0.1,1-0.1L208.3,7l-0.1,0.1c-0.2-0.1-0.1-0.1-0.2-0.1
						c-0.5,0.1-2.7,0.1-3.1,0.2c-0.9,0-1.9-0.1-2.7-0.1h0.2c-1-0.1-2.4,0-3.3,0.1l0,0c-0.6,0-1.9,0-2.6,0.1
						c-1.4-0.1-0.5-0.5-2.1-0.3c-1.5,0-2.3,0.2-1.7,0.3c-2.6-0.1-5.6,0.1-8-0.1c-0.4,0.1-0.1,0.1-0.9,0.1c-3.9-0.1-8.1,0.2-11.2-0.1
						c1.1-0.1,0.1-0.1,0.1-0.2c-0.9,0.1-1.1-0.1-1.4,0.1c0.1,0.1,0,0.2,1.1,0.2c-2.6,0.1-6.1,0.1-7.4,0c0.6,0.1,0.1,0.1-0.4,0.1
						c0.2-0.2-1.5-0.2-2.8-0.2l-0.2,0.1l-0.8-0.1c-0.5,0.1-0.5,0.2-1.8,0.1c-0.1-0.1-0.1-0.1-0.4-0.1c-1.3,0.1-3.2,0.2-4.6,0.2
						l-1.2-0.2c-0.6,0-1.6,0.1-0.6,0.2c-2.5-0.1-4-0.1-4.8-0.2c-4.2,0.3-10.4,0.3-15.3,0.3l0.1-0.1c-1.3-0.1-0.7,0.2-1.6,0.1
						c0.4-0.1-1-0.2,0-0.3c-1.9-0.1-2.4,0.2-3.7,0.2c-0.2,0.1,1-0.1,0.8,0.1c-0.2,0.1-2.6-0.1-2.9,0.1c-0.5-0.1-0.1-0.2,0.2-0.2
						l-1.1,0.1c-1.4-0.2,3.2-0.3,1.7-0.6h-1.1c-1-0.2,2.8-0.2,0.1-0.2c-1.2,0.1-2.2,0.3-1.1,0.4c-2.4,0.1-1.1,0.4-3.7,0.4
						c-0.7-0.1,2.1,0,1.6-0.2c-1.2-0.1-2.5,0.1-3.5,0c1.2,0.1,0.2,0.2-0.6,0.3c-1.3-0.1,0.9-0.2-1-0.2c-0.3,0.1-2,0.2-0.5,0.2
						c-0.7,0.2-1.9-0.1-3,0.1c-0.6-0.2,1.9-0.3-0.1-0.5c0.3,0.2-2.5,0.2-1.4,0.4c-0.8-0.1-0.9-0.2-0.3-0.2c-1.2-0.1-2.8,0.3-3.2,0
						l-0.4,0.2c-0.4-0.1-0.9-0.1-1.5-0.2c-1,0-3.3,0.2-3.2,0c-0.3,0-2.6,0-1.7,0.2c1.4,0.1,1.7-0.1,2.5,0.1c-1-0.2-2.1,0-2.9,0.1
						l-0.1-0.1c-0.5,0.1-1.6,0-1.9,0.1c0.4-0.1,0.2-0.1-0.2-0.1l-0.5,0.1c-2,0.1-0.5-0.2-2.4-0.2l1.2-0.2c-0.3,0-1-0.1-1.9-0.1
						c-0.4,0.1-1,0.3-1.4,0.3c-1.1,0.1-0.5-0.1-1.6,0l1.4-0.2c0.2-0.1-1-0.2-2.4-0.2c-0.9,0.1-2.4,0.2-0.9,0.3
						c-0.7,0-1.8-0.1-1.2-0.2c-1.7,0.1,0.2,0.1-1.2,0.2c-0.6-0.1-2.4-0.2-3.5-0.3l1.5-0.2h-1C85.8,7,83.8,7,84.6,6.9
						c-0.7,0-1.5,0.1-2.2,0.1c2,0.3-2.2,0.4-1.7,0.6C78,7.7,79,7,76.1,7.4c0.5,0.1-0.9,0.2,0.9,0.2c-1.7,0-1.2,0.2-3.2,0.2
						c1.5-0.1-1.6-0.2,0.6-0.4c-0.1,0.1,1.2,0.1,1.5,0.1c-0.7-0.1,0.1-0.2-1.6-0.2c-1.1,0-2.5,0.1-2.3,0.2c0,0.2,1.6,0,0.9,0.1
						c-2.1,0-2.5-0.2-3.3,0c1.3,0,1.7,0.1,1.7,0.2l-1.6,0.1L70,7.7c-2.5-0.1-0.7,0.2-3.2,0.2l-1.1-0.2c0.5-0.2,3.5,0,3-0.2
						c-1.6,0-2.1,0.1-3.6,0.1c0.4-0.1,0.8-0.1,1.2-0.1c-0.6,0-1.1-0.3-3.4-0.2c-1.2,0.1-0.3,0.1-0.3,0.2c-2.5,0.1-3.3,0.1-4.9,0.2
						c0.3-0.2-2.9,0-1.1-0.2c0.8,0.1,4.5,0.1,5.4-0.1c-0.9-0.2,2,0.1,2.5-0.2c-2,0-1.9-0.2-2.3-0.4c-0.6,0-1.1,0.1-1.4,0.1
						c-0.2,0.1,0.5,0.1,0.5,0.3C59,7,56.9,7.1,55.6,7.2C54.8,7.2,55.1,7,56,7c-2.7,0.1-5.6,0-8.1,0C49.6,7.2,45,7,46.2,7.2
						c1.4,0.1,2.6,0.2,1.8,0.3c-0.9,0,0-0.1-0.3-0.2c-1.1,0.1-1.7-0.2-2.8,0c2.5-0.1,0.5-0.3,0.9-0.5c-1.8,0.2,0-0.1-1.7-0.1
						C42.3,7,40.2,7,38.2,7.1c-2.5-0.2-6.3,0-8.5,0c-1.2-0.1-0.4-0.3-1.6-0.3c-1.5,0,1.1,0.2-1.1,0.1l0.2-0.1
						c-0.7,0.1-4-0.1-4.6,0.2l0.7-0.2c-0.4,0-0.8,0.1-1.1,0.1c0-0.1-0.5-0.1,0.2-0.2c-1.3-0.2-2.8,0-4.3,0.1L19,6.8
						c-2.5,0.1-4.2,0-6.6,0l0.1-0.1L11,6.8c0.4-0.1-1-0.2-1.7-0.1L13,6.4c1,0.1-1.1,0.2-0.5,0.3s2.8,0.1,3.2-0.1
						c-0.9,0-0.9,0-1.6,0.1c-0.3-0.2,1-0.2,1.7-0.3c-0.4,0-1.1-0.1-1.2,0c0.9-0.1,1.8-0.1,3.2-0.1c-1,0.1,0.5,0.1,0.2,0.2
						c0.1-0.2,1.5-0.2,3.3-0.2c1.3,0.2,3.4-0.1,5.5-0.1c-0.9,0.2-1.9,0.3-3.2,0.3c1.3,0.1,1.5,0,2.8,0.1c0.6-0.1,1.1-0.3,2.8-0.3
						l0.1,0.1c1.6-0.1,1.6-0.2,3.5-0.2c3.4,0.1,6.9,0.1,9.5,0.1l0.1,0.1c1.4-0.2,4.8-0.1,6.8-0.2c3.3,0.1,7.2-0.1,8.9,0.1
						c5.8-0.1,10.9-0.2,17-0.1l-1,0.2c1.1-0.1,0.7,0.1,1.8,0.1c-1.2-0.1,1.5-0.2,2.2-0.3c2.7,0.1,6.2,0,8.5-0.1l0.1,0.1
						c2.4-0.2,5.3,0,8.3,0c0.3,0.1,0.9,0.2,1.8,0.2c1.6-0.2,2.5-0.2,4.9-0.3c1.7,0,4.6,0.1,6.4,0.1c6.6-0.3,13.3-0.1,20.1-0.2
						l0.5,0.1c6.6-0.3,14.8,0,20.4-0.2L148.6,6c1.8,0.1,4-0.1,3.6-0.2c1.8,0.1,4.4-0.1,5.6,0.1c1.8,0.1,2.2-0.1,3.7-0.1
						c3.6,0.1,5,0.1,8.4,0h-0.8c-0.4,0.1-0.4,0.2,0.4,0.2c1.3-0.1,4.7,0.1,3.4-0.2c3.7,0.2,8.5-0.1,12.1,0.1c-0.3-0.1,0.6-0.1,1-0.1
						c3.2,0,6.6,0.2,9.1,0c0.5,0.1-0.8,0.1,0.5,0.1c0.8-0.1,0-0.1,1-0.1c5.1-0.2,10.4,0.1,15.2,0.1c8.4-0.2,17.2-0.1,25.2-0.1
						l-0.1,0.1c2.7-0.2,6.3,0.2,8.5-0.1c0.6,0.1,2.4,0,2,0.1c2.1-0.2,6,0.1,9.1-0.1c-0.3,0-0.4,0-0.8,0.1c3.1,0.1,5.9-0.1,9.2,0.1
						c-0.3,0-0.9,0.1-1,0.1c1.3,0.1,3-0.2,3.7,0.1c0.7,0,0.5-0.1,0.1-0.1c7.3,0.1,15-0.1,22.5-0.1c5.4,0.2,0.3,0.5,4.6,0.2
						c0.3,0.1,0.3-0.1,0.3-0.1c1.6-0.1,2.6,0.3,3.7,0.2c-0.5-0.2,0.8-0.1,0.8-0.2c3.3,0.1,4,0.2,6.6,0.1L306,6
						c3.1-0.2,6.6-0.1,9.2-0.4c16.9-0.1,33-0.2,49.5-0.2c16.3,0.1,32.2-0.1,48.7,0.1c3.9,0.2,4.2,0.2,8.4,0.1
						c-0.2,0.1-0.4,0.1-0.2,0.1c0.2-0.2,3,0,3.4-0.2c6.1,0.1,11.7,0,18,0c-1,0-1.5,0.2-0.3,0.2l1.2-0.1l0.2,0.1
						c0.8,0,1.7-0.1,0.9-0.2c15.8-0.2,31.3,0.2,46.7,0.2c3.7,0.1,8.9,0,12.9-0.1C516.4,5.7,527,5.9,539,5.8
						C539,5.8,537.4,6.2,532.5,6.4z"/>
					<path d="M7.6,6.2C8,6.4,9.4,6.4,8.3,6.5C8.2,6.4,7.5,6.4,7.6,6.2z"/>
					<path d="M44.3,7.2c0,0,0.5,0.1,0.6,0.1c-0.5,0-0.9,0.1-1.2,0.1C44.2,7.3,44.1,7.3,44.3,7.2z"/>
					<path d="M53.7,7.3c-0.1,0.1-2.1,0.2-3.3,0.2L53.7,7.3z"/>
					<path d="M62.4,7.6C63.2,7.7,63,7.7,62,7.7C61.9,7.7,62.2,7.7,62.4,7.6z"/>
					<path d="M63.1,7.5c0.7,0,1.1,0.1,1.4,0.1C64.5,7.5,62.8,7.6,63.1,7.5z"/>
					<path d="M82,7.7c0.5,0,1.4-0.1,1.9,0C83.4,7.6,81.7,7.8,82,7.7z"/>
					<path d="M90.8,7.6c0.3,0,0.4,0,0.7,0c0.5,0.1,0,0.1-0.5,0.1L90.8,7.6z"/>
					<polygon points="251.3,7.2 250.4,7.3 250.5,7.2 					"/>
					<path d="M321.6,7.2c1-0.1,0.7,0.1,0.8,0.1C321.6,7.3,322.8,7.2,321.6,7.2z"/>
					<polygon points="359.6,6.8 359.3,6.8 359.4,6.6 					"/>
				</g>
			</g>
		</g>
	</g>
</g>
</svg>
