<?xml version="1.0" encoding="utf-8"?>
<!-- Generator: Adobe Illustrator 23.1.0, SVG Export Plug-In . SVG Version: 6.00 Build 0)  -->
<svg version="1.1" id="Layer_1" xmlns="http://www.w3.org/2000/svg" xmlns:xlink="http://www.w3.org/1999/xlink" x="0px" y="0px"
	 viewBox="0 0 1560.6 736.2" style="enable-background:new 0 0 1560.6 736.2;" xml:space="preserve">
<style type="text/css">
	.st0{fill:none;stroke:#82563D;stroke-width:12;stroke-linecap:round;stroke-linejoin:round;stroke-miterlimit:10;}
</style>
<g>
	<path class="st0" d="M1074.7,51.3C1022.4,19.5,964.9,8.4,905,14.8c-99.8,10.7-199.5,22.5-298.8,36.9C501.4,67,397.4,88.6,292.4,102
		c-74.9,9.5-149,25.9-224.9,26.8c-5.3,0.1-7.7,2.2-7.4,7.4"/>
	<path class="st0" d="M1528.5,165.7c-55.3-13.5-110.9-26.3-166-40.8c-86.3-22.7-172.4-46.1-258-70.8c-7.2-2.1-14.7-8.9-22.3-6.2
		C1018.9,70.8,951.6,75,886.3,86.8c-178.1,32-357.1,58.7-534.8,93.2c-54.7,10.6-109.5,23.6-165.9,22.6"/>
	<path class="st0" d="M1476.8,283.7c-141.3,33.6-283.1,65.5-424.7,97.9c-120.9,27.7-242.2,55.2-364.7,76.7
		c-61.5,10.8-122.6,24.3-184.7,32"/>
	<path class="st0" d="M1447.3,494c-44.9,18.5-93.6,21.9-140.3,24.3c-109,5.7-214.6,27.3-321.3,47.6c-52.8,10-106,30.3-162,20.3"/>
	<path class="st0" d="M1196.4,320.6c-53.1-50.1-115.2-33.9-173.1-17.5C854.4,350.7,685,395.8,514,435.5c-23.3,5.4-49.2-2-70.2,14.3"
		/>
	<path class="st0" d="M34.3,154.6c-9.3,20.6-18.2,36.1,18.1,42.3c26.2,4.5,49.8,24.7,74,38.9c101.6,59.6,190,137.9,287.8,202.9
		c17.6,11.7,34.5,24.5,51.7,36.8"/>
	<path class="st0" d="M465.9,652.7C318,569.5,164.5,497.7,8.5,431.3"/>
	<path class="st0" d="M1417.8,508.8c15.8,42,64.7,59.1,77.3,107.4c-45.7-3.4-90.5-13.7-136.3-15.9c-70.5-3.4-140.9-15.5-210.4,7.9
		c-8.1,2.7-19.2,6.6-25.4,3.3c-60.8-32.3-123.4-2.9-184.8-5.3c-53.8-2.1-108.1,8.6-162.3,13.1c-10.2,0.9-21.5,2.6-29.5-7.2"/>
	<path class="st0" d="M1469.5,483c-64.3-18.8-127.9,2.3-191.8,4.4c-41.8,1.4-83.1,12.6-125.5,10.4"/>
	<path class="st0" d="M115.5,353.8c-26.3,27-63.8,29.8-96.1,44c-5.9,2.6-10,4.9-12.1,15.9c86,12,166.7,42.2,248.4,69
		c3,1,7.3-2.2,11-3.4"/>
	<path class="st0" d="M266.7,468.2c5.7,25.6,33.1,22.8,48.8,35.8c35.3,29.2,76.1,51.7,113.3,78.9c29.8,21.8,60.3,31.9,96.2,18.1"/>
	<path class="st0" d="M178.2,328c68.6,46.5,135.3,96.1,214,125.4"/>
	<path class="st0" d="M1314.5,405.5c5.5,15.3,18.7,10.4,29.5,11c53.8,3.2,105.8,17.2,158.5,26.4c5.6,1,9.9,9.3,14.9,14.2"/>
	<path class="st0" d="M1242.6,383.3c-19.7,44-63.2,50.1-101.8,57.4c-26,5-52,26.6-80.9,9"/>
	<path class="st0" d="M1244.4,405.5c20.6,13.3,39.7,0.2,59-3.9c40-8.5,80.1-17,122-33.7c-29.7-22.9-55.7-38.2-92.8-18.5
		c-26.6,14.1-60.8,11-84.5,34"/>
	<path class="st0" d="M934.5,719.1c-2.5,2.5-5.9,7.5-7.2,7c-54.4-20.2-119.8-4.7-166.3-51.1c-8.6-8.6-19.5-14.9-29.3-22.3"/>
	<path class="st0" d="M724.2,505.1c-5.7,6.6-8.4,20.4-18.3,17.9c-58.8-15.1-100.4,23.7-147.7,44.8"/>
	<path class="st0" d="M1410.4,556.7c-46.3-9.8-93.3-7.2-140.2-7.4"/>
	<path class="st0" d="M746.3,597.3c-40-24.7-81.9-25-125.5-11.2c-29.9,9.5-58.8,29.7-92.2,11.2"/>
	<path class="st0" d="M975.1,446.1c-22.3,0.5-43,5.8-58.9,22.3c-18.5,19.2-48.2,17.6-66.6,36.7c-0.9,0.9-2.4,1.3-3.6,1.9
		c0.6,0.6,1.2,1.2,1.8,1.8"/>
	<path class="st0" d="M838.6,516.2c-42.8,10.1-81.1,37.9-129.4,27.2c-12.5-2.8-27.7,13.2-32.9,29.9"/>
	<path class="st0" d="M897.6,696.9c1.2-2.5,2.5-4.9,3.7-7.4c-40.6-14.6-80.3-34.9-125.4-18.4"/>
	<path class="st0" d="M857,479.3c-43.9-4.4-85.1,6.3-125.4,22.1"/>
	<path class="st0" d="M1299.7,291.1c-12.4,3.5-27.9-4.8-32-8.6c-43.8-40.1-86.9-12.8-130.3-2.4"/>
	<path class="st0" d="M628.3,663.7c38.8,9.6,76.3,28.7,118.1,14.8"/>
	<path class="st0" d="M1491.6,213.6c-67.3,5.6-133.7,17.3-199,34c-17.3,4.4-37.2-5.2-51.9,10.3"/>
	<path class="st0" d="M1063.6,438.7c-16.3,17-34.2,28-58.7,34.4c-69.5,18.2-123.1,66.5-180.7,106.4c-13.3,9.2-21.7,22.9-41.2,14.6
		c-7.3-3.1-19.9-4.1-25.1,0.1c-33.3,26.8-72.8,22-111,26.4c-13.1,1.5-34.1,1.6-37.4,24.7c-1.5,10.7,7.5,10.1,11.4,14.8"/>
	<path class="st0" d="M1126.3,615.8c-14.7,29.9-57.6,50.5-92.2,44.3"/>
	<path class="st0" d="M1119,361.2c-28.4-25.5-64.1-28.9-99.6-33.2"/>
	<path class="st0" d="M1093.1,612.1c-30.5,13-60.2,23.4-71.5,62.3c-7.5,26-61.4,37.8-90.9,26.2"/>
	<path class="st0" d="M606.1,637.9c-35.7-8.6-63.3,17.7-95.9,22.1"/>
	<path class="st0" d="M82.3,316.9c59,49.2,118.1,98.4,177.1,147.6"/>
	<path class="st0" d="M1491.6,269c-29.5-7.4-59-14.8-88.5-22.1"/>
	<path class="st0" d="M1178,272.7c21.8,20.4,51.4,22.7,77.5,33.2"/>
	<path class="st0" d="M1078.4,302.2c27.7,9.5,51.7,28,81.2,33.2"/>
	<path class="st0" d="M1521.1,180.4c-54.1,7.4-108.3,14.5-162.3,22.3c-29.6,4.3-59,9.7-88.6,14.6"/>
	<path class="st0" d="M45.4,173c26.6,8.3,57.3,8.3,73.8,36.9"/>
	<path class="st0" d="M329.4,191.5c17.2,18.1,39.5,26.4,62.7,33.2"/>
	<path class="st0" d="M1218.6,390.7c-20.6-14.1-39.1,6.6-59,3.7"/>
	<path class="st0" d="M1535.9,497.7c-20.7,1.9-40.5-1.4-59-11.1"/>
	<path class="st0" d="M392.2,505.1c33.6,17,67.1,34.2,95.9,59"/>
	<path class="st0" d="M1026.7,660c-14.8-3.6-29.5-14.8-44.3,0"/>
	<path class="st0" d="M687.3,623.2c4.4,19.8,29.5,10.1,36.9,25.8"/>
	<path class="st0" d="M1476.8,479.3c17-8,33.9-16,46.1-21.7c24.9-2.1,8.3,27,27.7,25.4"/>
	<path class="st0" d="M285.2,198.9c4.1,18.8,25.5,6.3,33.2,18.4"/>
	<path class="st0" d="M281.5,431.3c-17.1,4.8,0.9,22.8-11.1,29.5"/>
	<path class="st0" d="M513.9,623.2c-11.1,4.9-22.1,9.8-33.2,14.8"/>
	<path class="st0" d="M1288.7,250.5c4.9,11.4,11.4,20.4,25.8,18.4"/>
	<path class="st0" d="M1380.9,527.2c-9.7-2-20.5,4.1-29.5-3.7"/>
	<path class="st0" d="M602.5,656.4c-8.6,1.2-17.2,2.5-25.8,3.7"/>
	<path class="st0" d="M1085.8,409.2c-4.9,8.6-9.8,17.2-14.8,25.8"/>
	<path class="st0" d="M89.6,298.5c-13.2-0.8-8.9,19.3-22.1,18.4"/>
</g>
</svg>
