<?xml version="1.0" encoding="utf-8"?>
<!-- Generator: Adobe Illustrator 23.1.0, SVG Export Plug-In . SVG Version: 6.00 Build 0)  -->
<svg version="1.1" id="Layer_1" xmlns="http://www.w3.org/2000/svg" xmlns:xlink="http://www.w3.org/1999/xlink" x="0px" y="0px"
	 viewBox="0 0 5.3 127.8" style="enable-background:new 0 0 5.3 127.8;" xml:space="preserve">
<style type="text/css">
	.st0{fill:none;}
	.st1{fill:#684B47;}
</style>
<g>
	<line class="st0" x1="3" y1="126.2" x2="3" y2="1.6"/>
	<g>
		<g>
			<g>
				<g>
					<path class="st1" d="M2.9,125.9c0,0.5,0-0.2,0,0.3C2.9,126.1,2.8,126,2.9,125.9z"/>
					<path class="st1" d="M2.9,3.1c0.2,1.5,0,3.4,0.1,5c0,0.2-0.1,0-0.1,0.4c0.1,1.6,0,4,0,5.9l0-0.1c0,0.4,0.1,0.8,0.1,1.2
						c0,0,0-0.1,0,0c0,0.1,0,0.7,0.1,0.9c0,0.2-0.1,0.1-0.1,0.3l0.1,0.2c0.1,0.6,0,1.5,0.1,2.3c0,0,0-0.1,0,0c0.1,1.4,0.1,3,0.1,4.5
						c0-0.1-0.1-0.1-0.1,0c0.1,0.1,0.1,0.5,0.1,0.9c-0.1,0.2,0.1,0.7,0,1.2l0,0c0.1,0.3,0,0.5,0,0.8l0,0.2c0.1,0.2,0,0.5,0,0.8h0
						c0,0.3,0,0.4,0,0.7v0c0,0.6,0,0.9,0,0.9c-0.1,0.2,0-0.6-0.1-0.3c0.1,1.9,0.1,3.9,0.1,5.9c0,0.2,0,0.4-0.1,0.4
						c0,0.2,0,0.7,0,0.9c0-0.1,0,0.1,0,0.2c0,0.3,0.1,0.4,0,0.8c0-0.2,0-0.2-0.1-0.2c0,0.3,0,0.8,0.1,1.2c0-0.1,0-0.2,0-0.1
						c0.1,0.4,0,0.8,0,1.2l0-0.1c0,0.6,0.1,0.2,0.1,0.7c0-0.1,0-0.1,0-0.1c0.1,0.5,0,1.3,0.1,1.8c0,0,0,0,0,0c0,0.5,0,1.1,0,1.7
						c0,0.2-0.1-0.1-0.1,0.5c0.1,0,0,1,0.1,0.6c0,0.5,0,1.2,0,1.6c0-0.2-0.1,0.2-0.1-0.2l0,0.3c0,0,0-0.3,0-0.2c0,0.2,0,0.8,0,1
						c0,0.4,0.2,0.7,0.2,1.3c0-0.3-0.1,0.2-0.1,0l0.2,0.8c0,0.2-0.1,0,0,0.3c0,0,0,0.1,0,0.2c0,0.1,0,0.8-0.1,0.9c0,0.1,0-0.3,0-0.1
						c0,0.4,0,0.4,0,0.7l0,0c0,0.2,0,0.7,0.1,0.4c0-0.2,0,0.1,0-0.2c0,0.2,0.1,0.6,0.1,1c0-0.1,0-0.1-0.1-0.2c0.1,0.5,0.1,1,0.1,1.6
						c0,0-0.1-0.2,0-0.3c0,0.7,0.1,1.5,0,2c0-0.1,0,0,0,0c0,0.3-0.1,0.3,0,0.6c0,0,0,0.3,0,0.5c0,0.1,0,0.1,0-0.1
						c0,0.3,0.1,1.6,0,2.3c0,0,0.1,0.4,0.1,0.6l0-0.1c0,0.2,0,0.6,0,0.6c0.1,0.4,0-1.4,0-0.9c0,0.1,0.1,0.7,0,0.6c0,0.3,0.1,0.7,0,1
						c0-0.1-0.1-0.3-0.1,0c0,0.5,0,0.1,0,0.5l0,0.2c0,0,0,0.4,0,0.3c0,0.1,0,0.7-0.1,0.7l-0.1-0.1c0,0.2,0.1,0.3,0.1,0.5
						c0,0,0,0.1,0,0.1c0.1,0,0,0.5,0.1,0.7c0,0.4,0,1.1-0.1,1.3c0,0.3,0.1,0.7,0,1c0-0.1,0-0.2,0-0.2c0,0.2,0,0.3,0,0.5
						c0,0-0.1,0.5-0.1,0.7c0,0.3,0.1,0.2,0.1,0.3c-0.1,0.3,0.1,1,0,1.3c0-0.1,0-0.5-0.1-0.2c-0.1,0.3,0.1,0.6,0,1.1l0.1-0.1
						c0,0.2,0,0.7,0,0.7c0,0.2,0,0.6,0,0.5c-0.1,0.8,0,2-0.1,2.5c0,0.1,0,0.4,0,0.3c0-0.2,0-0.3,0-0.3c0,0.1,0,0.1,0,0.1
						c0,0.3,0,0.4-0.1,0.2c0,0.6,0.1,0.6,0.1,1.3c0,0,0,0,0,0.2l0.1,0.4c0,0.5-0.1,0.3-0.1,0.3c0,0.3,0,0.6,0,0.7l-0.1,0.3
						c0-0.2,0,0.2,0,0.3l0-0.1c0,0,0,0.3,0,0.5c0,0,0-0.3,0.1-0.5c0,0.1,0,0.3,0,0.5c0,0,0,0.4,0,0.6c0,0.2,0,0.3,0,0.3
						c0,0,0,0.4,0,0.2c0-0.1,0-0.2,0-0.3c0,0.1-0.1,0.1,0,0.4c0,0.2,0.1-0.1,0.1,0.4c0-0.1,0-0.1,0-0.2l0,0.4l0,0c0,0,0,0,0,0
						c0,0.1,0,0.6,0.1,0.7c0,0.2,0,0.4,0,0.6v0c0,0.2,0,0.6,0,0.8l0,0c0,0.1,0,0.4,0,0.6c0,0.3-0.2,0.1-0.1,0.5
						c0,0.3,0.1,0.5,0.1,0.4c0,0.6,0,1.3,0,1.9c0,0.1,0,0,0,0.2c0,0.9,0.1,1.9,0,2.6c0-0.3,0,0-0.1,0c0,0.2,0,0.3,0,0.3
						c0,0,0.1,0,0.1-0.3c0,0.6,0,1.4,0,1.7c0-0.1,0,0,0,0.1c-0.1,0-0.1,0.3-0.1,0.7l0,0l0,0.2c0,0.1,0.1,0.1,0,0.4c0,0,0,0,0,0.1
						c0,0.3,0.1,0.7,0.1,1.1l-0.1,0.3c0,0.1,0,0.4,0.1,0.1c0,0.6,0,0.9-0.1,1.1c0.1,1,0.1,2.4,0.1,3.6l0,0c0,0.3,0.1,0.2,0,0.4
						c0-0.1-0.1,0.2-0.1,0c0,0.4,0.1,0.6,0.1,0.9c0,0,0-0.2,0-0.2c0,0,0,0.6,0,0.7c0,0.1-0.1,0-0.1,0l0,0.3
						c-0.1,0.3-0.1-0.7-0.2-0.4v0.3C3,98.3,3,97.5,3,98.1c0,0.3,0.1,0.5,0.2,0.3c0,0.6,0.2,0.3,0.2,0.9c0,0.2,0-0.5-0.1-0.4
						c0,0.3,0,0.6,0,0.8c0-0.3,0.1,0,0.1,0.1c0,0.3-0.1-0.2-0.1,0.2c0,0.1,0.1,0.5,0.1,0.1c0.1,0.2,0,0.4,0,0.7
						c-0.1,0.1-0.1-0.4-0.2,0c0.1-0.1,0.1,0.6,0.2,0.3c0,0.2-0.1,0.2-0.1,0.1c0,0.3,0.1,0.7,0,0.7l0.1,0.1c0,0.1,0,0.2-0.1,0.3
						c0,0.2,0.1,0.8,0,0.7c0,0.1,0,0.6,0.1,0.4c0-0.3,0-0.4,0-0.6c-0.1,0.2,0,0.5,0,0.7l0,0c0,0.1,0,0.4,0,0.4c0-0.1,0,0,0,0l0,0.1
						c0,0.5-0.1,0.1-0.1,0.6l-0.1-0.3c0,0.1,0,0.2,0,0.4c0,0.1,0.1,0.2,0.1,0.3c0,0.3,0,0.1,0,0.4l-0.1-0.3c0,0-0.1,0.2-0.1,0.6
						c0,0.2,0.1,0.6,0.1,0.2c0,0.2,0,0.4-0.1,0.3c0,0.4,0,0,0.1,0.3c0,0.1-0.1,0.6-0.1,0.8l-0.1-0.3v0.2c-0.1-0.3,0,0.2-0.1,0
						c0,0.2,0,0.3,0,0.5c0.1-0.5,0.2,0.5,0.3,0.4c0,0.6-0.2,0.4-0.1,1.1c0-0.1,0.1,0.2,0.1-0.2c0,0.4,0.1,0.3,0.1,0.7
						c0-0.3-0.1,0.4-0.2-0.1c0,0,0-0.3,0-0.3c0,0.2-0.1,0-0.1,0.4c0,0.3,0,0.6,0.1,0.5c0.1,0,0-0.4,0-0.2c0,0.5-0.1,0.6,0,0.8
						c0-0.3,0-0.4,0.1-0.4l0,0.4l0-0.1c0,0.6,0.1,0.2,0.1,0.7l-0.1,0.3c-0.1-0.1,0-0.8-0.1-0.7c0,0.4,0,0.5,0,0.8c0-0.1,0-0.2,0-0.3
						c0,0.1-0.1,0.3-0.1,0.8c0,0.3,0,0.1,0.1,0.1c0,0.6,0,0.8,0.1,1.1c-0.1-0.1,0,0.7-0.1,0.3c0-0.2,0-1,0-1.3
						c-0.1,0.2,0-0.5-0.1-0.6c0,0.5-0.1,0.4-0.2,0.5c0,0.1,0,0.3,0,0.3c0,0,0-0.1,0.1-0.1c0,0.5,0,1,0.1,1.3c0,0.2-0.1,0.1-0.1-0.1
						c0,0.6,0,1.3,0,1.9c0.1-0.4,0,0.7,0.1,0.4c0-0.3,0.1-0.6,0.1-0.4c0,0.2,0,0-0.1,0.1c0,0.3-0.1,0.4,0,0.7c0-0.6-0.1-0.1-0.2-0.2
						c0.1,0.4,0,0,0,0.4c0,0.4,0.1,0.9,0.1,1.4c-0.1,0.6,0,1.5,0,2c0,0.3-0.1,0.1-0.1,0.4c0,0.3,0.1-0.3,0,0.3l0,0
						c0,0.2,0,0.9,0.1,1.1L3,121.7c0,0.1,0,0.2,0,0.3c0,0,0,0.1-0.1,0c-0.1,0.3,0,0.7,0,1l0-0.2c0,0.6,0,1,0,1.5l0,0l0,0.3
						c0-0.1-0.1,0.2,0,0.4l-0.1-0.9c0-0.2,0.1,0.3,0.1,0.1c0-0.1,0-0.7,0-0.7c0,0.2,0,0.2,0,0.4c-0.1,0.1-0.1-0.2-0.1-0.4
						c0,0.1,0,0.3,0,0.3c0-0.2,0-0.4,0-0.7c0,0.2,0-0.1,0.1,0c-0.1,0-0.1-0.3-0.1-0.8c0.1-0.3,0-0.8,0-1.3c0.1,0.2,0.1,0.4,0.1,0.7
						c0-0.3,0-0.3,0-0.7c0-0.1-0.1-0.3-0.1-0.7l0,0c0-0.4-0.1-0.4-0.1-0.8c0-0.8,0-1.6,0-2.2l0,0c-0.1-0.3,0-1.1-0.1-1.6
						c0-0.8,0-1.7,0-2.1c0-1.4-0.1-2.5,0-4l0.1,0.2c0-0.3,0-0.2,0-0.4c0,0.3-0.1-0.3-0.1-0.5c0-0.6,0-1.4,0-2l0,0
						c-0.1-0.6,0-1.2,0-1.9c0-0.1,0.1-0.2,0.1-0.4c-0.1-0.4-0.1-0.6-0.1-1.1c0-0.4,0-1.1,0-1.5c-0.1-1.5,0-3.1-0.1-4.7l0-0.1
						c-0.1-1.5,0-3.4-0.1-4.7l0.1,0.1c0-0.4,0-0.9-0.1-0.8c0-0.4,0-1,0-1.3c0-0.4,0-0.5,0-0.9c0-0.8,0-1.2,0-2v0.2
						c0,0.1,0.1,0.1,0.1-0.1c0-0.3,0-1.1-0.1-0.8c0.1-0.9,0-2,0-2.8c0,0.1,0-0.1,0-0.2c0-0.7,0.1-1.5,0-2.1c0-0.1,0,0.2,0-0.1
						c0-0.2,0,0,0-0.2c-0.1-1.2,0-2.4,0-3.5c-0.1-2,0-4,0-5.9l0,0c-0.1-0.6,0.1-1.5,0-2c0-0.1,0-0.6,0-0.5c-0.1-0.5,0-1.4,0-2.1
						c0,0.1,0,0.1,0,0.2c0-0.7,0-1.4,0-2.1c0,0.1,0,0.2,0,0.2c0-0.3-0.1-0.7,0-0.9c0-0.2,0-0.1,0,0c0-1.7,0-3.5,0-5.2
						c0.1-1.3,0.2-0.1,0.1-1.1c0-0.1,0-0.1,0-0.1c0-0.4,0.1-0.6,0.1-0.9c-0.1,0.1,0-0.2-0.1-0.2c0-0.8,0.1-0.9,0-1.5l0,0
						c-0.1-0.7,0-1.5-0.2-2.1c0-3.9-0.1-7.7-0.1-11.5c0-3.8,0-7.5,0-11.3c0.1-0.9,0.1-1,0-2c0,0,0,0.1,0,0c-0.1,0,0-0.7-0.1-0.8
						c0-1.4,0-2.7,0-4.2c0,0.2,0.1,0.3,0.1,0.1l0-0.3l0,0c0-0.2,0-0.4-0.1-0.2c-0.1-3.7,0.1-7.3,0.1-10.9c0-0.9,0-2.1,0-3
						c0.1-2.7,0.2-5.2,0.1-8C2.7,1.6,2.8,2,2.9,3.1z"/>
					<path class="st1" d="M2.8,125.3c0-0.1,0.1-0.4,0.1-0.2C2.9,125.2,2.9,125.3,2.8,125.3z"/>
					<path class="st1" d="M3.2,116.8c0,0,0-0.1,0-0.1c0,0.1,0,0.2,0,0.3C3.3,116.8,3.3,116.8,3.2,116.8z"/>
					<path class="st1" d="M3.3,114.6c0,0,0.1,0.5,0.1,0.8L3.3,114.6z"/>
					<path class="st1" d="M3.4,112.6C3.4,112.4,3.4,112.4,3.4,112.6C3.4,112.7,3.4,112.6,3.4,112.6z"/>
					<path class="st1" d="M3.3,112.4c0-0.2,0-0.3,0-0.3C3.3,112.1,3.4,112.5,3.3,112.4z"/>
					<path class="st1" d="M3.4,108c0-0.1,0-0.3,0-0.4C3.4,107.7,3.5,108.1,3.4,108z"/>
					<path class="st1" d="M3.4,106c0-0.1,0-0.1,0-0.2C3.4,105.7,3.4,105.8,3.4,106L3.4,106z"/>
					<polygon class="st1" points="3.2,68.6 3.3,68.8 3.2,68.8 					"/>
					<path class="st1" d="M3.2,52.2c0-0.2,0-0.2,0-0.2C3.3,52.2,3.2,51.9,3.2,52.2z"/>
					<polygon class="st1" points="3.1,43.4 3.1,43.4 3,43.4 					"/>
				</g>
			</g>
		</g>
	</g>
</g>
</svg>
