<?xml version="1.0" encoding="utf-8"?>
<!-- Generator: Adobe Illustrator 23.1.0, SVG Export Plug-In . SVG Version: 6.00 Build 0)  -->
<svg version="1.1" id="Layer_1" xmlns="http://www.w3.org/2000/svg" xmlns:xlink="http://www.w3.org/1999/xlink" x="0px" y="0px"
	 viewBox="0 0 1920 1920" style="enable-background:new 0 0 1920 1920;" xml:space="preserve">
<style type="text/css">
	.st0{fill:none;stroke:#82563D;stroke-width:12;stroke-linecap:round;stroke-linejoin:round;stroke-miterlimit:10;}
</style>
<g>
	<path class="st0" d="M1631.7,334.8c-39.6-28-88.8-31.6-132.6-48.9c-38.6-15.3-79.6-23.7-117.4-42.2c-30.7-15-66.5-18.9-100.3-26.8
		c-44.9-10.5-87.4-28.6-132.7-38.2c-70.5-14.9-141.4-28.1-212.2-41.7c-54.7-10.5-110-17.3-164.9-26.5c-13.5-2.3-27.6-0.7-42.8,6.2
		C605.3,172.4,553.4,275.1,546,396.3c-5.4,88.2,2.5,178.4,26.3,265.9c16.9,62.2,7.4,123.2-20.7,181.4
		C517.5,914,470,974.9,413.9,1030.5c-49.9,49.4-98.7,100.3-130.2,163.5c-26.5,53.1-56.7,105.8-67.9,163.8
		c-12.4,63.9-17,129.7,1.7,194c7.1,24.4,17,48.3,36.9,66.6"/>
	<path class="st0" d="M1591.9,462.6c-46.1,32.4-65,86-47.7,135.5c0.6,1.8,1.5,3.6,2.7,5.1c32.7,39.5,110.7,36.9,146.8,0.8
		c29.7-29.7,31.2-65.2,35.6-100.6c3.4-27.7,0.6-56.2,0.7-84.3c0-5.8-1.1-10.3-5-15.6c-17.1-23.4-39.1-41.3-64.2-55.8
		c-8.9-5.2-17.7-5.9-29.3-2.1c-39.4,13-71.5,35.8-100.6,63.3c-43.1,40.7-65.9,91.3-59.3,148.1c3.4,29.5,10.3,60,16,89.8
		c14,74.3,19.1,149,10,225c-5.8,48.6-9.3,96.4-26.7,143.4c-13.9,37.3-38.8,66.3-62.4,96.5c-43,55.1-95.1,102.5-145.5,151.2
		c-58.1,56-95.2,123.2-102.5,202c-4.4,47.3-8.7,95.3,6.2,143.3c19,61.2,52.2,97.5,120.2,89.4c4.2-0.5,9.6-2.4,13.2,2.4"/>
	<path class="st0" d="M647.1,472.9c14.5-6.9,28.8-1,39.4,5.7c20.9,13.4,46,18,66.4,30.7c22.6,14.1,49.7,20.4,72.1,20.2
		c41.1-0.3,71.3,14.7,104.4,34c19.8,11.5,46.7,23.8,73.9,7.2c5.9-3.6,17.3,1.1,26.1,1.9"/>
	<path class="st0" d="M1175.2,1418.9c48.7,13.6,97.5,26.6,145.8,41.5c8.2,2.6,16.1,0.7,24.4,3.7c15.3,5.5,37.5,2.4,43.8,19
		c6.8,18.2,14.4,37.6,11.8,58.4c-7.6,59.1-34.9,108.2-82.9,145.1c-14.5,11.2-21.2,28-38.9,37.1c-36.4,18.7-75.6,27.3-114.5,37.6
		c-67.9,18.1-133.2-0.5-199.1-12.6c-59.4-10.9-116.1-31.5-175.1-43.6c-8.6-1.8-16.1,4.5-23.9,4.7c-54.1,1.3-109,3-161.6-8.4
		c-44.1-9.6-88.9-11.5-133.1-18.6c-63.1-10.1-123.5-28-182.6-50.2c-9.6-3.6-19.9-7.6-29.5-11.9"/>
	<path class="st0" d="M1002.7,449.9c-0.5-4.6-3.4-8.3-7.9-7.5c-29.6,5-58,5.3-82.3-15.5c-37.7,9.1-68.2-4.2-95.9-27.7
		c-2.3-2-10-1.7-15.7,1.8c-12.6,7.8-32.5,5.4-38.5-0.7c-23.9-24.4-49.7-11.8-73.3-9.4c-22.3-5.2,0.3-41.5-31.3-37.9
		c-11.6,1.3-21.9,6.9-23.9,20.2"/>
	<path class="st0" d="M782.4,1702.6c-8-11-15.8-22.3-31.8-23.1c-0.9,0-1.7-1.7-2.7-2.4c-64.3-51.2-141.1-37.8-215-37.4
		c-6.2,0-12.4-3.8-18.6-0.9"/>
	<path class="st0" d="M668.3,720.9c9.8,22,22.9,32.9,50.8,24.1c12.8-4,29.8,3.5,44.7,6.7c15,3.2,29.4,4.4,40.2-4.6
		c31.8,11.4,51.7,39.2,84.6,45.3c24.4,43.8,69.2,18.2,103.5,28.1"/>
	<path class="st0" d="M533,1326.8c14,13.6,26.2,26.2,48.7,8.8c7.5-5.8,27.3-5.5,38.7,4.2c20.1,17,43.4,21.2,69.2,20.5
		s50.5,5.5,74.3,15.1"/>
	<path class="st0" d="M1390.2,1500.7c-28.9-6.8-51.8-1.7-64,28c-3.6,8.8-13.6,13.6-23.5,10.1c-36.3-12.9-76.9-9.1-111.7-27.7
		c-7.9-4.2-17.6-5.4-26.4-7.9"/>
	<path class="st0" d="M886,1124.8c-11.8-8.9-24.8-0.8-37.2-2.4c-39.5-5.3-78.7-11.8-114-31c-6.5-3.5-13.4-3.6-18.6-1.9
		c-24.4,7.7-42.7-4.8-61-16c-16.5-10.1-31.7-19.4-53.4-16c-8.6,1.4-20.4-1.4-29.3-9.1c-17.9-15.5-35.3-14.4-50.2,4.9"/>
	<path class="st0" d="M578.1,1239.9c-48.4,17.6-79.4-22.9-119.2-34.1c-20.8-5.9-39.8-12.9-61.3-6.8"/>
	<path class="st0" d="M1260.2,401.3c26.7,10,56,9.9,81.9,5.7c19-3.1,29.7,0.6,36.8,12.5c8.9,14.9,19.3,13.9,32.5,9.9"/>
	<path class="st0" d="M1522.9,426.9c28.5,10.6,58.3,16.1,85.6,32.2c33.5,19.7,38.8,25.6,18.8,60.6c-23-3.8-45.1-10.4-64.6-23.8"/>
	<path class="st0" d="M1289.4,301.6c22.9,3.1,41.1,22.6,66.4,17.9c0.9-0.2,2.2-0.4,2.6,0c27.7,29.3,67.1,19.4,100.9,28.1"/>
	<path class="st0" d="M1008,945.9c-36.7-9.9-73.5-18.9-109-32.7c-10.2-4-21.1-8.8-34.8-1.3c-13.8,7.5-54.2-11.3-62.9-27.5
		c-9.4-17.7-24-23.3-42.8-22.8c-14.8,0.4-29-1.7-42.5-7.7"/>
	<path class="st0" d="M1114.2,580.3c7.1,0.9,14.5,3.5,21.2,2.2c26.5-5.2,49.1-2,66.9,20.4c3.5,4.4,13.7,3.7,20.7,5.5
		c22.1,5.9,44.2,11.9,66.4,17.9"/>
	<path class="st0" d="M801,1536.5c-2.2,21.8,12.8,23.8,29.2,22.9c20.5-1.2,39.4-8.7,58.3-15.4c10.7-3.8,19.3-1.8,28,4.1"/>
	<path class="st0" d="M949.6,1439.3c-32.2-16.4-69.8-19.1-101.2-37.8c-4.7-2.8-13.8,1.2-20.9,2"/>
	<path class="st0" d="M678.9,1508.3c-34.7,2.6-68,15.9-103.5,12.9c-5.9-0.5-12.1,0.8-15.9-5.2"/>
	<path class="st0" d="M933.7,1536.5c-3.5,2.6-6.7,6.1-10.7,7.5c-10.7,3.8-13.1,12.6-10,20.4c3.5,8.9,12.8,11.8,23.4,10.5
		c32.6-4,65.4-3.5,98.2-2.7"/>
	<path class="st0" d="M1093,1342.2c-20.7,5.9-41.1-2.4-57.7-9.2c-19.9-8.2-35.6-8.4-53.8-1"/>
	<path class="st0" d="M453.4,1135.1c3.5-20.2,19-23.8,34.3-17.4c32.5,13.7,67.7,12.1,101.1,19.9"/>
	<path class="st0" d="M1018.6,245.3c-23.6-11.7-55.9-5.9-71.7-33.2c-2.5-4.3-7.5-3.5-10.5-2.4c-42.6,15.7-74.6-9.4-108.9-25.7
		c-5-2.4-10.6-3.5-15.9-5.2"/>
	<path class="st0" d="M1300,743.9c35.4,13.6,70.8,27.3,106.2,40.9"/>
	<path class="st0" d="M742.6,1464.9c-20.9,10.7-28.5,32.3-43.2,47.6c25.8,32.8,75.4,38.8,106.9,13.8"/>
	<path class="st0" d="M1074.4,685.1c-11.4,3.7-22.8,7.4-32.7,10.5c-9.7-1.3-12.3-8-14.8-13.2c-8.3-17-22.2-18-37.3-12.3
		c-10,3.8-20.6,1.3-29,3.3c-26.7,6.6-44.4-7.5-64-19c-11.4-6.7-23.3-11.9-37.2-10.2"/>
	<path class="st0" d="M806.3,286.2c11.7,3.9,24.7,3.5,34.9,12.3c2.2,1.9,8.7,5.6,10,5.1c31.4-12.6,55,19.7,85.2,13.5
		c4-0.8,10.3-2.8,13.1,2.4c15.8,28.4,42.5,18.6,66.4,17.5c4.5-0.2,8.9-2.1,13.3,0.3"/>
	<path class="st0" d="M1114.2,1165.7c2,3.9,1.2,10.6,8,10.1c27.7-2,52.2,8.5,77,18"/>
	<path class="st0" d="M1132.8,1278.2c-41.1-26-88.1-31.2-135.4-35.8"/>
	<path class="st0" d="M949.6,1127.4c12-5.9,24.7-0.3,34.1,3.5c21.7,8.7,44.5,9.9,66.7,14.4"/>
	<path class="st0" d="M355.2,1268c17,0.1,34.4-0.8,39.9,20.4c1.6,6.4,6.1,12.1,13.1,10c29-8.7,53,2.7,77.1,15.4
		c5.5,2.9,12.3,3.6,18.5,5.3"/>
	<path class="st0" d="M1278.7,511.2c22.8,21.5,52.9,12.5,79.6,17.9"/>
	<path class="st0" d="M1087.7,352.7c12.3,0.6,26.1-4.2,29.8,15.2c2.6,13.6,14.7,11.8,26,7.9s21.7-10.9,34.8-10.3
		c10.5,8.6-0.5,27,16.6,32.8c10.1,1.7,18.6-12.2,30.8-4.7"/>
	<path class="st0" d="M655.1,1147.8c26.6,4.9,53.5,9,74.3,28.1"/>
	<path class="st0" d="M957.6,1224.5c-23.9-25.2-54.3-11.7-85.4-16.2c-11.1-21.2-27.4-35.3-61.2-23.9c-11.1,3.8-30.3-9.1-47.1-3.3"/>
	<path class="st0" d="M668.3,866.6c24.8,4.3,49.5,8.5,74.3,12.8"/>
	<path class="st0" d="M631.2,1245c24.6,4.6,49,10.5,74.3,10.2"/>
	<path class="st0" d="M1384.9,892.2c-16.1,0.8-31.1,1.6-45.6-9.6c-10.7-8.3-26-14.9-39.3-0.6"/>
	<path class="st0" d="M742.6,276c-24.9-13.5-45.7-10.4-69,10.2"/>
	<path class="st0" d="M1191.2,720.9c-1.2,15.8,12.5,19.6,20.6,14.5c12.9-8.3,23.6-1,35.1-1.7"/>
	<path class="st0" d="M1063.8,835.9c20,6.6,40,12.8,61,15.3"/>
	<path class="st0" d="M1079.7,680c-3.5,23.6,14,28.8,31.9,33.1c7.1,1.7,15.9-3.2,21.2,5.2"/>
	<path class="st0" d="M864.7,1308.9c24.8,7.7,49.5,15.3,74.3,23"/>
	<path class="st0" d="M1061.1,462.6c39.7,12.4,80.3,20.7,122.1,23"/>
	<path class="st0" d="M1541.5,598.2c-21.8,8.7-37.7-13.2-58.4-10.2"/>
	<path class="st0" d="M790.4,178.9c-18.5,9.7-38.6,7.3-58.4,7.7"/>
	<path class="st0" d="M745.3,1265.4c17,10.7,36.9,9.4,55.7,12.8"/>
	<path class="st0" d="M790.4,626.3c-22.6-7.4-50.2-1.8-66.6-25.4c-7.4-10.7-19.4-9.4-28.7-2.4c-5.4,4.1-10.2,5.1-16.2,4.8"/>
	<path class="st0" d="M1087.7,245.3c21.3,8,46.2-1,66.3,12.8"/>
	<path class="st0" d="M1114.2,823.1c8,18.3,29.3,13.6,42.5,23"/>
	<path class="st0" d="M697.5,595.6c-4-12.7-8.5-24.7-26.5-20.5"/>
	<path class="st0" d="M801,889.6c-15.3,7.3-28.7-0.4-42.5-5.1"/>
</g>
</svg>
