<?xml version="1.0" encoding="utf-8"?>
<!-- Generator: Adobe Illustrator 23.1.0, SVG Export Plug-In . SVG Version: 6.00 Build 0)  -->
<svg version="1.1" id="Layer_1" xmlns="http://www.w3.org/2000/svg" xmlns:xlink="http://www.w3.org/1999/xlink" x="0px" y="0px"
	 viewBox="0 0 779.4 376.2" style="enable-background:new 0 0 779.4 376.2;" xml:space="preserve">
<style type="text/css">
	.st0{fill:none;stroke:#82563D;stroke-width:8;stroke-linecap:round;stroke-linejoin:round;stroke-miterlimit:10;}
</style>
<path class="st0" d="M630.8,304.7c0.9-51,2.5-102,2.1-152.9c-0.1-13-2.6-25.4-23.3-28.6c-94-14.8-187.5-32.9-281.3-49
	c-55.2-9.5-110.7-17.9-166.2-25.7c-18.5-2.6-37.5-2.6-56.3-2.6c-5.2,0-13.1-0.2-15.1,9.9c158.2,50.9,317.2,99.9,478.2,156
	c-46,51-89.1,99.1-132.8,146.7c-6.9,7.5-16.5,7.6-26,2c-18.4-10.8-32.9-26.3-46.2-41.9c-54.3-63.8-114.4-120.8-183.2-168.9
	C141.2,121.9,102,94.1,57.6,74.3c-13-5.8-24.4-15.2-37.2-21.6c-8-4-9-11.5-8.4-17.2c0.8-8.2,10-8.4,16.5-9
	c32.4-2.9,64.8-6.4,97.3-7.5c119.8-4.1,239.7-5.9,359.6-3.6c86.1,1.7,172.4-0.7,258.3,7.2c2.2,0.2,5.5-2.3,6.7-1.4
	c6.2,4.8,18.2-0.1,20.1,11.7c1.4,8.7-3.9,14.3-9.7,19.3c-15.2,12.9-30.9,25.2-45.9,38.3c-16.4,14.2-35.5,24.7-50.6,41.1
	c-12.1,13.1-13.9,26.5-13.3,42.6c1.8,43.9,6.1,87.8,4.8,131.9c-0.2,8.2-3.2,15.2-4.1,22.8c-1.8,14.6-10.8,7.4-17.9,6.8"/>
</svg>
