<?xml version="1.0" encoding="utf-8"?>
<!-- Generator: Adobe Illustrator 23.1.0, SVG Export Plug-In . SVG Version: 6.00 Build 0)  -->
<svg version="1.1" id="Layer_1" xmlns="http://www.w3.org/2000/svg" xmlns:xlink="http://www.w3.org/1999/xlink" x="0px" y="0px"
	 viewBox="0 0 1920 1920" style="enable-background:new 0 0 1920 1920;" xml:space="preserve">
<style type="text/css">
	.st0{fill:none;stroke:#82563D;stroke-width:2;stroke-linecap:round;stroke-linejoin:round;stroke-miterlimit:10;}
</style>
<path class="st0" d="M1068.3,503.9c9.9-9.4,22.6-11.4,32.4-18.3c17.1,5.4,27.1,19.1,36.7,33.9c39.3,60.6,67.8,128.9,90.6,199.4
	c35.9,111.3,98.3,184,193.2,218.9c97.4,35.8,195.3,69.1,295.1,93.7c25,6.2,49.8,13.3,74.7,20"/>
<path class="st0" d="M730.3,685c-33.4,18.6-61.7,45.9-89.6,73.9c-8.1,8.1-16.1,16.8-22.3,26.9c-14.6,23.5-31.7,23.5-52.7,13.9
	c-10.9-5-22.4-9.8-33.1-15.1c-8-3.9-14-1.5-22.6-4.7c-1,24.5,8.5,40,18.5,54.9c34.6,51.3,80.8,84.9,126.9,118.7
	c14.8,10.9,30.9,19.9,45.7,35.9c-10.1,4.7-17.5,1.9-25.1-0.3c-75.3-21.4-149-49.6-224.2-71.4c-44.2-12.8-88-28.3-134.5-25.2
	c-11.7,0.8-20.3,4-25.7,15.3c4.8,24.5,19.1,40.7,33.2,56.6c28.3,31.8,59,60.4,85.6,94.2c8.4,10.7,19.1,21.9,13.7,40.9
	c-16.6,10.3-35.1,13.1-52.7,19.3c-34.8,12.3-43.3,33.2-29.9,73.7c12.2,36.8,32,67.5,54.2,96.1c35.4,45.6,75.6,85.3,111.8,129.9
	c18.2,22.3,35.3,45.7,45.2,75.7c9.8,29.6,6,51.5-15.2,69.4c-33.7,28.4-73.3,38.2-112.1,48.7c-71.3,19.4-144.2,28.7-216.6,40
	c-26.5,4.1-53.2,9.5-80.2,9.7"/>
<path class="st0" d="M1064.6,494.9c54.2-44,108.5-87.7,162.4-132c27-22.2,56-41.8,77-72.8c-13.6-35.8-23.9-39.7-48.9-21.1
	c-75.7,56.3-149,117.1-224.2,174.3c-11.6,8.8-20.8,19-28.4,33.3c-11.6,21.6-31.9,32.1-50,45.1c-20.4,14.6-42.2,26.7-57.9,47.2
	c-0.2,21.7,15.1,27.2,24.7,34.8c38.4,30.6,76.4,62,117.1,88.3c3.7,2.4,5.9,4.1,9.5,1.8"/>
<path class="st0" d="M941.3,935.3c23.2,29.1,39.4,65.1,65.1,92c23.4,24.5,46.4,48.9,76.8,60c11,4,22.8,4.3,33.5,1.9
	c67.9-15.7,130.2,9.3,192.4,36.2c16.7,7.2,31.6,20.6,50.4,20.1"/>
<path class="st0" d="M974.9,904c18.4,58.7,48.3,104.9,99,127.3c28.4,12.5,57.8,21.4,87.8,26.8c61.7,11,121,29.5,175.8,66.8
	c13.5,9.2,24.1,23.4,39,29.6"/>
<path class="st0" d="M1017.9,450.2c-6.3-18.7-16.9-32.7-31.7-42.6c-23.6-15.7-45.3-35.5-71-46.9c-25.8-11.5-41.2-4.1-56.2,24.5
	c-15.8,30-24.3,63.4-32.9,96.5c-7.2,27.5-20.5,43.4-43.5,49"/>
<path class="st0" d="M752.7,617.9c-4.2,10.4-3.6,15,3.7,24.6c26.3,34.4,56.4,62.6,93.4,78.1c47.8,19.9,81.8,57,102.8,111.9
	c4.4,11.4,10.7,21.8,16.8,34c-15,6.4-24.6-12.9-37.4-7.1"/>
<path class="st0" d="M1055.3,707.3c5.6-6.6,11.2,3.3,19.6-2c-10.5-44.4-34.8-79.2-59.3-114.3c7.9,40.4,23.6,76.9,37.8,114"/>
<path class="st0" d="M840.5,850.4c-15.6,0.2-24.9-20-41.6-17.3c-3.9,4-4.1,8.8-1.4,15.2c11,26.2,23.7,49.6,44.5,67.7
	c24.9,21.7,52,17.5,78.8,16.2c7.3-0.4,14.5,3.3,22.6-0.6c13.4-6.4,26.2-11.8,29.2-35.2c-18.7-16-40.9-35.3-66.7-48.1"/>
<path class="st0" d="M788.2,723c-3.2-2.8-4.8-8.1-8.9-9.1c-51,32.5-101.3,65.6-157.4,82.8"/>
<path class="st0" d="M868.5,649.2c-14.6,20.5-35.4,21.4-57.4,1c3.5-18.6,16.1-32.4,22.5-53.1c-16.2-31.9-41.6-49.6-73.5-52.5
	c-23.1-2.1-33.3,20-22.4,44.3c9.8,21.7,23.9,38.3,41.1,51.4"/>
<path class="st0" d="M877.8,651.4c1.6,4.3-7.8,5.9,0.4,13.2c14.2-8,15.6-33.2,34-39.6c24.3,7.1,44.6,28.5,66.5,46.5
	c19.4,15.9,37.9,33.5,59.7,45c8,4.2,12.3,2.3,15-6.9"/>
<path class="st0" d="M872.2,841.4c15.5-21.6,9.3-44.5-0.4-64.5c-13.3-27.2-33-47.7-57.5-60.6c-11.4-6-20.6-3.2-26.1,11.1
	c-11.1,28.9-0.1,71.8,22.4,87.2c3.5,2.4,7,3.1,9.3-2.2"/>
<path class="st0" d="M913.3,530.7c-0.2-21.3,15.3-36.4,15.5-58.1c0.1-8,2.3-14.8-3.8-19.7c-19.9,35.6-15.3,86.3-46.9,116
	c-32.1-17.6-64.5-22.9-95.5-33.6"/>
<path class="st0" d="M741.5,671.5c-21.6,42-56.5,66.7-87.7,96.2c-7.3,6.9-16.2,11.7-20.6,22.3"/>
<path class="st0" d="M967.5,906.3c-23.6-23.7-48.9-24.6-63.8-1.7c2.1,15.1,19,11.1,22.7,24.1"/>
<path class="st0" d="M1003,470.3c-26,12.4-46.4,36-70.9,51.5c-9.4,5.9-17.9,15.5-29.9,8.9"/>
<path class="st0" d="M1045.9,515.1c9.6,3.4,14.1-6.3,20.5-11.2c0.7-0.6,1.3-1.5,1.9-2.2c-0.6-0.7-1.2-1.5-4-4.7
	c-19,6.2-28.7,30.2-46.2,41.2c-17.3,10.8-34.5,23.1-48.8,39.6"/>
<path class="st0" d="M847.9,854.9c7.6-3.4,16.9-1.8,22.6-11.5c-8.2-23.8-17.8-46.2-40.8-54.1c-14.8,21.3,0.8,58.5,33.6,81.6
	c7.2-4.7,9.3-11.4,5.1-20.5"/>
<path class="st0" d="M788.2,765.4c7.1,13.3,14.7,26.3,16.8,42.5"/>
<path class="st0" d="M885.3,626.8c0.4,12.5-13.6,9.5-15,20.1c3.8,0.5,7.7-2.2,9.4-6.7"/>
</svg>
