<?xml version="1.0" encoding="utf-8"?>
<!-- Generator: Adobe Illustrator 23.1.0, SVG Export Plug-In . SVG Version: 6.00 Build 0)  -->
<svg version="1.1" id="Layer_1" xmlns="http://www.w3.org/2000/svg" xmlns:xlink="http://www.w3.org/1999/xlink" x="0px" y="0px"
	 viewBox="0 0 174 1164" style="enable-background:new 0 0 174 1164;" xml:space="preserve">
<style type="text/css">
	.st0{fill:none;stroke:#82563D;stroke-width:12;stroke-linecap:round;stroke-linejoin:round;stroke-miterlimit:10;}
</style>
<g>
	<path class="st0" d="M145,1118.1c10.3-15.9,8.6-32.8,9.4-50.8c3-65.8-8.2-130.3-8.3-195.7c0-29.1,4.4-57.9,4.1-87.1
		c-0.9-95,3.5-190.1,1.4-285.2c-1.6-71.5,1.8-143.1,6.4-214.6c1.7-26.4,7.7-52.3,5.2-79.2c-1.6-16.4-4.3-33.3-11.5-46.3
		c-10.1-18.3-12.5-38.6-21.5-56.8c-6.4-12.9-11-26.3-13.3-41.4c-2.6-17.5-13.8-33.6-22.7-53.6C76.5,27,69.7,47,65.7,65.5
		c-5.7,25.7-18.7,48.3-26.4,73c-4.6,14.8-14,29.6-12.6,44.5c3.4,36.5-2.7,72.8-1.7,109.3c0.8,29.2,0.5,58.6,0,88
		c-0.9,52.5,0.6,105.1-3.7,157.5c-5.8,70.9,0,141.9-10.2,212.8c-4.1,28.4,3.3,58.1,4.5,87.2c1.5,39-2.2,78.2,1.1,117.1
		c3.2,37.1,1.3,74.6,9.4,111.3c3.9,17.8-5.7,37.9,7.6,54.7c33.7-6.6,67.8-14.8,102.6-3.6c6.4,2.1,13.3,1.8,14.3,9
		c1.4,9.4-6.9,9.8-13.7,13.4c-10.7,5.8-20.3,10.5-32.4,7.2"/>
	<path class="st0" d="M54.1,196.2c-5.7,55.7-3.4,111.4-5,167.1c-3.1,106.8-3.9,213.6-4,320.3c0,59-0.8,118.1-0.5,177
		c0.2,48.9,4.4,97.4,4.7,146.2c0.2,36.4-3.1,73,1.6,109.2"/>
	<path class="st0" d="M129.3,205.5c-11.2,31.8-3.5,63.9-3.9,95.8c-0.2,20,0,40,0.6,59.8c1,36.7-7,73.2-3.3,110.1
		c2.6,25.7-1.5,52.3-3.6,78.1c-1.9,22.9,0.4,45.7-3.1,68.7c-6.9,45-5.8,90.2-2.7,135.5c3,45.6,2.6,91.3,0.3,137.3
		c-3.3,65.4-0.3,130.9-0.1,196.3c0,7.9-0.3,15.8-0.5,23.8"/>
	<path class="st0" d="M32.8,1125.3c-4.8,15.8,1.1,24.9,17.2,28.8c17.8,4.3,34.3,2.3,49.3-9.2"/>
	<path class="st0" d="M32.4,197.3c12.3-3.7,24.2-7.6,35.3,3.4c3.8,3.7,11.4,5,17.4,5c12.5,0.1,24.5-4.3,36.6-6.8
		c12.6-2.6,22.3,14.3,37.2,8.4"/>
	<path class="st0" d="M68.6,74.3c15.8-4,31.3-0.9,46.8,0.5"/>
</g>
</svg>
