<?xml version="1.0" encoding="utf-8"?>
<!-- Generator: Adobe Illustrator 23.1.0, SVG Export Plug-In . SVG Version: 6.00 Build 0)  -->
<svg version="1.1" id="Layer_1" xmlns="http://www.w3.org/2000/svg" xmlns:xlink="http://www.w3.org/1999/xlink" x="0px" y="0px"
	 viewBox="0 0 580.5 1325.7" style="enable-background:new 0 0 580.5 1325.7;" xml:space="preserve">
<style type="text/css">
	.st0{fill:none;stroke:#52312C;stroke-width:2;stroke-linecap:round;stroke-linejoin:round;stroke-miterlimit:10;}
</style>
<g>
	<path class="st0" d="M153.4,535.2c7.5-0.9,12.7,3.6,17.1,7.8c7.4,7.2,16.6,13.6,15.1,25.8c-1,8.6,2.9,17.4-1.7,25.9
		c-3,5.6,1.2,11.1,1.8,16.7c1.7,15.4,4.2,30.6,7.8,45.8c10.9,45.4,29.2,87.8,55.7,127.4c15.5,23.1,28.3,47.7,34.5,74.6
		c4.1,17.8,5.4,35.9,3.5,54.1c-2,19.6-9.4,38.2-12.5,57.3c-4.7,28.3-24,49.9-34.8,75.2c-9.7,22.8-18.6,45.7-25,69.5
		c-0.6,2.3-0.8,4.7-1.7,6.8c-1,2.2-2.4,4.3-4.1,6.1c-2,2.1-1.4,4.5-1.6,6.9c-0.5,6.6,0,13.2-2,19.9c-1.8,6.3,2.7,12.9,6.1,18.9"/>
	<path class="st0" d="M421.8,374.4c3.1,3.8,0.6,7.9-0.2,11.4c-5.3,23.5-5.4,47-3.4,70.9c2.1,25.7,11.4,49.3,20.5,73.2
		c5.9,15.4,10.1,31.4,12,47.9c2.8,24.1,4.4,48.2,3.8,72.4c-0.7,25.6,4.3,50.3,11.8,74.7c0.9,3.1,2.3,5.6-0.1,8.4"/>
	<path class="st0" d="M348.7,672.4c11.8,18.5,23.8,37,35.2,55.7c15.9,26,23.6,54.2,26.4,83.8c3.9,41.4-2.9,81.6-15.5,121.2
		c-3.5,11.2-7.8,22-12,32.9c-6.4,16.9-13.9,33-24.5,47.7c-9.7,13.5-24,23.4-35.8,35.2c-28.7,28.7-56.9,57.8-81.3,89.9
		c-7.3,9.6-14.2,19.3-21.4,28.9c-0.6,0.8-0.9,1.9-1.7,2.2c-9.7,4.7-7.3,12.2-5.8,19.9c5.1,27.3,10.7,54.5,17.3,81.5"/>
	<path class="st0" d="M37.7,622.1c3.6-2.5,6.7-5.9,10.7-7.4c6.5-2.5,12.5-4.7,20.7-0.7c8.8,4.2,19.9,4.4,30.1,5.8
		c5.9,0.8,11.7,2.1,18.1,1.3c7.3-1,9.8,6.3,12.1,11.1c8.6,18,15.5,36.7,25.8,54c7.5,12.6,16.1,24.6,24.5,36.6
		c16.5,23.6,31.9,47.8,40.8,74.8c9.7,29.5,14.3,59.6,10.3,90.7c-1.2,9.6-2.1,19.3-3.2,29c-0.6,4.9-2.3,8.7-5.6,12.2"/>
	<path class="st0" d="M371.7,219.6c-12.7,1.6-20.5,10.3-29.7,17.3c-8.3,6.3-11.9,14.3-12.7,23.1c-1,11.1-0.2,22.3,2,33.5
		c4.7,23.7,13.3,46.3,20.7,69.3c7.1,22.4,13.4,44.9,12.4,68.6c-0.1,3.3-0.1,6.5-2.5,9.1"/>
	<path class="st0" d="M517,696c0.5,28.4-2,56.7-7.7,84.6c-1.9,9.5-5.7,19.1-7.2,28.4c-3.3,20.6-10.4,40.4-14,60.9
		c-1.1,6.7-2.8,13.3-5,19.8c-1.2,3.4-2.3,6.8-0.5,9.9c1.4,2.4,0.5,4.6-0.3,6.1c-5.8,11.2-10.2,22.5-11.9,35.1
		c-0.7,5.6-5.1,11.7-7.6,17.6c-12.2,30-27.7,58.5-43.5,86.9c-18.5,33.4-36.5,67-50.9,102.1"/>
	<path class="st0" d="M177.2,847.7c-4.4,10.7,3,19.1,7.8,27.3c4.2,7.3,9.3,14.2,17.1,19.9c5.6,4.1,11.7,11.3,13.2,19.8
		c0.9,5.3,3.2,10.4,5.7,15.5c2.9,6,1.4,14-0.1,21.1c-3,13.9-5.1,28-8.4,41.9c-2.9,12.1-4.7,24.3-6.6,36.6
		c-3.5,22.8-3.1,45.7-3.1,68.6c0,6.9,0.6,13.7,0.7,20.6c0.1,4.3,2.7,7.4,5,10.7"/>
	<path class="st0" d="M473.5,788.2c-5.7,13.5-7.4,27.9-10.4,42c-9.5,43.9-29.8,83.1-56.9,119.6c-3.8,5.1-7.6,10.2-11.5,15.2
		c-2.6,3.4-6,5.2-10.7,4.6"/>
	<path class="st0" d="M251.9,628.2c-2.5,18.4,1.3,36.4,5.9,54.1c5.5,21.2,16.6,40.5,27.9,59.4c11.2,18.8,21.4,37.8,26.8,58.8
		c0.6,2.2,2.3,3,3.4,4.5"/>
	<path class="st0" d="M291.3,329.4c4.9,8.3,4.8,17.8,6.3,26.7c1.8,10.5,2,21.3,2.7,32c1.3,19.8-4.4,38.7-11,57.1
		c-4.9,13.5-9.5,27.2-15.1,40.6c-1.6,3.7-2.8,7.1-6.7,9.1"/>
	<path class="st0" d="M203.5,123.6c0.7,15.5-2.8,29.8-13.9,42c-3.7,4.1-0.9,8.3,0.9,12.1c5.2,11.3,11.9,22.1,15.9,33.7
		c2.7,7.7,8.8,14.2,8.6,22.8c-0.1,8.1-0.5,16.3,0.1,24.4c1.6,25,9.8,48.6,17.2,72.4c3.4,11,7,21.9,10.7,32.8c1.5,4.4,1.8,8.7-0.1,13
		"/>
	<path class="st0" d="M443.9,311.9c-5.9-9.2-5.1-20.2-9.8-29.7c-0.9-1.9-0.6-4.4-1.8-6c-8-11.3-14.9-19.4-32.9-7.9
		c-10.9,7-18.6,15.5-22.8,26.9c-4.6,12.3,0.1,21.4,13.1,26.7c2.3,1,5,1.6,6.6,3.8"/>
	<path class="st0" d="M210.9,1186.9c-6,1.9-8,7-10.6,11.5c-19.1,32.8-33.3,67.4-42.7,103.6c-1.1,4.3-1.7,8.6-2.5,12.9"/>
	<path class="st0" d="M375.8,769.2c7.2,9.4,5.6,20.3,4.6,30.5c-2.4,24.8-12.7,46.5-33.3,63.4c-7.4,6-13.6,13.2-20.6,19.7
		c-3.5,3.2-6.6,6.6-12.2,8c-5.1,1.3-6,7.3-6.6,11.9c-2,15.4-5.9,30.4-11.8,44.9c-4,10-9.7,19.4-14.6,29c-1.5,2.9-3.6,5.2-7.4,5.3"/>
	<path class="st0" d="M217.5,430.8c-5.6,12.2-7.7,25.4-11.3,38.1c-5.3,18.8-12.3,37.1-15.7,56.4c-1.3,7.4-3.1,14.7-3.9,22.1
		c-0.3,3-1.8,5.3-2.6,8"/>
	<path class="st0" d="M444.8,331.7c2.7,1.5,5.3,3.6,8.3,4.4c2.5,0.6,5.1,1.8,8.3-0.4c5.6-3.8,13.1-2.1,19.6-4
		c10.7-3.1,21.4-6.2,23.7-18.3c1.3-6.5-1.1-12.5-4-18.3c-3.2-6.4-6.6-12.7-12.3-17.5c-8.3-7-14.8-7.2-23,0
		c-8.2,7.2-11.9,16.8-15.5,26.3c-2.5,6.5-7.9,11.4-9.7,18.5c-1.1,4.2-9.6,4.9-14.2,4.9c-5.9,0.1-11.9,0.8-18.1,0.1
		c-12.6-1.6-22.8,4.8-31.9,12c-5.9,4.7-5.2,10.9-1.7,16.6c6.1,9.8,14.6,17.3,26.2,21.3c7.9,2.7,19-1.2,23.8-7.5
		c6.2-8.1,9.5-17.7,16.8-25.5c4.9-5.2,4.6-13.3-1.3-19.5"/>
	<path class="st0" d="M205.1,333.3c-9.2-0.3-17.1-6.2-26.2-5.3c-10.4,1.1-19.5,5.3-28,11.2c-7.2,4.9-12.7,9.7-11.8,19.2
		c0.3,3.4-3.4,7.1-5.4,10.6c-4.7,8.4-4.8,18.3-9.3,26.6c-8.2,15.3-7,32.2-11.1,48.2c-4,16-4.5,32.4-6,48.7
		c-0.9,10-0.6,19.8,0.1,29.7c0.2,2.8,1.2,5,3.3,6.9"/>
	<path class="st0" d="M164.9,465.1c-9.8,4.7-11.2-2.2-20.6,4.4c-7.8,5.5-15.6,10.7-19.5,19.2c-2.1,4.6-3.1,8.9-2.2,14.5
		c1.2,7.4-1.8,16.1-6.5,21.7c-7,8.2-6.1,17.3-5.6,25.5c1.2,20.1,6.6,39.9,12.3,59.4c1.4,4.8-0.3,7.8-1.3,11.5"/>
	<path class="st0" d="M379.1,602.2c2.6-4.1,7.2-4.3,11.5-5.4c20.6-5,24.1-18.7,21.4-30.5c-2.5-10.7-6.8-13.2-18.1-15.1
		c-14.3-2.5-27.9-0.9-38.6,9.7c-0.8,0.8-2.1,1.1-3.2,1.6"/>
	<path class="st0" d="M365.3,771.1c-15.2,5.2-30.6,11-40.5,24.7c-13.7,18.9-14.5,40.3-15.5,61.8c-0.1,3.1,2.2,5.1,3.3,7.6"/>
	<path class="st0" d="M459.5,337.8c3.1,5.6,9.9,6,14.8,9.1c6.9,4.3,15.2,8.6,15.1,16.9c0,8.8-8.4,13.7-16.1,17.4
		c-17.9,8.6-24.4-0.2-27.8-15.1c-1.4-6.3-0.1-13.2-4.2-19"/>
	<path class="st0" d="M484.1,901c2.4,0.2,4.1-1.1,5.7-2.3c19.7-14.6,43.5-21.3,66.5-29.7c2.4-0.9,4.8-0.5,7.4-0.3
		c6.3,0.6,5.7,4.7,4.7,7.8c-2.2,6.9-7.8,11.4-14.6,14.5c-4.9,2.3-9.7,4.9-14.8,6.8c-12.6,4.8-22.8,11.9-28.8,23.7
		c-2.4,4.8-7.4,8.1-12.3,9.7c-8.9,2.9-16.4,8.8-26.2,9.4"/>
	<path class="st0" d="M350.4,539c-5.5-8.1-12.5-14.6-22.2-18.3c-17.8-6.8-23.5-5-34.6,7.5c-5.9,6.6-8,14.4-10.5,22.2
		c-2.7,8.6,1.6,17.3,7.7,21.6c11.6,8.1,18.2,20.3,30,27.9"/>
	<path class="st0" d="M245.8,66.4c4.4,16.7,3.3,33.4,1.4,50.3c-1.4,12.6-5,24.5-8.6,36.5c-0.9,2.8,0.4,5.1,0.2,7.7"/>
	<path class="st0" d="M370.1,771.5c-0.7,3.1-1.6,5.8-3.9,8.5c-19.7,23.2-36.7,47.9-46.7,76.2c-1.7,4.8-7,7.5-6.8,12.9
		c0.3,6.9-0.7,13.8,0.8,20.6"/>
	<path class="st0" d="M405.4,446.8c-12.8,5.9-25.6,12.5-34.8,22.5c-4.7,5.1-5.4,13.8-6.9,21c-2.4,12-4.1,24.1-5.8,36.2
		c-0.6,3.9-1.6,7.7-3.8,11c-3.2,5-5.8,10.4-4.3,16c3.4,12.5-3.7,22.3-9.6,31.8c-3.2,5.2-4.6,9.9-4.5,15.5"/>
	<path class="st0" d="M324.1,610.6c-8.9,5.7-18,11.1-27.9,15.3c-8.3,3.6-7.5,11.9-7.9,18.2c-0.5,9.1,1.3,18.3,6.2,26.7
		c6.2,10.8,12.9,14.1,25.5,12.2c10.3-1.6,19.1-6.9,27.6-11.9c3.3-1.9,5.5-8.1,5.2-13.3c-0.1-2.4-0.2-4.8,1.6-6.9"/>
	<path class="st0" d="M512.9,688.4c-6.5-2.6-7.7-8.6-9.7-13.8c-2.4-6.3-7-9.7-13.3-11.3c-4.7-1.2-11.3,3.7-11.4,8.3
		c-0.1,7.6,3.5,13.8,10.6,17.4c7.3,3.7,14.7,9.6,24.1,3.1c2.4,1.4,4.3,4.6,8.7,2.4c8.4-4.2,17-8,22.9-15.4c5-6.4,4.3-14-1.6-18.3
		c-5.9-4.3-14.2-2.8-19.8,3c-2.6,2.7-3.2,6.9-7.3,8.4"/>
	<path class="st0" d="M214.2,905.6c4.1-4.1,5.3-8.9,5-14.5c-0.6-10.9,1.3-21.8-5.6-32.1c-7.4-11-17.9-17.9-29.8-23.4
		c-2.4-1.1-5.9-0.2-8.9-0.2"/>
	<path class="st0" d="M244.5,408.7c4.7,4.5,10.9,8.3,9,16c10.4,19,7,40.2,10.5,60.2c3.5,20.1-0.7,39.8-4.8,59.4
		c-1.9,9.2-4.6,18.1-6,27.4c-0.4,2.5-0.1,4.2,1.1,6.1"/>
	<path class="st0" d="M71.4,342.3c1.5,10.4-2.7,14-0.9,24.4c2.8,16,11.6,27.9,26.2,36.7c6.3,3.8,11.7,8.7,19.8,9"/>
	<path class="st0" d="M513.7,594.6c-6.1,14.9-7.5,30.1-4.2,45.7c1,4.5-0.2,9.1,0.7,13.7c1.4,7,2.9,13.9,5.7,20.6
		c2.4,5.5-2,11-2.3,16.7"/>
	<path class="st0" d="M530.9,543.6c7-1.9,11.8-6.7,16.3-11.5c3.3-3.5,4.6-8.1,4.2-12.9c-0.4-6-5.4-8.6-10.7-5.3
		c-9.9,6.2-12.7,16-11.9,25.9c0.4,5.4-0.3,9.9-2.2,14.5c-4.6,11.1-9.5,22.1-13.2,33.5c-1.7,5.2,0.9,7.2,5.1,7.5
		c11.8,1.1,30.8-8.6,33.7-18.2c1.6-5.3-0.4-8.1-6.6-8.4c-6.4-0.3-11.9,1.9-16.4,6.1c-3.2,3.1-6.5,6-11.5,6.1"/>
	<path class="st0" d="M277.4,91.6c2.7,27-7.5,49.6-30.7,65.1c-15.1,10.1-18,24.4-22.5,38.6c-2.4,7.6-4.5,15.5-5.2,23.6
		c-0.2,2.5-1.2,5.4-4.8,6.1"/>
	<path class="st0" d="M394.7,152.6c2.2-1,4.3-2.2,6.6-3c13-4.5,17.2-17.3,9-27.5c-5.8-7.3-13.9-8.2-21.3-2.3
		c-5.1,4.1-9.9,8.6-14.8,12.9"/>
	<path class="st0" d="M142.8,343.9c-3.1-3.2-1-7.2-1.3-10.7c-1.6-14.8-12.6-24.6-21-35.7c-5.2-6.8-12.9-11.8-21.2-15.3
		c-8.9-3.8-18-5.5-27.1-0.1c-1.3,0.8-3.2,0.6-4.9,0.8"/>
	<path class="st0" d="M71.4,342.3c23.5,8.7,32.2,27.7,39.5,48c1.9,5.2,1.5,11.2,6.4,15.3"/>
	<path class="st0" d="M514.5,576.3c-4.8-3.5-2.9-9.6-6.4-13.8c-3-3.5-4.1-8.8-10.8-6.7c-6.1,1.9-9,7.5-7.4,13.7
		c3.4,12.9,10.7,19.9,22.2,21.3"/>
	<path class="st0" d="M355.3,926.9c-6.1,15.3-4,30.3,2.5,44.9c2.7,6.1,3.6,12.9,8.1,18.4c1,1.2,1.5,2.5,3.4,2.2"/>
	<path class="st0" d="M328.2,604.5c12.8-7.7,26.3-1.2,39.4-1.4c20.4-0.4,35.1,9.6,45.7,24.5c7.6,10.7,7.3,24.6-5.6,32.5
		c-8.1,4.9-17.5,3.6-26.1,1.5c-20.2-5-34.5-16.7-43.7-34.1c-2-3.7-3.4-8-7.2-10.7"/>
	<path class="st0" d="M491.5,797.4c4.1-4.1,1.6-8.7,0.7-12.9c-3.6-17-8.2-33.6-22-46.6c-2.5-2.3-4.8-3.6-8.2-4.8
		c-7.3-2.6-13.9-7-18.1-13.4c-2.3-3.6-5-4.6-9.1-3c-4.3,1.6-4.2,4.9-4.1,8.4c0.2,11.2,4.7,20.6,13.3,28.1
		c10.5,9.1,17.8,20.5,26.7,30.8c3.7,4.2,8.8,5.4,12.9,8.6c6.1,4.8,11.4,10.3,16.9,15.6"/>
	<path class="st0" d="M145.2,530.2c4.8,2,6.1,5.3,7.8,10.2c6.1,17.5,13.1,34.9,22.7,51.1c1.3,2.2,2.8,5.2,6.4,5.4"/>
	<path class="st0" d="M182.2,109.1c-3.5,15.5-4.8,31,0,46.5c1.3,4.2,2,8.8,6.5,11.4"/>
	<path class="st0" d="M97.6,252.4c5.5,0,11-0.4,16.4,0.1c13.7,1.4,26.1,6.4,31.6,18.4c4,8.7,2.6,19.1,1.9,28.8
		c-0.5,6.9-0.4,14.3-5.6,20.2c-0.7,0.7-2.1,0.8-3.2,1.2"/>
	<path class="st0" d="M11.5,539c15.1-3.2,28.5,0.3,41.1,8.3c6.6,4.1,11.7,9.2,15.4,15.4c5.7,9.4,12.1,18.3,20.6,25.9
		c10.7,9.5,19.9,20.2,28.7,31.2"/>
	<path class="st0" d="M277.4,281.4c-12.9,8.5-26.2,8.5-40.3,2.5c-3.5-1.5-5.8-3.2-7.6-6.8c1.8-1.3,2.8-3.1,6-3.4
		c7.2-0.8,13.6,2.1,20.5,2.7c4.6,0.4,5.7,5.6,6.6,9.6c1.3,5.7-0.1,11.3-1.6,16.8c-4.3,15.4,9.4,29.6,26.2,26.6
		c10.1-1.8,17.3-12,13.1-25c-1.8-5.5-5.4-10.7-10.7-13.6c-9-5-12.7-12.2-13-21.5c-0.1-2.9-1.6-5.3-3.2-7.7c-1.6-2.3-2.8-4.8-6.6-4.6
		c-4.4,0.2-6.2,3-7.3,6.2c-1.4,4-2.3,8.1-3.4,12.2"/>
	<path class="st0" d="M289.7,573.3c-10.7,1.6-21.5,0.6-32.1,4.3c-13.2,4.7-25.4,16.9-25.4,27.7c0,4,1.4,7,4.1,10
		c12.4,13.4,28.2,16.2,46,13.8c2.6-0.3,5.7-1.9,8.2,0.7"/>
	<path class="st0" d="M219.1,414c-2.3-3.5-6.6-4.6-10-6.7c-6.4-4-8.8-9.3-9-16.2c-0.2-6.5-5-9.5-13.1-10c-8.2-0.5-14,6.6-14.8,12.3
		c-0.9,6.9,2.2,10.1,10.6,11.5c3.3,0.5,6.6,1.5,9.9,2.3"/>
	<path class="st0" d="M343.8,1073.3c-10.5,8.4-24.1,17.4-38.6,17.3c-5.8,0-12.5,0.3-17.2-4.3"/>
	<path class="st0" d="M352,139.6c-5.2,2.1-10.4-0.7-15.6-0.1c-5.1,0.6-9.3,1.4-10.7,6.9c-1.5,5.8,0.1,10.7,5.2,13.5
		c3.6,2,8.7,3.3,13,0.2c7-5.1,14.3-9.4,22.7-12.7c3.5-1.4,5.2-9,5.7-13.9c0.6-6.2-0.4-12.7-1.5-19c-1.3-7.6-6.1-11.2-13-10.7
		c-6.7,0.5-12.5,6.2-12.2,13c0.6,11.9,6,21.7,16.3,29"/>
	<path class="st0" d="M73,473.4c1.1,8.2-2.3,16.2-7.8,21c-8.8,7.7-6.5,16.8-7.6,25.6c-0.5,4.2,0.6,8.7,1.5,12.9
		c1.2,5.6,1.1,10.9-1.7,16"/>
	<path class="st0" d="M172.3,834c0,10.8,11.2,14.8,15.7,22.9c4.6,8.4,9.2,16.8,14,25.1c2.2,3.8,1.8,7.6,0.8,11.5"/>
	<path class="st0" d="M201,402.6c-10.8,4-11.4,14-14.6,22.2c-1.4,3.7,2.7,6.6,5.7,8.1c4,2.1,9.2,1.9,12.9-0.7
		c3.4-2.3,6.3-5,10.8-5.2"/>
	<path class="st0" d="M340.5,162.5c-3.6,17.4-9.3,34.5-7.3,52.6c0.3,3-2.6,4.4-3.3,6.9c-2,6.9-0.7,12.9,5.7,17.5"/>
	<path class="st0" d="M189.6,333.2c-12,6.9-25.6,11-37,19c-3.6,2.5-6.7,6.6-12.3,5.4"/>
	<path class="st0" d="M200.2,32.1c11.5,0.7,16.4,4.4,17,16c0.6,12.6,12.8,19.6,26.5,17.3c4.9-0.8,7.9-5.7,9-10.4
		c1.7-7.4,1.7-14.7-4.8-20.6c-2.2-2-3.9-4.5-5.8-6.8"/>
	<path class="st0" d="M125.5,203.6c13,4.5,15.1,15.2,16.2,25.9c0.5,5,2,10.6-2.3,15.2"/>
	<path class="st0" d="M164.9,465.1c0,3.9-3.1,6.1-5.8,8.4c-10.6,9.2-21.7,17.9-30.4,28.9c-1.1,1.4-3.2,2.1-4.8,3.1"/>
	<path class="st0" d="M316.7,561.1c3.3,14.2,6.6,28.5,9.8,42.7"/>
	<path class="st0" d="M339.5,429.8c5.9,14.9,14.2,29.3,29,39.1"/>
	<path class="st0" d="M125.5,203.6c1.8,11.1-4.1,12.6-0.1,23.7c1.9,5.3,3.7,11.4,8.5,14.2c9.2,5.4,6.5,11.2,3.1,17.8"/>
	<path class="st0" d="M199.4,385c5.7-6.1,10.6-12.6,20.5-13.9c12.1-1.5,24.1,4.5,27.8,15.4c1.1,3.3,2.6,4.9,6.6,5.5
		c5.5,0.7,9.9,4.1,13.1,8.3c4.4,5.7,1.8,12.1-5.7,14.4c-2.7,0.8-5.5,1.5-8.2,2.3"/>
	<path class="st0" d="M288.8,603.8c12.9,0.6,25.7,4,38,0.2c3.7,11-3.4,21-3.8,31.8c-0.1,3.5-0.3,7.1-0.6,10.7"/>
	<path class="st0" d="M355.3,926.9c8.9,7.4,22,18.1,22.9,29.7c0.2,2.8,1.2,5,3.3,6.9"/>
	<path class="st0" d="M254,427.7c-1.5,2.3-3.4,4.2-4.7,6.8c-4.9,9.5-16.3,10.5-23.6,2.4c-2.1-2.3-4.1-4.9-6.6-6.8
		c-5.6-4.2,0.1-8.7-0.6-13c-0.6-3.3,3.1-4.6,5.6-4.4c16.1,1,23.3-7.5,26.3-20.7"/>
	<path class="st0" d="M181.3,81.7c-2.2-0.3-4.4-1.8-6.6,0c-5.4,4.5-6.6,10.5-5.6,16.7c0.9,6.2,6.8,8.5,12.2,8.9
		c5.7,0.5,11.8-0.7,15.6-5.8c4.8-6.6,0.8-17.1-7.4-19c-2.4-0.6-4.9-0.6-7.4-0.8"/>
	<path class="st0" d="M366.8,148.7c2.4,1.5,2.4,4.5,2.2,6.1c-1.2,11.6,7.5,17.9,15.2,24.3c7.4,6.2,23,0.2,24.4-9
		c0.4-3.1-1.2-6.3-4-8.3c-6.5-4.7-11.8-11.5-21.3-11.5"/>
	<path class="st0" d="M103.4,605.3c-7.9,2.1-15.9-0.7-23.8,0c-5.2,0.5-10.7-0.3-14.8,3.8"/>
	<path class="st0" d="M306.9,1068.7c9.9,0.1,19.7-0.3,29.6,1.4c3,0.5,5.3,1.4,7.4,3.2"/>
	<path class="st0" d="M163.3,181.5c8.4,11.1,21.2,13.7,34.5,15.2"/>
	<path class="st0" d="M375.8,577.9c-12.4,5.5-24,12-32.8,22.1"/>
	<path class="st0" d="M337.3,607.6c10,6.7,22.3,8.8,32.8,14.5"/>
	<path class="st0" d="M73,473.4c-15.2,4-19,12.7-13.1,25.2"/>
	<path class="st0" d="M242.9,9.3c-3.4,4.6-0.7,10.9-5.2,15.8c-6-2.5-13.3-3.1-15.7-10.4"/>
	<path class="st0" d="M329.1,221.2c-2.3-1.7-4.2-3.6-5.9-6c-5.1-7.6-13.1-10.1-22-7.7"/>
	<path class="st0" d="M301.2,207.4c7.5,7.5,15.2,19.9,27.1,22.1"/>
	<path class="st0" d="M338.9,420.8c6.3-1.1,9.3,3.5,12.1,7c3.6,4.5,6.7,9.4,10.4,13.9c4,4.9,3.2,12.4,0.5,18.7"/>
	<path class="st0" d="M370.9,168.6c-2.2,1.8-2.7,4.6-4.2,6.8c-5.1,7.9-13.4,9.6-21.2,4.6c-2.1-1.3-3.9-3-5.8-4.5"/>
</g>
</svg>
