<?xml version="1.0" encoding="utf-8"?>
<!-- Generator: Adobe Illustrator 23.1.0, SVG Export Plug-In . SVG Version: 6.00 Build 0)  -->
<svg version="1.1" id="Layer_1" xmlns="http://www.w3.org/2000/svg" xmlns:xlink="http://www.w3.org/1999/xlink" x="0px" y="0px"
	 viewBox="0 0 543 12" style="enable-background:new 0 0 543 12;" xml:space="preserve">
<style type="text/css">
	.st0{fill:#A0D468;}
</style>
<g>
	<line class="st0" x1="4" y1="7.5" x2="539" y2="7.5"/>
	<g>
		<g>
			<g>
				<g>
					<path class="st0" d="M5.3,7c-2,0,1,0.2-1.3,0.1C4.3,7,4.6,6.9,5.3,7z"/>
					<path class="st0" d="M532.5,7.1c-6.3,0.8-14.6,0-21.6,0.5c-0.8,0,0.2-0.4-1.6-0.3c-6.7,0.6-17.3,0.2-25.5-0.2l0.5-0.1
						c-1.6-0.1-3.5,0.3-5.1,0.3c0-0.1,0.5-0.1,0.1-0.2c-0.4,0.2-3,0.1-3.7,0.3c-0.7-0.1-0.6-0.3-1.4-0.4l-0.9,0.3
						c-2.6,0.6-6.4,0-10,0.3c0.2-0.1,0.5-0.1,0.2-0.2c-5.8,0.4-12.9,0.3-19.4,0.5c0.3-0.1,0.5-0.3,0.1-0.4c-0.3,0.3-2.3,0.4-4,0.4
						c-0.8-0.3-3,0.3-5,0.1l0.2-0.1c-1.5,0.3-2.2-0.2-3.4,0.2l-0.9-0.2c-0.7,0.4-2.2-0.2-3.4,0V8c-1.2,0.1-1.8-0.1-2.8,0h-0.1
						c-2.5,0.1-4-0.1-3.9,0.2c-0.9-0.3,2.5-0.1,1.1-0.5C413.7,8,405.1,8,396.7,8c-1-0.1-1.6-0.2-1.8-0.3c-0.8,0.1-3.2,0.1-3.9,0.2
						c0.3,0-0.5-0.2-1-0.2c-1.5-0.1-1.7,0.4-3.3,0.2c0.7-0.1,0.9-0.2,0.7-0.3c-1.4,0.2-3.3,0.2-5,0.3c0.3-0.1,0.7-0.1,0.6-0.2
						c-1.8,0.3-3.4-0.1-5,0.1l0.6-0.2c-2.6-0.2-0.8,0.4-3,0.3c0.5-0.1,0.4-0.1,0.4-0.2c-2.1,0.3-5.5,0.2-7.6,0.3
						c0.1,0,0.1-0.1,0.1-0.1c-2.3,0-4.7-0.1-7.2,0.1c-0.9-0.1,0.3-0.5-2.1-0.4c0.1,0.4-4.1,0.2-2.7,0.6c-2.1-0.1-5.3-0.2-6.7-0.1
						c0.9-0.1-1-0.5,0.7-0.5l-1.3-0.2c0.2-0.2,1.3,0.1,0.9-0.1c-0.9,0-3.4,0.2-4.1,0.1c-1.6,0.2-3.1,0.7-5.6,0.7
						c1.2-0.1-0.7-0.4,0.1-0.5l-3.6,0.7c-0.9,0-0.2-0.3-1.4-0.2c0.1,0.1-0.5,0.2-0.9,0.2c-0.3,0-3.6,0.1-3.9-0.3
						c-0.4-0.1,1.4-0.1,0.4-0.2c-1.6,0-1.7,0.1-3.2,0.1l0,0c-1-0.1-3.1,0.2-1.9,0.4c0.7,0-0.3-0.2,0.8-0.1c-0.7,0.2-2.6,0.3-4.2,0.3
						c0.5-0.1,0.5-0.2,0.7-0.3c-2.1,0.3-4.4,0.4-6.8,0.5c0,0.2,0.9-0.3,1.2-0.2c-3-0.2-6.3,0.3-8.8,0c0.4,0,0.2,0.2,0.2,0.2
						c-1.5,0-1.4-0.3-2.4-0.2c-0.1-0.1-1.2,0-2.2,0.1c-0.5,0.1-0.3-0.1,0.6-0.1c-1.4,0.1-6.9,0.4-10,0.1c0.1,0.1-1.9,0.4-2.7,0.3
						l0.3-0.2c-0.7-0.1-2.4,0-2.6-0.2c-1.6,0.3,6-0.2,3.9,0c-0.5-0.2-2.9,0.4-2.5,0.1c-1.5,0-2.9,0.3-4.3,0.1c0.4,0,1.2-0.3,0-0.3
						c-2.1,0-0.6,0.1-2.3,0.2L284,8.5c-0.1,0.2-1.9,0-1.1,0.2c-0.3-0.2-3,0.1-2.8-0.3l0.3-0.3c-0.9,0-1.5,0.3-2.2,0.4
						c-0.1,0-0.4-0.1-0.3-0.1c-0.1,0.4-2.1,0-3.2,0.3c-1.9-0.2-4.8,0-5.7-0.3c-1.4,0.1-2.8,0.3-4.4,0.2c0.3,0,0.8-0.1,0.9-0.2
						c-1-0.1-1.3,0-2.2,0.1c0.2-0.1-2.1-0.3-3.2-0.4c-1.4,0.1-0.9,0.4-1.1,0.5c-1.3-0.4-4.1,0.3-5.7-0.1c0.5-0.1,2.1-0.2,0.9-0.3
						c-1.3-0.4-2.7,0.3-4.8,0.1l0.5,0.4c-0.9-0.2-3.1,0.2-2.9-0.2c-0.7,0.1-2.5-0.1-2.3,0.2c-3.5-0.3-8.5,0.2-10.6-0.5
						c-0.5,0.1-1.7,0-1.5,0.2c0.8,0.2,1.2-0.1,1.5,0c-0.4,0-0.5,0.1-0.6,0.2c-1.1-0.1-1.9-0.1-0.9-0.4c-2.4-0.2-2.5,0.6-5.6,0.5
						c0.1-0.1-0.1-0.2-1-0.2l-1.7,0.3c-2-0.1-1.1-0.3-1.2-0.6c-1.1,0-2.4,0-2.8,0.2L219,8.1c0.9,0.2-0.9,0.2-1.4,0.2l0.5-0.1
						c-0.2-0.1-1.4,0-2,0c0.1,0.2,1.4,0.2,2.1,0.3c-0.5,0.1-1.4,0.1-2.1,0.2c0.2-0.2-1.7-0.2-2.6-0.2c-1-0.1-1.1,0.2-1.4,0.2
						c0-0.1-1.6,0-0.8-0.2c0.3,0,0.8,0.1,1.3,0c-0.6-0.1-0.6-0.3-1.9-0.2c-1,0.1,0.3,0.5-1.6,0.3c0.5-0.1,0.6-0.2,1-0.2l-1.8-0.1
						l-0.1,0.2c-0.2-0.1-0.1-0.1-0.2-0.1c-0.5,0.2-2.7,0.1-3.1,0.3c-0.9,0-1.9-0.2-2.7-0.2h0.2c-1-0.1-2.4,0-3.3,0.1l0,0
						c-0.6,0-1.9,0-2.6,0.1c-1.4-0.2-0.5-0.8-2.1-0.6c-1.5,0-2.3,0.4-1.7,0.6c-2.6-0.2-5.6,0.2-8-0.1c-0.4,0.1-0.1,0.1-0.9,0.2
						c-3.9-0.1-8.1,0.3-11.2-0.2c1.1-0.1,0.1-0.2,0.1-0.3c-0.9,0.2-1.1-0.2-1.4,0.1c0.1,0.2,0,0.3,1.1,0.4c-2.6,0.2-6.1,0.2-7.4,0
						c0.6,0.1,0.1,0.2-0.4,0.2c0.2-0.3-1.5-0.4-2.8-0.3l-0.2,0.2l-0.8-0.2c-0.5,0.1-0.5,0.4-1.8,0.2c-0.1-0.1-0.1-0.2-0.4-0.2
						c-1.3,0.2-3.2,0.4-4.6,0.3l-1.2-0.3c-0.6,0-1.6,0.2-0.6,0.3c-2.5-0.2-4-0.2-4.8-0.4c-4.2,0.6-10.4,0.6-15.3,0.6l0.1-0.1
						c-1.3-0.1-0.7,0.3-1.6,0.2c0.4-0.1-1-0.3,0-0.5c-1.9-0.2-2.4,0.3-3.7,0.3c-0.2,0.2,1-0.1,0.8,0.1c-0.2,0.1-2.6-0.1-2.9,0.1
						c-0.5-0.1-0.1-0.3,0.2-0.4L123.9,9c-1.4-0.3,3.2-0.6,1.7-1h-1.1c-1-0.3,2.8-0.3,0.1-0.4c-1.2,0.1-2.2,0.6-1.1,0.7
						c-2.4,0.1-1.1,0.7-3.7,0.7c-0.7-0.2,2.1,0,1.6-0.3c-1.2-0.2-2.5,0.1-3.5,0c1.2,0.1,0.2,0.4-0.6,0.5c-1.3-0.1,0.9-0.3-1-0.3
						c-0.3,0.2-2,0.3-0.5,0.4c-0.7,0.4-1.9-0.1-3,0.2c-0.6-0.3,1.9-0.6-0.1-0.8c0.3,0.3-2.5,0.4-1.4,0.7c-0.8-0.1-0.9-0.3-0.3-0.4
						c-1.2-0.2-2.8,0.5-3.2,0l-0.4,0.3c-0.4-0.1-0.9-0.2-1.5-0.3c-1,0-3.3,0.4-3.2,0c-0.3,0-2.6,0-1.7,0.3c1.4,0.2,1.7-0.2,2.5,0.2
						c-1-0.3-2.1,0-2.9,0.1l-0.1-0.2c-0.5,0.1-1.6,0-1.9,0.2c0.4-0.1,0.2-0.2-0.2-0.2l-0.5,0.2c-2,0.1-0.5-0.4-2.4-0.3L96.7,9
						c-0.3,0-1-0.2-1.9-0.1c-0.4,0.2-1,0.5-1.4,0.6c-1.1,0.1-0.5-0.2-1.6,0l1.4-0.3c0.2-0.1-1-0.4-2.4-0.3c-0.9,0.1-2.4,0.4-0.9,0.5
						c-0.7,0-1.8-0.1-1.2-0.3c-1.7,0.1,0.2,0.2-1.2,0.4c-0.6-0.1-2.4-0.3-3.5-0.6l1.5-0.4h-1c1.3-0.3-0.7-0.2,0.1-0.5
						c-0.7,0-1.5,0.1-2.2,0.1c2,0.5-2.2,0.7-1.7,1.1c-2.7,0.2-1.7-1-4.6-0.3C76.6,9,75.2,9.3,77,9.2c-1.7,0-1.2,0.4-3.2,0.3
						c1.5-0.2-1.6-0.4,0.6-0.7c-0.1,0.1,1.2,0.1,1.5,0.1c-0.7-0.2,0.1-0.4-1.6-0.4c-1.1,0-2.5,0.1-2.3,0.3c0,0.3,1.6,0,0.9,0.2
						c-2.1,0-2.5-0.4-3.3,0c1.3,0,1.7,0.2,1.7,0.4l-1.6,0.1L70,9.4c-2.5-0.1-0.7,0.3-3.2,0.3l-1.1-0.3c0.5-0.4,3.5,0,3-0.4
						c-1.6,0-2.1,0.2-3.6,0.1C65.5,9,65.9,9,66.3,9c-0.6,0-1.1-0.6-3.4-0.3c-1.2,0.1-0.3,0.2-0.3,0.3c-2.5,0.1-3.3,0.2-4.9,0.3
						c0.3-0.3-2.9,0-1.1-0.4c0.8,0.2,4.5,0.2,5.4-0.1c-0.9-0.4,2,0.1,2.5-0.4c-2,0-1.9-0.4-2.3-0.7c-0.6,0-1.1,0.1-1.4,0.1
						C60.6,8,61.3,8,61.3,8.3c-2.3-0.1-4.4,0.1-5.7,0.3c-0.8-0.1-0.5-0.4,0.4-0.4c-2.7,0.1-5.6,0-8.1,0c1.7,0.4-2.9,0.1-1.7,0.4
						C47.6,8.7,48.8,9,48,9.2c-0.9,0,0-0.2-0.3-0.3c-1.1,0.2-1.7-0.3-2.8,0c2.5-0.1,0.5-0.5,0.9-0.8C44,8.4,45.8,8,44.1,8
						c-1.8,0.2-3.9,0.3-5.9,0.4c-2.5-0.3-6.3,0-8.5,0c-1.2-0.2-0.4-0.5-1.6-0.6c-1.5,0,1.1,0.4-1.1,0.2l0.2-0.1
						c-0.7,0.1-4-0.2-4.6,0.3l0.7-0.4c-0.4,0-0.8,0.1-1.1,0.1c0-0.1-0.5-0.2,0.2-0.3c-1.3-0.3-2.8,0-4.3,0.1L19,7.9
						c-2.5,0.2-4.2,0-6.6,0l0.1-0.2L11,7.8c0.4-0.2-1-0.4-1.7-0.2L13,7.1c1,0.1-1.1,0.3-0.5,0.5s2.8,0.1,3.2-0.1
						c-0.9,0-0.9,0-1.6,0.1c-0.3-0.3,1-0.3,1.7-0.5c-0.4,0-1.1-0.1-1.2,0c0.9-0.2,1.8-0.2,3.2-0.2c-1,0.1,0.5,0.2,0.2,0.3
						c0.1-0.3,1.5-0.4,3.3-0.3c1.3,0.3,3.4-0.2,5.5-0.1c-0.9,0.3-1.9,0.5-3.2,0.6c1.3,0.1,1.5,0,2.8,0.1C27,7.3,27.5,7,29.2,6.9
						l0.1,0.2c1.6-0.1,1.6-0.4,3.5-0.3c3.4,0.1,6.9,0.1,9.5,0.1l0.1,0.2c1.4-0.4,4.8-0.2,6.8-0.4c3.3,0.2,7.2-0.2,8.9,0.2
						c5.8-0.2,10.9-0.3,17-0.2l-1,0.3c1.1-0.2,0.7,0.2,1.8,0.1c-1.2-0.2,1.5-0.3,2.2-0.5c2.7,0.2,6.2,0,8.5-0.2l0.1,0.2
						c2.4-0.4,5.3,0,8.3,0c0.3,0.1,0.9,0.3,1.8,0.3c1.6-0.3,2.5-0.3,4.9-0.5c1.7,0,4.6,0.1,6.4,0.2c6.6-0.5,13.3-0.2,20.1-0.4
						l0.5,0.2c6.6-0.5,14.8,0,20.4-0.3l-0.5,0.4c1.8,0.1,4-0.1,3.6-0.4c1.8,0.1,4.4-0.2,5.6,0.1c1.8,0.1,2.2-0.2,3.7-0.2
						c3.6,0.2,5,0.1,8.4,0h-0.8c-0.4,0.1-0.4,0.3,0.4,0.3c1.3-0.1,4.7,0.1,3.4-0.4c3.7,0.3,8.5-0.2,12.1,0.2c-0.3-0.1,0.6-0.2,1-0.2
						c3.2,0,6.6,0.3,9.1,0c0.5,0.1-0.8,0.2,0.5,0.2c0.8-0.1,0-0.2,1-0.2C201.7,5.5,207,6,211.8,6c8.4-0.3,17.2-0.1,25.2-0.2
						l-0.1,0.1c2.7-0.4,6.3,0.4,8.5-0.2c0.6,0.1,2.4,0,2,0.2c2.1-0.3,6,0.2,9.1-0.1c-0.3,0-0.4,0-0.8,0.1c3.1,0.2,5.9-0.1,9.2,0.1
						c-0.3,0-0.9,0.1-1,0.2c1.3,0.2,3-0.4,3.7,0.1c0.7,0,0.5-0.2,0.1-0.2c7.3,0.2,15-0.1,22.5-0.2c5.4,0.3,0.3,0.8,4.6,0.4
						c0.3,0.1,0.3-0.2,0.3-0.1c1.6-0.1,2.6,0.5,3.7,0.3c-0.5-0.3,0.8-0.2,0.8-0.3c3.3,0.2,4,0.4,6.6,0.2L306,6.5
						c3.1-0.4,6.6-0.2,9.2-0.7c16.9-0.1,33-0.4,49.5-0.4c16.3,0.1,32.2-0.1,48.7,0.1c3.9,0.4,4.2,0.4,8.4,0.2
						c-0.2,0.1-0.4,0.1-0.2,0.1c0.2-0.3,3,0,3.4-0.3c6.1,0.1,11.7,0,18,0c-1,0-1.5,0.3-0.3,0.3l1.2-0.2l0.2,0.1
						c0.8,0,1.7-0.2,0.9-0.3c15.8-0.3,31.3,0.4,46.7,0.3c3.7,0.1,8.9,0,12.9-0.1C516.4,6,527,6.4,539,6.1
						C539,6.1,537.4,6.9,532.5,7.1z"/>
					<path class="st0" d="M7.6,6.9C8,7.1,9.4,7.2,8.3,7.4C8.2,7.2,7.5,7.1,7.6,6.9z"/>
					<path class="st0" d="M44.3,8.6c0,0,0.5,0.1,0.6,0.1c-0.5,0-0.9,0.2-1.2,0.1C44.2,8.8,44.1,8.7,44.3,8.6z"/>
					<path class="st0" d="M53.7,8.7C53.6,8.9,51.6,9,50.4,9L53.7,8.7z"/>
					<path class="st0" d="M62.4,9.3C63.2,9.4,63,9.5,62,9.5C61.9,9.4,62.2,9.4,62.4,9.3z"/>
					<path class="st0" d="M63.1,9c0.7,0,1.1,0.1,1.4,0.2C64.5,9,62.8,9.2,63.1,9z"/>
					<path class="st0" d="M82,9.4c0.5,0,1.4-0.1,1.9,0C83.4,9.3,81.7,9.6,82,9.4z"/>
					<path class="st0" d="M90.8,9.2c0.3,0,0.4,0,0.7,0c0.5,0.1,0,0.2-0.5,0.2L90.8,9.2z"/>
					<polygon class="st0" points="251.3,8.6 250.4,8.7 250.5,8.5 					"/>
					<path class="st0" d="M321.6,8.6c1-0.1,0.7,0.1,0.8,0.2C321.6,8.8,322.8,8.6,321.6,8.6z"/>
					<polygon class="st0" points="359.6,7.9 359.3,7.9 359.4,7.6 					"/>
				</g>
			</g>
		</g>
	</g>
</g>
</svg>
