<?xml version="1.0" encoding="utf-8"?>
<!-- Generator: Adobe Illustrator 23.1.0, SVG Export Plug-In . SVG Version: 6.00 Build 0)  -->
<svg version="1.1" id="Layer_1" xmlns="http://www.w3.org/2000/svg" xmlns:xlink="http://www.w3.org/1999/xlink" x="0px" y="0px"
	 viewBox="0 0 500 500" style="enable-background:new 0 0 500 500;" xml:space="preserve">
<style type="text/css">
	.st0{fill:#52312C;}
	.st1{fill:#FFFFFF;}
</style>
<g>
	<path class="st0" d="M12.7,497.5c0-1.3-1.2-0.9-2-1c-5.1-0.6-8.3-3.4-8.2-7.7c0-1.8-0.2-3.5,0.8-5.5c1.2-2.4,3.4-3.4,5.5-4.1
		c2.6-0.9,5.7-1,8.6-1.1c8-0.1,16-0.1,23.9,0c1.7,0,2.4-0.4,2.2-1.9c-0.1-1.1,0-2.3,0-3.4c0-72.5,0-144.9,0-217.4
		c0-3.1,0.3-6.1,3-8.6c2.2-2.1,4.8-3.7,7.8-3.7c4.2,0,8.4,0,12.5,0c16.1,0,32.3,0,48.4,0.1c2.1,0,2.7-0.5,2.4-2.2
		c-0.1-1,0-1.9,0-2.9c0-59.6,0-119.1,0-178.7c0-1.8-1-3.9,1.1-5.4c-0.2-3.6,3.3-4.7,6.1-5.9c2.2-0.9,4.7-1.4,7.4-1.3
		c6.4,0.2,12.9,0,19.4,0.1c1.9,0,2.6-0.3,2.6-2.1c-0.1-11.3-0.1-22.5-0.1-33.8c0-3.5,2.3-6.3,6-7.4c1-0.3,2.2-0.1,3.3-0.3
		c0.4-0.1,0.6-0.6,0.9-0.9c59.7,0,119.4,0,179,0c0.5,0.3,0.9,0.8,1.5,0.9c1,0.3,2.1,0.3,3.1,0.6c4.7,1.5,6.5,5,6.7,8.6
		c0.4,9.2,0.1,18.4,0.1,27.5c0,2.2,0.3,4.4,0.4,6.6c2.4,0,4.9,0,7.3,0.2c6.3,0.4,12.6-0.8,18.9,0.9c4.5,1.2,8.6,4.6,8.6,8.4
		c0,2.1,0,4.2,0,6.3c0,37.1,0,74.1,0,111.2c0,2.8,0,2.8,3.3,2.8c21.3,0,42.6,0,63.8,0c3.3,0,6.5-0.1,9.8,0.9
		c2.9,0.9,6.1,2.5,7.4,4.4c1.2,1.9,1.1,3.9,1.1,5.9c0,95.1,0,190.1,0,285.2c0,1.3,0.1,2.6,0,3.9c-0.1,1,0.3,1.5,1.6,1.4
		c0.9-0.1,1.9,0.1,2.8,0c3.6-0.6,6.9,0.6,10.3,1.1c3.4,0.5,5.7,2.6,6.8,5.3c0.5,1.3,0.1,2.9,0.1,4.3c-0.1,4.3-3.1,7.1-8.2,7.7
		c-0.8,0.1-2-0.4-2,1C328.9,497.5,170.8,497.5,12.7,497.5z M368.5,272.3c0-67.3,0-134.7,0-202c0-1.1-0.1-2.3,0-3.4
		c0.2-1.4-0.6-1.6-2-1.5c-1.1,0.1-2.3,0-3.4,0c-72.4,0-144.8,0-217.2,0c-7.1,0-6.7,0.2-6.7,5.9c0,134,0,268.1,0,402.1
		c0,1,0.2,2,0,2.9c-0.4,1.9,0.7,2,2.6,2c17.7-0.1,35.3,0,53,0c2.6,0,2.6,0,2.6-2.4c0-19.8,0-39.6,0-59.4c0-1.1-0.2-2.3,0-3.4
		c0.7-3.3,3.4-5.8,6.6-7.1c2.8-1.2,6.4-1.1,9.7-1.1c26.2-0.1,52.4,0,78.7,0c3.1,0,6.1,0.3,9.3,0.7c2.8,0.4,4.6,1.7,6.3,3
		c1.8,1.4,2.5,3.4,2.5,5.9c-0.2,19.8-0.1,39.6-0.1,59.4c0,4.4,0,4.4,4.9,4.4c16.1,0,32.3,0,48.4,0c4.8,0,4.8,0,4.8-4.4
		C368.5,406.6,368.5,339.4,368.5,272.3z M390.1,336c0,38.2,0,76.4,0,114.5c0,8.4,0,16.8,0,25.1c0,2.4,0,2.5,3.1,2.5
		c18.8,0,37.6,0,56.4,0c4.3,0,4.3,0,4.3-3.9c0-0.2,0-0.3,0-0.5c0-91.5,0-183,0-274.5c0-0.8-0.1-1.6,0-2.4c0.4-1.9-0.7-2-2.6-2
		c-19.6,0-39.1,0-58.7,0c-0.4,0-0.8,0-1.1,0c-1.3-0.1-1.5,0.5-1.5,1.5c0.1,1.1,0,2.3,0,3.4C390.1,245.2,390.1,290.6,390.1,336z
		 M117.6,370.4c0-34.6,0-69.3,0-103.9c0-1.6,0.4-3.8-0.5-4.5c-1-0.8-3.6-0.3-5.4-0.3c-12.7,0-25.5,0-38.2,0c-1.5,0-3,0-4.6,0
		c-3.7,0-3.7,0-3.7,2.9c0,0.6,0,1.3,0,1.9c0,41.6,0,83.1,0,124.7c0,27.4,0,54.8,0,82.2c0,1.6-0.4,3.8,0.5,4.5c1,0.8,3.6,0.3,5.4,0.3
		c12.7,0,25.5,0,38.2,0c1.5,0,3,0,4.6,0c3.7,0,3.7,0,3.7-2.9c0-0.6,0-1.3,0-1.9C117.6,439,117.6,404.7,117.6,370.4z M254.4,21.8
		c-24.3,0-48.6,0-72.9,0c-1.3,0-2.7,0-4,0c-1.1-0.1-1.7,0.1-1.7,1.3c0,7.6,0,15.1,0,22.7c0,1.2,0.8,1.2,1.8,1.2c1.3,0,2.7,0,4,0
		c38.7,0,77.5,0,116.2,0c10.8,0,21.7,0,32.5,0c2.8,0,2.8,0,2.8-2.2c0-6.6,0-13.2,0-19.8c0-3.1,0-3.1-3.5-3.1
		C304.6,21.8,279.5,21.8,254.4,21.8z M253.9,424c-10.8,0-21.6,0-32.5,0c-1.5,0-2.4,0.1-2.3,1.7c0.1,16.9,0.1,33.8,0,50.7
		c0,1.6,0.8,1.7,2.4,1.7c21.6,0,43.3,0,64.9,0c1.5,0,2.4-0.1,2.3-1.7c-0.1-16.9-0.1-33.8,0-50.7c0-1.6-0.8-1.7-2.4-1.7
		C275.5,424,264.7,424,253.9,424z"/>
	<path class="st1" d="M368.5,272.3c0,67.2,0,134.3,0,201.5c0,4.4,0,4.4-4.8,4.4c-16.1,0-32.3,0-48.4,0c-4.9,0-4.9,0-4.9-4.4
		c0-19.8-0.1-39.6,0.1-59.4c0-2.4-0.7-4.5-2.5-5.9c-1.7-1.3-3.5-2.6-6.3-3c-3.1-0.5-6.2-0.7-9.3-0.7c-26.2,0-52.4,0-78.7,0
		c-3.3,0-6.9-0.1-9.7,1.1c-3.2,1.3-5.9,3.8-6.6,7.1c-0.2,1.1,0,2.2,0,3.4c0,19.8,0,39.6,0,59.4c0,2.4,0,2.4-2.6,2.4
		c-17.7,0-35.3,0-53,0c-1.8,0-3-0.1-2.6-2c0.2-0.9,0-1.9,0-2.9c0-134,0-268.1,0-402.1c0-5.6-0.4-5.9,6.7-5.9c72.4,0,144.8,0,217.2,0
		c1.1,0,2.3,0.1,3.4,0c1.4-0.1,2.2,0.2,2,1.5c-0.1,1.1,0,2.3,0,3.4C368.5,137.6,368.5,204.9,368.5,272.3z M268.1,229.5
		c0,6.9-0.3,13.9,0.1,20.8c0.2,4.1,1.5,8.3,6.9,10c2.3,0.7,4.6,1.5,7.3,1.5c15.6-0.1,31.1-0.1,46.7,0c3,0,5.5-1,8.2-1.9
		c2.6-0.8,3.7-2.6,4.5-4.3c1-2.1,1.4-4.5,1.4-6.7c0.1-12.7,0.1-25.4,0-38.2c0-2.3-0.5-4.6-1.4-6.7c-0.6-1.5-2-3.3-3.6-3.9
		c-2.5-1-5.1-2.2-8-2.2c-16.3,0-32.7,0-49,0c-3.2,0-5.9,1.2-8.5,2.5c-2.2,1.1-3.1,3.1-3.8,5.4c-0.5,1.5-0.9,2.9-0.9,4.5
		C268.1,216.6,268.1,223,268.1,229.5z M305,100.1c-8.9,0-17.9,0-26.8,0c-3.4,0-8.2,3.3-8.9,6.1c-0.7,2.7-1.3,5.4-1.2,8.3
		c0.2,10.9,0.1,21.9,0.1,32.9c0,2.8,0,5.5,1,8.3c1.3,3.7,5.5,7.2,10,7.2c17.7,0,35.3,0,53,0c2.5,0,4.4-0.8,6.4-2.1
		c3.6-2.3,4.7-5.6,4.8-9c0.2-13.5,0.1-27.1,0-40.6c0-2,0-4.4-1.2-5.8c-2.5-2.7-5.3-5.6-10.4-5.5C322.8,100.3,313.9,100.1,305,100.1z
		 M305.5,359.2c8.9,0,17.8,0,26.8,0c4.2,0,9.4-3.6,10-6.7c0.3-1.3,0.9-2.6,1.1-4c0.2-1.6,0-3.2,0-4.8c0-11.1,0-22.2,0-33.3
		c0-2.2-0.4-4.3-0.9-6.4c-0.5-2.4-1.9-3.6-3.5-5.1c-1.8-1.6-3.9-2.6-6.7-2.6c-17.7,0-35.3,0-53,0c-2.3,0-4.3,0.5-5.9,1.9
		c-1.3,1.1-3.2,2.1-3.9,3.5c-0.9,1.8-1.3,3.9-1.3,5.8c-0.1,13.5-0.1,27,0,40.6c0,2,0,4.4,1.3,5.8c2.5,2.7,5.3,5.6,10.4,5.4
		C288.4,359.1,296.9,359.2,305.5,359.2z M165.5,229.2c0,7.9,0.3,15.8-0.2,23.7c-0.1,2.5,2,3.5,2.7,5.4c0.4,0.9,2.1,1.7,3.4,2
		c2.2,0.6,4.5,1.2,6.8,1.2c16.1,0.1,32.3,0.2,48.4,0c3.7,0,7.4-1.2,10.1-3.8c2.1-2.1,2.8-4.5,2.8-7.2c0-13.9,0-27.7,0-41.6
		c0-0.6,0.1-1.3,0-1.9c-0.7-3.5-2.9-6.5-6.6-8.1c-2.3-1-5.3-1-8-1c-15.4-0.1-30.8,0-46.2-0.1c-2.8,0-5.3,0.8-7.8,1.6
		c-3.8,1.3-5.6,3.6-5.6,7.1C165.5,214.1,165.5,221.6,165.5,229.2z M165.5,327.6c0,7.7,0,15.4,0,23.2c0,4.5,4.8,8.5,10.2,8.5
		c18,0,36.1,0,54.1,0c0.9,0,2,0.1,2.7-0.3c3.9-2.3,7.2-4.9,7.2-9.4c-0.1-14.5,0-29,0-43.4c0-5.2-4.4-9.7-11.6-9.7
		c-17.3,0-34.5,0-51.8,0c-6.1,0-10.7,3.8-10.7,9C165.5,312.8,165.5,320.2,165.5,327.6z M165.5,131.6c0,7.6,0,15.1,0,22.7
		c0,4.6,4.7,8.7,9.9,8.7c17.6,0,35.3,0,52.9,0c1.1,0,2.2-0.1,3.2-0.4c4.9-1.7,8.1-5.7,8.1-10.1c0-13.8,0-27.7,0-41.5
		c0-2.4-0.6-4.4-2.1-6.5c-2-2.9-4.4-4.3-8.2-4.3c-17.8,0-35.7,0-53.5,0c-5.7,0-10.3,3.9-10.4,8.8
		C165.5,116.5,165.5,124.1,165.5,131.6z"/>
	<path class="st1" d="M390.1,336c0-45.4,0-90.9,0-136.3c0-1.1,0.1-2.3,0-3.4c-0.1-0.9,0.2-1.6,1.5-1.5c0.4,0,0.8,0,1.1,0
		c19.6,0,39.1,0,58.7,0c1.8,0,3,0.1,2.6,2c-0.2,0.8,0,1.6,0,2.4c0,91.5,0,183,0,274.5c0,0.2,0,0.3,0,0.5c0,3.9,0,3.9-4.3,3.9
		c-18.8,0-37.6,0-56.4,0c-3.1,0-3.1,0-3.1-2.5c0-8.4,0-16.8,0-25.1C390.1,412.4,390.1,374.2,390.1,336z"/>
	<path class="st1" d="M117.6,370.4c0,34.3,0,68.6,0,102.9c0,0.6,0,1.3,0,1.9c0,2.9,0,2.9-3.7,2.9c-1.5,0-3,0-4.6,0
		c-12.7,0-25.5,0-38.2,0c-1.9,0-4.4,0.5-5.4-0.3c-1-0.8-0.5-3-0.5-4.5c0-27.4,0-54.8,0-82.2c0-41.6,0-83.1,0-124.7
		c0-0.6,0-1.3,0-1.9c0-2.9,0-2.9,3.7-2.9c1.5,0,3,0,4.6,0c12.7,0,25.5,0,38.2,0c1.9,0,4.4-0.5,5.4,0.3c1,0.8,0.5,3,0.5,4.5
		C117.6,301.1,117.6,335.7,117.6,370.4z"/>
	<path class="st1" d="M254.4,21.8c25.1,0,50.1,0,75.2,0c3.5,0,3.5,0,3.5,3.1c0,6.6,0,13.2,0,19.8c0,2.2,0,2.2-2.8,2.2
		c-10.8,0-21.7,0-32.5,0c-38.7,0-77.5,0-116.2,0c-1.3,0-2.7,0-4,0c-1,0-1.8,0-1.8-1.2c0-7.6,0-15.1,0-22.7c0-1.1,0.6-1.3,1.7-1.3
		c1.3,0.1,2.7,0,4,0C205.8,21.8,230.1,21.8,254.4,21.8z"/>
	<path class="st1" d="M253.9,424c10.8,0,21.6,0,32.5,0c1.5,0,2.4,0.1,2.4,1.7c-0.1,16.9-0.1,33.8,0,50.7c0,1.6-0.8,1.7-2.3,1.7
		c-21.6,0-43.3,0-64.9,0c-1.5,0-2.4-0.1-2.4-1.7c0.1-16.9,0.1-33.8,0-50.7c0-1.6,0.8-1.7,2.3-1.7C232.2,424,243,424,253.9,424z"/>
	<path class="st0" d="M268.1,229.5c0-6.4,0-12.9,0-19.3c0-1.5,0.5-3,0.9-4.5c0.7-2.3,1.6-4.3,3.8-5.4c2.5-1.2,5.3-2.5,8.5-2.5
		c16.3,0,32.7,0,49,0c3,0,5.6,1.2,8,2.2c1.6,0.6,2.9,2.4,3.6,3.9c0.9,2.1,1.4,4.5,1.4,6.7c0.1,12.7,0.1,25.4,0,38.2
		c0,2.3-0.5,4.6-1.4,6.7c-0.8,1.7-1.9,3.5-4.5,4.3c-2.7,0.8-5.2,1.9-8.2,1.9c-15.6,0-31.1-0.1-46.7,0c-2.7,0-5-0.7-7.3-1.5
		c-5.4-1.7-6.6-5.9-6.9-10C267.8,243.3,268.1,236.4,268.1,229.5z M320.6,229.9c0-3.9-0.1-7.7,0-11.6c0-1.5,0-2.3-2.4-2.2
		c-8.1,0.2-16.3,0-24.4,0.1c-3.5,0-4,0.5-4,3.7c0,6.6,0,13.2,0,19.8c0,3.2,0.5,3.6,4.1,3.6c8.1,0,16.3,0,24.4,0
		c1.6,0,2.3-0.2,2.3-1.8C320.5,237.6,320.6,233.8,320.6,229.9z"/>
	<path class="st0" d="M305,100.1c8.9,0,17.9,0.1,26.8-0.1c5.1-0.1,7.8,2.7,10.4,5.5c1.3,1.4,1.2,3.8,1.2,5.8
		c0.1,13.5,0.2,27.1,0,40.6c-0.1,3.4-1.2,6.6-4.8,9c-2,1.3-3.9,2.1-6.4,2.1c-17.7,0-35.3,0-53,0c-4.5,0-8.7-3.5-10-7.2
		c-1-2.8-1-5.5-1-8.3c0-11,0.1-21.9-0.1-32.9c0-2.9,0.5-5.6,1.2-8.3c0.7-2.8,5.5-6.1,8.9-6.1C287.1,100.1,296,100.1,305,100.1z
		 M320.6,131.8c0-3.9,0-7.7,0-11.6c0-1.1,0-1.8-1.7-1.8c-9.1,0.1-18.2,0-27.3,0c-1.1,0-1.8,0.1-1.8,1.2c0,7.9,0,15.8,0,23.6
		c0,1.1,0.6,1.3,1.7,1.3c9.1,0,18.2-0.1,27.3,0c1.7,0,1.8-0.7,1.8-1.7C320.6,139.2,320.6,135.5,320.6,131.8z"/>
	<path class="st0" d="M305.5,359.2c-8.5,0-17.1-0.2-25.6,0.1c-5.1,0.1-7.8-2.7-10.4-5.4c-1.3-1.4-1.3-3.8-1.3-5.8
		c-0.1-13.5-0.1-27,0-40.6c0-2,0.3-4.1,1.3-5.8c0.7-1.4,2.6-2.3,3.9-3.5c1.6-1.4,3.6-1.9,5.9-1.9c17.7,0,35.3,0,53,0
		c2.8,0,4.9,0.9,6.7,2.6c1.6,1.5,3.1,2.7,3.5,5.1c0.4,2.1,0.8,4.2,0.9,6.4c0,11.1,0,22.2,0,33.3c0,1.6,0.1,3.2,0,4.8
		c-0.2,1.3-0.8,2.6-1.1,4c-0.7,3.1-5.8,6.7-10,6.7C323.3,359.3,314.4,359.2,305.5,359.2z M304.9,340.9c4.6,0,9.1,0,13.7,0
		c1.3,0,2.1,0,2-1.5c-0.1-7.7-0.1-15.4,0-23.2c0-1.5-0.8-1.5-2.1-1.5c-8.9,0-17.8,0-26.8,0c-1.3,0-2.1,0-2,1.5
		c0.1,7.7,0.1,15.4,0,23.2c0,1.5,0.8,1.5,2.1,1.5C296.2,340.9,300.5,340.9,304.9,340.9z"/>
	<path class="st0" d="M165.5,229.2c0-7.6,0-15.1,0-22.7c0-3.5,1.8-5.9,5.6-7.1c2.5-0.8,4.9-1.6,7.8-1.6c15.4,0.1,30.8,0,46.2,0.1
		c2.7,0,5.7,0.1,8,1c3.7,1.6,5.8,4.6,6.6,8.1c0.1,0.6,0,1.3,0,1.9c0,13.9,0,27.7,0,41.6c0,2.7-0.7,5.1-2.8,7.2
		c-2.7,2.6-6.3,3.8-10.1,3.8c-16.1,0.2-32.3,0.1-48.4,0c-2.3,0-4.6-0.6-6.8-1.2c-1.3-0.4-3.1-1.1-3.4-2c-0.7-1.9-2.8-2.9-2.7-5.4
		C165.8,245,165.5,237.1,165.5,229.2z M187,229.6c0.1,0,0.1,0,0.2,0c0,4,0.1,8,0,12.1c0,1.3,0.6,1.6,2,1.6c8.5,0,17.1,0,25.6,0
		c2.4,0,3.2-0.8,3.3-2.9c0-7.6,0-15.1,0.1-22.7c0-1.4-0.7-1.5-2-1.5c-4.4,0-8.7,0-13.1,0c-5.1,0-10.2,0.1-15.3,0.1
		C187.4,220.7,187.2,225.2,187,229.6z"/>
	<path class="st0" d="M165.5,327.6c0-7.4,0-14.8,0-22.2c0-5.2,4.6-9,10.7-9c17.3,0,34.5,0,51.8,0c7.2,0,11.6,4.5,11.6,9.7
		c0.1,14.5,0,29,0,43.4c0,4.5-3.2,7.2-7.2,9.4c-0.7,0.4-1.8,0.3-2.7,0.3c-18,0-36.1,0-54.1,0c-5.4,0-10.1-3.9-10.2-8.5
		C165.5,343,165.5,335.3,165.5,327.6z M187.2,327.6c0,3.9,0,7.7,0,11.6c0,1.1,0.1,1.8,1.8,1.7c9.1-0.1,18.2-0.1,27.3,0
		c1.7,0,1.7-0.7,1.7-1.8c0-7.6,0-15.1,0-22.7c0-1.1-0.1-1.8-1.8-1.7c-9.1,0.1-18.2,0.1-27.3,0c-1.7,0-1.7,0.7-1.7,1.8
		C187.2,320.2,187.2,323.9,187.2,327.6z"/>
	<path class="st0" d="M165.5,131.6c0-7.6,0-15.1,0-22.7c0-4.8,4.6-8.8,10.4-8.8c17.8,0,35.7,0,53.5,0c3.8,0,6.2,1.4,8.2,4.3
		c1.5,2.2,2.1,4.1,2.1,6.5c0,13.8,0,27.7,0,41.5c0,4.4-3.2,8.4-8.1,10.1c-1,0.3-2.1,0.4-3.2,0.4c-17.6,0-35.3,0-52.9,0
		c-5.3,0-9.9-4.1-9.9-8.7C165.5,146.7,165.5,139.2,165.5,131.6z M187.2,131.3c0,3.9,0,7.7,0,11.6c0,1.1,0,1.8,1.8,1.7
		c9.1-0.1,18.2-0.1,27.3,0c1.7,0,1.7-0.7,1.7-1.7c0-7.6,0-15.1,0-22.7c0-1.1,0-1.8-1.8-1.7c-9.1,0.1-18.2,0.1-27.3,0
		c-1.7,0-1.8,0.7-1.7,1.7C187.2,123.9,187.2,127.6,187.2,131.3z"/>
	<path class="st1" d="M320.6,229.9c0,3.9-0.1,7.7,0,11.6c0.1,1.6-0.6,1.8-2.3,1.8c-8.1-0.1-16.3,0-24.4,0c-3.6,0-4.1-0.4-4.1-3.6
		c0-6.6,0-13.2,0-19.8c0-3.2,0.5-3.7,4-3.7c8.1,0,16.3,0.1,24.4-0.1c2.4,0,2.4,0.7,2.4,2.2C320.5,222.2,320.6,226,320.6,229.9z"/>
	<path class="st1" d="M320.6,131.8c0,3.7,0,7.4,0,11.1c0,1.1-0.1,1.8-1.8,1.7c-9.1-0.1-18.2,0-27.3,0c-1.1,0-1.7-0.1-1.7-1.3
		c0-7.9,0-15.8,0-23.6c0-1.1,0.7-1.2,1.8-1.2c9.1,0,18.2,0.1,27.3,0c1.7,0,1.7,0.7,1.7,1.8C320.6,124.1,320.6,128,320.6,131.8z"/>
	<path class="st1" d="M304.9,340.9c-4.4,0-8.7,0-13.1,0c-1.2,0-2.1,0-2.1-1.5c0.1-7.7,0.1-15.4,0-23.2c0-1.4,0.8-1.5,2-1.5
		c8.9,0,17.8,0,26.8,0c1.2,0,2.1,0,2.1,1.5c-0.1,7.7-0.1,15.4,0,23.2c0,1.4-0.8,1.5-2,1.5C314,340.9,309.5,340.9,304.9,340.9z"/>
	<path class="st1" d="M187,229.6c0.2-4.4,0.4-8.9,0.6-13.3c5.1,0,10.2-0.1,15.3-0.1c4.4,0,8.7,0,13.1,0c1.3,0,2,0.1,2,1.5
		c-0.1,7.6,0,15.1-0.1,22.7c0,2.1-0.9,2.9-3.3,2.9c-8.5,0-17.1,0-25.6,0c-1.4,0-2-0.2-2-1.6c0.1-4,0-8,0-12.1
		C187.1,229.6,187,229.6,187,229.6z"/>
	<path class="st1" d="M187.2,327.6c0-3.7,0-7.4,0-11.1c0-1.1,0-1.8,1.7-1.8c9.1,0.1,18.2,0.1,27.3,0c1.7,0,1.8,0.7,1.8,1.7
		c0,7.6,0,15.1,0,22.7c0,1.1,0,1.8-1.7,1.8c-9.1-0.1-18.2-0.1-27.3,0c-1.7,0-1.8-0.7-1.8-1.7C187.2,335.3,187.2,331.5,187.2,327.6z"
		/>
	<path class="st1" d="M187.2,131.3c0-3.7,0-7.4,0-11.1c0-1.1,0-1.8,1.7-1.7c9.1,0.1,18.2,0.1,27.3,0c1.7,0,1.8,0.7,1.8,1.7
		c0,7.6,0,15.1,0,22.7c0,1.1,0,1.8-1.7,1.7c-9.1-0.1-18.2-0.1-27.3,0c-1.7,0-1.8-0.7-1.8-1.7C187.2,139.1,187.2,135.2,187.2,131.3z"
		/>
</g>
</svg>
