<?xml version="1.0" encoding="utf-8"?>
<!-- Generator: Adobe Illustrator 23.1.0, SVG Export Plug-In . SVG Version: 6.00 Build 0)  -->
<svg version="1.1" id="Layer_1" xmlns="http://www.w3.org/2000/svg" xmlns:xlink="http://www.w3.org/1999/xlink" x="0px" y="0px"
	 viewBox="0 0 500 500" style="enable-background:new 0 0 500 500;" xml:space="preserve">
<style type="text/css">
	.st0{fill:#52312C;}
	.st1{fill:#FFFFFF;}
</style>
<g>
	<path class="st0" d="M497.5,190.3c-0.3,2-0.9,4-0.9,6c-0.4,16.1-0.7,32.2-1.1,48.3c-0.6,21.3-1.4,42.5-1.7,63.8
		c-0.1,7-2.7,11.1-7.6,14.8c-69.7,52.8-139.3,105.7-209,158.6c-5.9,4.5-11.9,8.9-17.7,13.6c-3.3,2.7-6.5,2.8-9.9,0.3
		c-3.6-2.7-7.4-5.3-11-8c-50-38-99.9-76.1-149.9-114.1c-22-16.8-44.1-33.5-66.3-50c-5.9-4.4-8.3-9.9-8.4-17.9
		c-0.4-32.2-1.2-64.4-1.9-96.6c-0.1-5-0.5-10-0.8-15c-0.4-7.2,2.1-12.3,7.4-16.2c13.9-10.1,27.6-20.4,41.4-30.7
		c2.1-1.6,4.1-3.3,7.1-5.7c-2.5-2.2-4.2-4.1-6.1-5.4c-17-12.2-33.8-24.4-51-36.2C4.8,96,2.4,91.5,2.5,84.4c0.2-23,0-46,0.1-68.9
		c0-9.5,3.1-13.3,11.5-13C29,3,44,4.1,58.9,5c15.4,0.9,30.9,2,46.3,3c23.6,1.4,47.3,2.9,70.9,4.2c15,0.9,29.9,1.6,44.9,2.5
		c10.1,0.6,20.3,1,30.4,2.2c4,0.5,8.2,2.2,11.6,4.6c68.1,47.3,136.2,94.8,204.2,142.3c7,4.9,14.3,9.4,21,14.7
		c3.6,2.8,6.2,7.1,9.3,10.7C497.5,189.5,497.5,189.9,497.5,190.3z M40.8,21.6c2.5,2.1,4.3,3.8,6.2,5.2
		c30.2,22.3,60.5,44.5,90.8,66.8c34.2,25.1,68.4,50.3,102.7,75.3c3,2.1,6.8,3.4,10.3,3.6c16.5,1,33.1,1.7,49.7,2.2
		c33.5,0.9,67,1.5,100.4,2.4c18.5,0.5,37,1.2,55.5,1.8c1.3,0,2.5-0.4,5.3-0.8c-2.4-2-3.5-3-4.7-3.8c-22.7-15.6-45.4-31.1-68.1-46.7
		c-43.7-30-87.4-60-131.2-90c-2.6-1.8-5.5-3.5-8.4-3.8c-12.2-1.1-24.4-1.7-36.6-2.5c-13.8-0.9-27.6-1.7-41.5-2.5
		c-21.4-1.4-42.7-2.7-64.1-4.1c-15.1-1-30.2-2.1-45.3-2.9C55.3,21.3,48.6,21.6,40.8,21.6z M482.1,205.1c-2.4,1.4-3.8,2.2-5.1,3.1
		c-69.9,49.9-139.8,99.8-209.8,149.6c-3.9,2.8-5.6,6-5.6,11.2c0.1,32.2,0,64.5,0.1,96.7c0,2.3,0.5,4.5,1,8c2.9-1.9,5-3.1,7-4.6
		c51.9-39.7,103.7-79.5,155.6-119.3c16.9-12.9,33.8-25.8,50.8-38.6c3.4-2.6,5.1-5.6,5.2-10.5c0.2-16.1,0.6-32.2,0.9-48.3
		c0-2,0.2-4.1,0.2-6.1c0.2-11.8,0.5-23.7,0.6-35.5C483,209.4,482.5,207.8,482.1,205.1z M246.4,473.3c0.4-2.9,0.7-4.5,0.7-6.1
		c0-33.2,0-66.3,0-99.5c0-4.3-1.4-7.3-4.7-9.5c-7.9-5.4-15.6-11.1-23.4-16.7C156.9,297,94.8,252.7,32.6,208.3
		c-1.7-1.2-3.6-1.9-6-3.1c-0.3,2.4-0.6,3.8-0.5,5.2c0.5,29.1,1.1,58.1,1.4,87.2c0.1,6.4,1.8,10.6,6.6,14.2
		c68.9,52.5,137.7,105.2,206.5,157.8C242.1,470.7,243.8,471.6,246.4,473.3z M96.4,233.5c2.3,2,3.8,3.4,5.4,4.5
		c9.4,6.8,18.9,13.4,28.4,20.2c39.9,28.4,79.8,56.7,119.6,85.1c3.4,2.5,6.4,3.3,10.2,0.6c39.3-27.7,78.6-55.2,118-82.8
		c1.4-1,2.6-2.3,3.9-3.5c-2.5-1.5-4.7-1.8-6.9-1.8c-32.4,0-64.8-0.2-97.1,0.1c-7,0.1-11.4-2.7-14.4-10.1
		c-5.4-13.3-11.3-26.3-17-39.3c-1.3-3-3.1-5.8-5-9.3c-2.2,2.2-3.9,3.6-5.3,5.2c-8.6,9.5-16.9,19.3-25.7,28.6
		c-5.2,5.5-7.2,5.2-13.3,0.9c-15.5-11-31.1-21.8-46.5-32.9c-3.4-2.5-6.3-2.7-9.7,0c-13.1,10.1-26.3,20-39.5,30
		C99.8,230.2,98.6,231.5,96.4,233.5z M18.8,26.7c-0.4,4.1-0.8,6.4-0.8,8.7c-0.1,14.1,0.2,28.2-0.1,42.2c-0.1,6.3,1.9,10.2,6.5,13.5
		c57.8,40.2,115.4,80.5,173.1,120.8c1.3,0.9,2.8,1.5,5,2.6c9.2-10.2,18.4-20.4,28.5-31.6C159.8,130.5,89.8,79,18.8,26.7z M256.3,190
		c1.3,3.8,1.8,5.8,2.7,7.7c5.1,11.4,10.3,22.6,15.2,34.1c2,4.7,4.8,6.3,9.2,6.3c40-0.1,79.9,0,119.9-0.2c3,0,6.5-1.1,9.1-2.9
		c16.4-11.5,32.5-23.3,48.7-35.1c1-0.7,1.8-1.8,2.7-2.7c-0.1-0.5-0.2-1-0.3-1.5C394.9,193.7,326.2,191.5,256.3,190z M34.1,187.6
		c1,1.2,1.4,2.1,2,2.5c14.2,10.4,28.5,20.9,42.9,31c1.5,1.1,4.8,0.5,6.5-0.7c13.3-10,26.5-20.3,39.7-30.6c1.5-1.2,2.7-2.8,4.2-4.4
		c-1.3-1.4-2-2.5-2.9-3.1c-13.2-9.9-26.4-19.7-39.6-29.6c-3.2-2.4-5.9-1.6-8.9,0.7c-13.5,10.4-27.1,20.6-40.6,30.9
		C36.3,185.1,35.5,186.2,34.1,187.6z"/>
	<path class="st1" d="M40.8,21.6c7.7,0,14.4-0.3,21,0.1c15.1,0.8,30.2,1.9,45.3,2.9c21.4,1.4,42.7,2.8,64.1,4.1
		c13.8,0.9,27.6,1.7,41.5,2.5c12.2,0.8,24.4,1.4,36.6,2.5c2.9,0.3,5.8,2,8.4,3.8c43.8,29.9,87.4,60,131.2,90
		c22.7,15.6,45.4,31.1,68.1,46.7c1.2,0.8,2.3,1.8,4.7,3.8c-2.7,0.5-4,0.9-5.3,0.8c-18.5-0.6-37-1.3-55.5-1.8
		c-33.5-0.9-67-1.5-100.4-2.4c-16.6-0.5-33.1-1.2-49.7-2.2c-3.5-0.2-7.4-1.5-10.3-3.6c-34.3-24.9-68.5-50.1-102.7-75.3
		C107.6,71.3,77.3,49.1,47,26.8C45.1,25.4,43.3,23.7,40.8,21.6z"/>
	<path class="st1" d="M482.1,205.1c0.4,2.7,0.9,4.3,0.9,5.8c-0.2,11.8-0.4,23.7-0.6,35.5c0,2-0.2,4.1-0.2,6.1
		c-0.3,16.1-0.8,32.2-0.9,48.3c0,4.8-1.7,7.9-5.2,10.5c-17,12.8-33.9,25.6-50.8,38.6c-51.9,39.7-103.7,79.5-155.6,119.3
		c-1.9,1.5-4,2.7-7,4.6c-0.4-3.5-1-5.7-1-8c-0.1-32.2,0-64.5-0.1-96.7c0-5.2,1.7-8.4,5.6-11.2c70-49.8,139.9-99.7,209.8-149.6
		C478.3,207.3,479.7,206.6,482.1,205.1z"/>
	<path class="st1" d="M246.4,473.3c-2.5-1.6-4.3-2.5-5.8-3.7C171.8,416.9,103,364.3,34.1,311.8c-4.7-3.6-6.5-7.8-6.6-14.2
		c-0.3-29.1-0.9-58.1-1.4-87.2c0-1.4,0.3-2.8,0.5-5.2c2.4,1.2,4.4,1.9,6,3.1C94.8,252.7,156.9,297,219,341.4
		c7.8,5.6,15.5,11.3,23.4,16.7c3.3,2.2,4.7,5.2,4.7,9.5c0,33.2,0,66.3,0,99.5C247.1,468.7,246.7,470.3,246.4,473.3z"/>
	<path class="st1" d="M96.4,233.5c2.1-2,3.4-3.3,4.8-4.4c13.2-10,26.4-19.9,39.5-30c3.5-2.7,6.3-2.5,9.7,0
		c15.4,11.1,31,21.9,46.5,32.9c6.1,4.3,8.1,4.6,13.3-0.9c8.8-9.3,17.1-19,25.7-28.6c1.5-1.6,3.1-3,5.3-5.2c1.9,3.5,3.7,6.3,5,9.3
		c5.8,13,11.7,26,17,39.3c3,7.4,7.4,10.2,14.4,10.1c32.4-0.3,64.8-0.1,97.1-0.1c2.2,0,4.3,0.3,6.9,1.8c-1.3,1.2-2.5,2.5-3.9,3.5
		c-39.3,27.6-78.7,55.1-118,82.8c-3.8,2.7-6.8,1.8-10.2-0.6c-39.8-28.4-79.7-56.8-119.6-85.1c-9.5-6.7-18.9-13.4-28.4-20.2
		C100.2,236.9,98.8,235.5,96.4,233.5z"/>
	<path class="st1" d="M18.8,26.7C89.8,79,159.8,130.5,231,182.9c-10.1,11.2-19.3,21.3-28.5,31.6c-2.2-1.1-3.7-1.7-5-2.6
		C139.8,171.6,82.1,131.3,24.3,91.1c-4.7-3.3-6.7-7.2-6.5-13.5c0.3-14.1,0.1-28.2,0.1-42.2C17.9,33,18.4,30.8,18.8,26.7z"/>
	<path class="st1" d="M256.3,190c69.9,1.5,138.5,3.7,207.2,5.8c0.1,0.5,0.2,1,0.3,1.5c-0.9,0.9-1.7,1.9-2.7,2.7
		c-16.2,11.8-32.4,23.6-48.7,35.1c-2.6,1.8-6,2.9-9.1,2.9c-40,0.2-79.9,0.1-119.9,0.2c-4.3,0-7.2-1.6-9.2-6.3
		c-4.9-11.5-10.1-22.7-15.2-34.1C258.2,195.8,257.6,193.8,256.3,190z"/>
	<path class="st1" d="M34.1,187.6c1.4-1.4,2.2-2.4,3.2-3.2C50.9,174,64.5,163.8,78,153.4c3-2.3,5.7-3.1,8.9-0.7
		c13.2,9.9,26.4,19.7,39.6,29.6c0.9,0.7,1.6,1.7,2.9,3.1c-1.5,1.6-2.7,3.2-4.2,4.4c-13.2,10.3-26.3,20.6-39.7,30.6
		c-1.7,1.2-5,1.8-6.5,0.7c-14.4-10.1-28.6-20.6-42.9-31C35.5,189.7,35.1,188.8,34.1,187.6z"/>
</g>
</svg>
