<?xml version="1.0" encoding="utf-8"?>
<!-- Generator: Adobe Illustrator 23.1.0, SVG Export Plug-In . SVG Version: 6.00 Build 0)  -->
<svg version="1.1" id="Layer_1" xmlns="http://www.w3.org/2000/svg" xmlns:xlink="http://www.w3.org/1999/xlink" x="0px" y="0px"
	 viewBox="0 0 554.4 543.6" style="enable-background:new 0 0 554.4 543.6;" xml:space="preserve">
<style type="text/css">
	.st0{fill:#52312C;}
	.st1{fill:#FFFFFF;}
</style>
<g>
	<path class="st0" d="M536.6,169.5c-1,4.3-1.3,9-3.2,13c-3.1,6.7-7.1,13-11,19.3c-1.5,2.3-3.9,4.1-5.9,6.1c-98,98-196,196-293.9,294
		c-1.8,1.8-3.5,3.8-5.2,5.7c0.1,0.4,0.3,0.9,0.4,1.3c2,0,4.1,0,6.1,0c47.6,0,95.3,0,142.9,0c2.5,0,5,0.2,7.4,0.7
		c4.2,0.8,6.8,3.4,7.4,7.7c0.6,4.5-1.4,7.7-5.4,9.7c-0.9,0.4-1.7,1-2.5,1.5c-66.3,0-132.7,0-199,0c-1.3-0.4-2.5-0.9-3.8-1.1
		c-13-1.1-23.2-7.6-32.2-16.5c-32.4-32.4-64.9-64.7-97.1-97.3c-4.5-4.5-8.5-10-11.2-15.7c-2.9-6-3.9-12.9-5.7-19.5c0-1,0-2,0-3
		c1-4.3,1.3-9,3.2-13c3.1-6.7,7.1-13,11-19.3c1.5-2.3,3.9-4.1,5.9-6.1c100-100,200.1-200,300.1-300.2c10.3-10.4,21.4-18.4,36.5-19.5
		c0.8-0.1,1.5-0.6,2.3-0.9c1,0,2,0,3,0c1.1,0.4,2.2,1,3.3,1.1c12.7,1.1,23.1,6.8,32,15.7c32.6,32.7,65.3,65.2,97.8,98
		c4.4,4.4,8.4,9.7,11,15.3c2.9,6.2,4,13.2,5.9,19.9C536.6,167.5,536.6,168.5,536.6,169.5z M516.9,167.9c0.1-9.7-4.3-17.2-10.9-23.8
		c-32.3-32.3-64.5-64.6-96.9-96.8C394,32.1,376.4,32,361.2,47.1c-48,47.9-95.9,95.9-144,143.8c-3.6,3.6-3.5,5.7,0.1,9.2
		c45.2,45,90.3,90.2,135.4,135.3c4.8,4.8,4.8,4.7,9.7-0.2c20.6-20.6,41.2-41.2,61.9-61.8c27.1-27.1,54.2-54.2,81.3-81.3
		C512.4,185.3,517.1,177.8,516.9,167.9z M204.5,480.4c9-0.2,16.5-3.7,22.8-10c37.8-37.8,75.6-75.6,113.5-113.4
		c2.9-2.9,2.4-4.8-0.2-7.3c-5.3-5.1-10.4-10.3-15.6-15.5c-40.3-40.3-80.6-80.6-120.9-120.9c-2.4-2.4-4.3-4.9-8-1.1
		c-37.8,38-75.9,75.8-113.7,113.9c-13.3,13.4-13.4,31.2-0.2,44.6c33.1,33.5,66.6,66.7,100,100.1
		C188.4,476.9,195.8,480.2,204.5,480.4z M53.3,355.3c-2,2.5-3.7,4.3-4.9,6.3c-6.9,11.7-6.1,25.9,3.9,36
		c34,34.6,68.4,68.8,102.8,102.9c6.5,6.4,14.7,9.1,23.8,8.1c7-0.7,13.3-3.2,18.5-9.3c-1.8-0.7-2.8-1.2-3.9-1.4
		c-10.4-2.4-18.9-8-26.3-15.5c-32.2-32.3-64.5-64.6-96.9-96.9c-7.5-7.5-13-16-15.4-26.4C54.7,358.2,54.2,357.3,53.3,355.3z"/>
	<path class="st1" d="M516.9,167.9c0.2,9.9-4.5,17.5-11.2,24.2c-27.1,27.1-54.2,54.2-81.3,81.3c-20.6,20.6-41.2,41.2-61.9,61.8
		c-4.9,4.9-5,4.9-9.7,0.2c-45.1-45.1-90.2-90.3-135.4-135.3c-3.5-3.5-3.7-5.6-0.1-9.2c48.1-47.8,96-95.9,144-143.8
		c15.2-15.1,32.7-15,47.9,0.1c32.3,32.2,64.6,64.6,96.9,96.8C512.6,150.7,517.1,158.2,516.9,167.9z M381.5,79.9
		c-2.5-2.8-4.3-6-7-7.5c-4-2.2-8.1-0.6-11.3,2.6c-23.3,23.3-46.7,46.6-70,70c-4.9,4.9-5,10.8-1,14.6c3.9,3.7,9.5,3.4,14.2-1.3
		c23.4-23.3,46.7-46.6,69.9-70C378.4,86.4,379.5,83.4,381.5,79.9z M270.3,190.3c5.4,0,9.1-3.8,9-9.2c-0.1-4.9-4-9-8.8-9.1
		c-4.7-0.2-9.4,4.4-9.5,9.2C260.9,186.2,265.1,190.3,270.3,190.3z"/>
	<path class="st1" d="M204.5,480.4c-8.7-0.2-16.1-3.5-22.3-9.6c-33.4-33.3-66.8-66.5-100-100.1c-13.2-13.4-13.1-31.2,0.2-44.6
		c37.8-38.1,75.8-75.9,113.7-113.9c3.7-3.8,5.6-1.3,8,1.1c40.3,40.3,80.6,80.6,120.9,120.9c5.2,5.2,10.3,10.5,15.6,15.5
		c2.7,2.6,3.1,4.4,0.2,7.3c-37.9,37.7-75.7,75.6-113.5,113.4C221,476.7,213.5,480.2,204.5,480.4z"/>
	<path class="st1" d="M53.3,355.3c0.8,2,1.4,2.9,1.6,4c2.4,10.4,8,18.9,15.4,26.4c32.3,32.2,64.6,64.5,96.9,96.9
		c7.5,7.5,15.9,13.1,26.3,15.5c1.1,0.3,2.1,0.8,3.9,1.4c-5.2,6.1-11.5,8.5-18.5,9.3c-9.1,0.9-17.4-1.7-23.8-8.1
		c-34.4-34.2-68.8-68.4-102.8-102.9c-10-10.1-10.8-24.4-3.9-36C49.6,359.5,51.3,357.8,53.3,355.3z"/>
	<path class="st0" d="M381.5,79.9c-2.1,3.5-3.1,6.4-5.1,8.4c-23.2,23.4-46.6,46.8-69.9,70c-4.7,4.7-10.3,5-14.2,1.3
		c-4.1-3.9-3.9-9.7,1-14.6c23.3-23.4,46.6-46.7,70-70c3.2-3.2,7.3-4.8,11.3-2.6C377.3,73.9,379,77.1,381.5,79.9z"/>
	<path class="st0" d="M270.3,190.3c-5.2,0-9.4-4.1-9.3-9.1c0.1-4.8,4.8-9.3,9.5-9.2c4.9,0.2,8.7,4.2,8.8,9.1
		C279.4,186.5,275.7,190.3,270.3,190.3z"/>
</g>
</svg>
