<?xml version="1.0" encoding="utf-8"?>
<!-- Generator: Adobe Illustrator 23.1.0, SVG Export Plug-In . SVG Version: 6.00 Build 0)  -->
<svg version="1.1" id="Layer_1" xmlns="http://www.w3.org/2000/svg" xmlns:xlink="http://www.w3.org/1999/xlink" x="0px" y="0px"
	 viewBox="0 0 513.9 518.4" style="enable-background:new 0 0 513.9 518.4;" xml:space="preserve">
<style type="text/css">
	.st0{fill:none;stroke:#82563D;stroke-width:6;stroke-linecap:round;stroke-linejoin:round;stroke-miterlimit:10;}
</style>
<g>
	<path class="st0" d="M311.6,248.8c-1.1-13,8.6-23.3,10.7-35.2c3.6-20.4-0.4-41.4-13.4-57.4c-23.3-28.7-31.7-60.8-35.2-95.4
		c-1.6-15.8-8.8-30.7-19.7-43.3c-8.3-9.6-18.3-8.5-28.7-2.2c-19.4,11.9-27.1,31.5-34.9,49.8c-20.3,47.5-31.6,97-31.6,148.6
		c0.1,38.6-0.9,77.2-2.3,115.7c-0.4,10-7,18.2-15.2,24.8"/>
	<path class="st0" d="M152.3,348c8,4.9,18.2,6.9,14.2,20.9c-1.8,6.2,4.7,16.4,10.4,22.3c27.3,28.3,45.2,62.4,67.9,93.5
		c6.5,8.9,14.1,15.8,22.8,25.2c11.1-16,7.9-31.2,1.4-43.8c-16.8-32.9-43.2-59.4-73-82.4c-8.4-6.5-13.2-17.9-26.1-19.1"/>
	<path class="st0" d="M280.6,292.2c4.6-17.5,18.6-29.7,31.4-40.9c28.7-24.8,36.1-43.6,26.3-77c-5.5-18.9-16-35.3-26.9-51.5
		c-7.9-11.7-8.7-23.3-2-35.2c12.6-22.5,25.9-44.3,46-62.4c15.3-13.8,32.7-19.2,51-13.5c21.2,6.7,33.4,24.4,35,44.9
		c1.3,16.3,2.9,33-3.2,49.8c-4.8,13,2,27.2,8.6,38.9c27.2,47.8,23.4,65.3-24.7,97.2c-20.7,13.7-43.5,24.7-61.9,41.4"/>
	<path class="st0" d="M373.5,277.7c17.5,4.4,35.4,1.5,53.1,2c40.4,1.1,72.9,13.4,80.8,60.2c3.1,18.4-7.3,37.2-20.5,53.9
		c-23.3,29.5-48.1,56.3-84.5,72.1c-9.4,4.1-18.7,6-28.8,4"/>
	<path class="st0" d="M276.2,294.2c-8.4-1.9-12.7,3.5-17.8,8.2c-11.8,11-24,21.8-36.4,33c-16.6-28.1-2.3-50.6,7.4-74.4
		c13.2-32.4,25-65.6,13.6-101.2c-4.9-15.2-14-17.8-24.1-6c-11.1,13-11.6,29.8-16.5,45.1c-13.1,40.3-12.3,81.1-12.2,122.2
		c0,3.4,2.8,6.9,4.2,10.3"/>
	<path class="st0" d="M32.8,240.5c-1-5.4-4.7-9-8.9-12.4c-4.3-3.5-9.2-3.6-13.2,0.1c-4,3.7-3.6,8.2-0.1,12.3
		C22.1,254,37.6,263.3,53,271c33.2,16.6,61.5,38.4,88.2,62.5"/>
	<path class="st0" d="M94.8,207.4c-1.6-6.6-8.3-7.4-13.4-10.6c-21.8,10.6-4.8,21,0.1,31.3c2.7,5.6,8,8.8,13.1,12.6
		c27,19.9,43.5,46.7,55.4,76.3"/>
	<path class="st0" d="M393.4,420.3c17.8,4.8,21.6-10.3,28.4-18.9c11.8-14.9,9.1-55.7-1.7-70.1c-8.5-11.4-18.1-17.9-33.3-12.3"/>
	<path class="st0" d="M209.8,310.8c-2.2,3.4-4.6,6.8-6.6,10.3c-15.9,28.7-14,36.9,17.9,53.4c20.2,10.5,42,18.6,66.2,8.7
		c13.2-5.4,21.2-12.5,16.1-27c-6.9-4-14.1-2.3-20.6-1.8c-28.2,2.3-41.3,19.5-30.6,43c11.4,25.2,28,47.1,59.3,53.9"/>
	<path class="st0" d="M309.4,259.1c52.9,11.8,94.9,76,88.5,121.9c-3.3,23.4-7.2,46.6-17.8,68.2c-13.1,26.9-32.1,32-56.6,9.5
		c-14.8-13.6-32.1-27.4-40.5-49.5c34.7,6.1,67.8,20.9,103.8,17.3"/>
	<path class="st0" d="M291.7,267.4c-20.2-11.2-33.3,3.7-46,13c-10.4,7.6-16.7,20.1-24.8,30.4"/>
	<path class="st0" d="M377.9,314.9c-23.3,0.9-46,4.5-68.6,10.1c-40.4,10.1-44.6,1.8-30.9-30.8"/>
	<path class="st0" d="M349.2,283.9c-17.4,9.3-36.7,14.2-55.3,20.7"/>
</g>
</svg>
