<?xml version="1.0" encoding="utf-8"?>
<!-- Generator: Adobe Illustrator 23.1.0, SVG Export Plug-In . SVG Version: 6.00 Build 0)  -->
<svg version="1.1" id="Layer_1" xmlns="http://www.w3.org/2000/svg" xmlns:xlink="http://www.w3.org/1999/xlink" x="0px" y="0px"
	 viewBox="0 0 500 500" style="enable-background:new 0 0 500 500;" xml:space="preserve">
<style type="text/css">
	.st0{fill:#FFFFFF;}
	.st1{fill:#52312C;}
</style>
<g>
	<path class="st0" d="M491.8,387l-95.4,102.2c-1.6,1.7-4.2,1.7-5.8,0L362,458.6c-1.6-1.7-1.6-4.5,0-6.2l95.4-102.2
		c1.6-1.7,4.2-1.7,5.8,0l28.6,30.6C493.3,382.5,493.3,385.3,491.8,387z"/>
	<path class="st1" d="M2.5,257.8c1.9-2.2,3.7-4.4,5.6-6.5C85.2,168.7,162.2,86.1,238.9,4c1.6-0.6,2.7-1.1,3.9-1.5
		c1.1,0.4,2.2,0.9,3.9,1.5c51.3,54.9,103,110.3,154.7,165.7c0.9,1,1.9,1.9,2.7,3c2.1,2.8,2.1,5.9-0.2,8.4c-2.8,2.9-5.1,6.6-8.8,8.5
		c-0.4,0.2-0.7,0.7-1,1.1c-7.5,7.7-15,15.4-22.6,23.1c-1,1-2.3,1.7-3.3,2.6c-0.9,0.9-1.7,1.9-2.6,2.9c6.1,4.8,11.8,9.4,17.6,13.9
		c3.5,2.7,7,5.4,10.5,7.9c4.8,3.5,9.8,6.7,13.4,11.6c4.3,5.7,7.9,11.8,9.3,19.2c0.7,3.8,1.8,7.5,2.9,11.1c1,3,1.6,6.2,2.7,9.2
		c1,2.8,1.3,6,2,9c0.8,3.2,2,6.4,2.9,9.6c1.4,4.9,2.6,9.9,3.9,14.9c0.7,2.5,1,5.2,2.1,7.4c1.8,3.4,3.1,7.1,6,9.8
		c3.4,3.1,6.4,6.8,9.4,10c2.5-1.3,4.8-2.8,7.3-3.7c2-0.7,4.2-1.1,6.4-1c5.8,0.2,11.1,2.2,15.3,6.7c6.8,7.2,13.5,14.4,20.3,21.7
		c0,2.3,0,4.7,0,7.4c-1,1-2.2,2.1-3.7,3.5c-1.8,0-4,0-6.2,0c-7.1-7.6-14.2-15.2-21.3-22.8c-0.7,0-1.5,0.3-1.9,0
		c-3-2.3-5.2-0.5-7.4,1.5c-0.6,0.5-1.1,1.2-1.7,1.8c-26.3,28.1-52.5,56.3-78.8,84.4c-0.6,0.6-1.2,1.2-1.7,1.8
		c-1.9,2.4-3.4,4.8-1.3,7.9c0.2,0.3,0,1,0,1.4c7.1,7.7,14.2,15.2,21.2,22.7c0,2.6,0,5,0,7.7c-1,0.9-2.2,2.1-3.9,3.6
		c-1.5,0-3.7,0-6.3,0c-7-7.5-14.3-15-21.3-22.9c-2.4-2.7-3.7-6.1-4.5-9.9c-0.5-2.5-1.3-5.1-0.7-7.3c0.9-3,0.9-6.4,2.8-9.1
		c0.6-0.9,1.1-2,1.7-3.2c-4.2-4.5-8.6-9.2-13-13.9c-8.9-9.5-17.9-19-26.7-28.7c-3.4-3.7-6.7-7.6-9.2-12c-2.4-4.4-4.5-9-6.3-13.8
		c-1.9-5.2-2.6-10.9-5.2-16c-9.6,2.7-19,1.3-27.6-3.7c-8.6-5-15-12.6-18.8-21.9c-29.8,32-59.6,63.9-88.8,95.2c-3.1,0-5,0-7.2,0
		c-1.2-1.3-2.7-2.9-4.2-4.5c-24.3-26.1-48.3-52.5-73.1-78c-12.9-13.2-25.4-26.8-38.1-40.2C31.8,294,19.3,280.5,6.7,267
		c-1.1-1.2-2.4-2.3-3-2.9c-0.5-1.7,0.3-3.1-1.2-3.2C2.5,259.9,2.5,258.8,2.5,257.8z M28.3,251.6c3,0,5.2,0.1,7.5,0
		c2.1-0.2,4.2-0.8,6.4-1c8.7-0.6,17.5,0.3,26.3-0.9c9.8-1.3,19.7,0.2,29.6-1.1c8.8-1.2,17.8,0.2,26.7-1c9.6-1.3,19.4,0.3,29.1-1.1
		c9-1.2,18.1,0.6,27.2-1c4.6-0.8,9.3-0.1,14-0.2c4.7,0,9.4-0.1,14.2-0.9c4.6-0.8,9.3-0.2,14-0.2c1.6,0,3.2,0,4.8,0
		c0.6-9.3-0.2-18.3,0.9-27.3c1.2-9.6-0.2-19.4,0.9-29.2c1.2-10.3-0.2-20.8,1-31.2c1.1-9.5-0.6-19.1,0.9-28.6
		c0.9-5.6,0.4-11.4,0.1-17.1c-0.4-5.8,1.2-11.5,1-17.2c-0.5-17.2,1.7-34.3,1-51.5c0-0.7-0.1-1.4,0.2-2c1.5-3.2,0.6-6.4,0.6-9.9
		C165.9,104.1,97.3,177.6,28.3,251.6z M370.7,327.5c-2.8,0.7-5.7-1.4-8.6-4.5c-10.7-11.7-21.6-23.3-32.5-34.9
		c-2.2-2.4-3.7-5.3-5.6-7.9c-4.3-6.1-7.1-13.1-10.6-19.7c-4.4-8.2-8.4-16.7-12.6-25c-2.9-5.6-5.8-11.2-8.7-16.9
		c-2.4-4.7-3.2-5.6-6.9-7.1c-0.7-0.3-1.5-0.2-2.2-0.5c-0.9-0.3-1.7-0.7-2.7-1.1c-0.4,0.3-0.9,1.1-1.3,1c-3.6-0.3-5.6,2-7.2,4.8
		c-2.1,3.7-2.9,7.9-1.3,11.8c1.9,4.7,3.3,9.6,6,13.9c1.1,1.8,2.1,3.9,2.7,6c2.3,7.3,6.1,13.9,9,20.9c2.3,5.6,5,10.9,7.4,16.5
		c2.5,5.8,3.8,12.1,5.6,18.2c0.1,0.3,0.6,0.6,0.6,0.8c-0.4,1.9,0.5,3.6,1,5.3c0.5,1.7,1.3,3.2,1.8,4.9c0.6,1.8,0.5,4.1,1.5,5.5
		c1.1,1.6-0.4,4,1.5,5.1c1,3.7,1.6,7.6,3,11.1c1.3,3.6,1.3,7.7,3.8,10.8c0.8,6.4,3.2,12.4,4.8,18.6c2.5,9.6,6.7,18.2,13.1,25.3
		c12.7,14,25.7,27.7,38.7,41.5c0.7,0.7,1.8,1,2.6,1.5c20.7-22.2,41.2-44.1,61.6-66c0.6-0.6,1.3-1.1,1.7-1.9c0.4-0.7,0.5-1.5,0.7-2.4
		c-3.2-3.5-6.4-6.9-9.6-10.3c-4.8-5.2-8-11.4-10-18.4c-1.4-4.8-2.6-9.6-3.9-14.4c-0.9-3.2-2.4-6.3-2.7-9.6c-0.3-3.2-1.7-5.9-2.3-8.9
		c-0.6-3-1.5-6.2-2.6-9.2c-1.4-4.1-1.8-8.5-3.1-12.6c-1.4-4.4-2.2-9-4.7-12.9c-1.9-2.9-3.6-6.1-6.3-8c-5.2-3.5-10.1-7.4-15-11.2
		c-7.1-5.5-14.3-10.8-21.3-16.4c-0.6-0.5-1.4-0.5-2.1-0.7c-8.8,8.9-17.5,17.7-26,26.3c1.4,2.7,2.6,5.2,3.9,7.5
		c3.2,5.9,6.7,11.5,11.3,16.3c9.9,10.4,19.7,21,29.4,31.5c1.4,1.5,2.6,3.3,3.8,4.7C376.7,321.6,376.7,325.6,370.7,327.5z M244.7,182
		c0,2.4,0.1,4.3,0,6.1c-0.2,1.8-0.8,3.5-0.9,5.3c-0.1,3.6,0,7.3,0,10.9c0,3.6-0.3,7.3,0.1,10.9c0.4,3.6-1,6.9-1.1,10.5
		c-0.2,9.9,1,19.8-0.9,28.9c-1.4,1.7-2.5,3-3.2,3.9c-2.2,0.5-4,1.3-5.8,1.3c-5.8,0.2-11.6,0.2-17.4,0c-5.9-0.2-11.6,1.5-17.5,1.2
		c-7.9-0.4-15.9-0.6-23.7,1.4c-0.7,12.5,0.4,25.2-1,37.8c-1.2,11.2,0.2,22.5-0.9,33.8c-1.2,12,0.2,24.2-1,36.4
		c-0.9,9.4-0.2,19-0.2,28.5c0,1,0.2,2,0.2,2.4c36-38.5,72-77.2,108.1-115.8c-0.8-2-1.7-4.4-2.7-6.7c-2.2-5.1-4.5-10.1-6.7-15.2
		c-3.7-8.4-7.2-16.9-11-25.2c-3.5-7.8-4.4-14.8-2.8-22.4c1.2-5.9,4.4-10.4,7.9-14.6c1.8-2.2,4.7-3.7,7.3-4.8c2.8-1.2,5.9-1.9,8.8-2
		c2.5-0.1,5.3,0.5,7.7,1.2c5.7,1.6,11.9,6.8,15.1,11.9c1.2,1.8,1.5,4.3,2.9,6c2.2,2.8,3.3,6.1,4.7,9.3c1.4,3.2,3.4,6.1,4.9,9.2
		c1.6,3.5,3,7.3,5.9,10.1c3.9-3.7,7.4-7.6,11.3-11.1c7.3-6.7,14-14.1,20.9-21.1c2.9-2.9,5.9-5.6,8.8-8.5c2.9-3,5.7-6.1,8.6-9.2
		c0.2-0.2,0.4-0.6,0.7-0.7c3.3-1.6,5-4.9,7.7-7.1c-0.3-0.3-0.4-0.6-0.5-0.6c-12.8-0.4-25.6,0.5-38.4-0.9c-8.3-0.9-16.8,0-25.2-0.2
		c-8.3-0.2-16.6,1-24.8-1C275.4,182,260.3,182,244.7,182z M27.4,268c0.6,0.5,1.3,0.9,1.9,1.4c11.5,12.3,23,24.8,34.6,37
		c11.6,12.1,22.9,24.6,34.7,36.5c18,18.1,35.1,37.3,52.5,56c1.3,1.4,2.6,2.8,3.6,3.9c2.3-1.6,1.7-3.9,1.8-6
		c0.5-11.4-0.4-22.9,0.8-34.4c1.2-12.2-0.2-24.6,1-36.9c1.2-11.5-0.3-23.2,0.9-34.9c1-9.4,0.2-18.9,0.2-28.4
		c-3.5-0.8-6.7,0.4-9.9,0.6c-9.7,0.7-19.4-0.3-29.2,1c-9,1.2-18.1-0.5-27.2,1c-5.5,0.9-11.3,0-16.9,0.2c-5.5,0.2-11,1.1-16.5,0.9
		c-10.6-0.4-21,1.1-31.6,1.2C28,267.2,27.9,267.4,27.4,268z M249.5,29.1c0,3.3,0.1,5.9,0,8.5c-0.2,2.5-0.8,4.9-0.9,7.4
		c-0.5,9.4,0.8,18.8-0.9,28.1c-0.7,3.7-0.1,7.6-0.1,11.4c0,3.6,0.1,7.3,0,10.9c-0.2,3.7-1,7.3-0.9,11c0.5,17.5-1.7,35-1.1,52.5
		c0,0.9-0.5,1.8-0.7,2.8c-0.5,1.9-0.4,3.7,1.4,4.9c8.7,0,17.4-0.2,26.1,0c8.7,0.2,17.5-0.3,26.3,0.8c8.4,1,17.1,0.1,25.6,0.3
		c8.6,0.2,17.1-0.3,25.8,0.8c8.4,1,17.1,0.2,25.6,0.2c1.2,0,2.5,0,4,0C336.2,121.9,293,75.7,249.5,29.1z M285.5,302.6
		c-6.1,6.5-11.7,12.6-17.6,18.8c-0.9,13.2,14.9,27.9,30.3,24.1C294.1,331.1,290.2,316.7,285.5,302.6z"/>
	<path class="st0" d="M28.3,251.6c69-74,137.6-147.5,206.5-221.3c0,3.5,0.9,6.7-0.6,9.9c-0.3,0.6-0.2,1.3-0.2,2
		c0.7,17.2-1.5,34.3-1,51.5c0.2,5.8-1.4,11.4-1,17.2c0.3,5.7,0.8,11.5-0.1,17.1c-1.5,9.6,0.2,19.2-0.9,28.6
		c-1.2,10.4,0.2,20.9-1,31.2c-1.1,9.8,0.2,19.5-0.9,29.2c-1.1,9-0.4,18-0.9,27.3c-1.6,0-3.2,0-4.8,0c-4.7,0-9.5-0.6-14,0.2
		c-4.7,0.8-9.4,0.8-14.2,0.9c-4.7,0-9.5-0.7-14,0.2c-9.1,1.7-18.2-0.2-27.2,1c-9.7,1.3-19.5-0.2-29.1,1.1c-9,1.2-17.9-0.2-26.7,1
		c-9.9,1.3-19.9-0.2-29.6,1.1c-8.8,1.2-17.5,0.3-26.3,0.9c-2.1,0.1-4.2,0.8-6.4,1C33.5,251.7,31.3,251.6,28.3,251.6z"/>
	<path class="st0" d="M370.7,327.5c6-1.9,5.9-5.9,5.6-10.5c-1.1-1.4-2.3-3.1-3.8-4.7c-9.8-10.5-19.6-21.1-29.4-31.5
		c-4.6-4.8-8.1-10.4-11.3-16.3c-1.3-2.4-2.5-4.8-3.9-7.5c8.5-8.6,17.2-17.4,26-26.3c0.7,0.2,1.5,0.3,2.1,0.7
		c7,5.5,14.2,10.9,21.3,16.4c4.9,3.8,9.8,7.7,15,11.2c2.8,1.9,4.5,5.1,6.3,8c2.6,3.9,3.3,8.6,4.7,12.9c1.3,4.1,1.7,8.6,3.1,12.6
		c1.1,3,2,6.1,2.6,9.2c0.6,3,1.9,5.8,2.3,8.9c0.3,3.3,1.9,6.4,2.7,9.6c1.3,4.8,2.5,9.6,3.9,14.4c2,7,5.1,13.2,10,18.4
		c3.2,3.4,6.4,6.8,9.6,10.3c-0.2,0.9-0.3,1.7-0.7,2.4c-0.4,0.7-1.1,1.2-1.7,1.9c-20.4,21.9-40.8,43.8-61.6,66
		c-0.8-0.5-1.9-0.8-2.6-1.5c-12.9-13.8-26-27.5-38.7-41.5c-6.4-7.1-10.7-15.7-13.1-25.3c-1.6-6.2-4-12.2-4.8-18.6
		c-2.5-3.1-2.4-7.2-3.8-10.8c-1.3-3.6-2-7.4-3-11.1c-2-1.1-0.4-3.4-1.5-5.1c-1-1.4-1-3.7-1.5-5.5c-0.5-1.7-1.3-3.2-1.8-4.9
		c-0.5-1.7-1.5-3.3-1-5.3c0-0.2-0.5-0.5-0.6-0.8c-1.8-6.1-3.2-12.5-5.6-18.2c-2.3-5.5-5.1-10.9-7.4-16.5c-2.9-7-6.6-13.6-9-20.9
		c-0.7-2.1-1.6-4.2-2.7-6c-2.7-4.3-4.1-9.3-6-13.9c-1.6-4-0.8-8.2,1.3-11.8c1.6-2.8,3.7-5.2,7.2-4.8c0.4,0,0.9-0.7,1.3-1
		c1.1,0.4,1.9,0.8,2.7,1.1c0.7,0.2,1.5,0.2,2.2,0.5c3.7,1.6,4.5,2.4,6.9,7.1c2.9,5.6,5.8,11.2,8.7,16.9c4.2,8.3,8.3,16.8,12.6,25
		c3.5,6.6,6.2,13.6,10.6,19.7c1.9,2.6,3.4,5.5,5.6,7.9c10.9,11.6,21.8,23.2,32.5,34.9C365,326.1,367.9,328.2,370.7,327.5z"/>
	<path class="st0" d="M244.7,182c15.6,0,30.7,0,45.9,0c8.2,2,16.5,0.8,24.8,1c8.4,0.2,16.9-0.7,25.2,0.2c12.8,1.4,25.6,0.4,38.4,0.9
		c0.1,0,0.2,0.2,0.5,0.6c-2.7,2.3-4.4,5.6-7.7,7.1c-0.3,0.1-0.5,0.5-0.7,0.7c-2.9,3.1-5.6,6.2-8.6,9.2c-2.9,2.9-5.9,5.6-8.8,8.5
		c-7,7-13.7,14.5-20.9,21.1c-3.8,3.5-7.4,7.4-11.3,11.1c-2.9-2.8-4.2-6.6-5.9-10.1c-1.5-3.2-3.5-6-4.9-9.2c-1.4-3.2-2.5-6.5-4.7-9.3
		c-1.3-1.7-1.7-4.1-2.9-6c-3.2-5.2-9.4-10.3-15.1-11.9c-2.5-0.7-5.2-1.3-7.7-1.2c-3,0.1-6.1,0.9-8.8,2c-2.6,1.1-5.4,2.6-7.3,4.8
		c-3.5,4.2-6.7,8.7-7.9,14.6c-1.6,7.6-0.7,14.5,2.8,22.4c3.8,8.4,7.3,16.8,11,25.2c2.2,5.1,4.5,10.1,6.7,15.2c1,2.3,1.9,4.7,2.7,6.7
		c-36.1,38.7-72.1,77.3-108.1,115.8c0-0.4-0.2-1.4-0.2-2.4c0-9.5-0.7-19.1,0.2-28.5c1.2-12.2-0.3-24.4,1-36.4
		c1.2-11.3-0.3-22.6,0.9-33.8c1.3-12.6,0.3-25.3,1-37.8c7.9-2,15.8-1.7,23.7-1.4c5.9,0.3,11.6-1.4,17.5-1.2c5.8,0.2,11.6,0.1,17.4,0
		c1.8,0,3.6-0.8,5.8-1.3c0.7-0.9,1.8-2.2,3.2-3.9c1.9-9.1,0.7-19.1,0.9-28.9c0.1-3.5,1.5-6.8,1.1-10.5c-0.4-3.6-0.1-7.3-0.1-10.9
		c0-3.6-0.1-7.3,0-10.9c0.1-1.8,0.7-3.5,0.9-5.3C244.8,186.3,244.7,184.4,244.7,182z"/>
	<path class="st0" d="M27.4,268c0.5-0.5,0.6-0.8,0.7-0.8c10.5-0.1,21-1.5,31.6-1.2c5.5,0.2,11-0.7,16.5-0.9
		c5.6-0.2,11.4,0.7,16.9-0.2c9.1-1.5,18.2,0.2,27.2-1c9.7-1.3,19.5-0.3,29.2-1c3.2-0.2,6.4-1.4,9.9-0.6c0,9.4,0.8,19-0.2,28.4
		c-1.2,11.7,0.3,23.3-0.9,34.9c-1.3,12.3,0.2,24.7-1,36.9c-1.2,11.5-0.3,22.9-0.8,34.4c-0.1,2.1,0.5,4.4-1.8,6c-1-1-2.3-2.5-3.6-3.9
		c-17.5-18.7-34.6-37.8-52.5-56c-11.8-11.9-23.1-24.4-34.7-36.5c-11.7-12.2-23.1-24.7-34.6-37C28.7,268.8,28,268.4,27.4,268z"/>
	<path class="st0" d="M249.5,29.1c43.5,46.6,86.6,92.8,130.1,139.4c-1.5,0-2.8,0-4,0c-8.6,0-17.2,0.8-25.6-0.2
		c-8.6-1-17.2-0.6-25.8-0.8c-8.5-0.2-17.2,0.8-25.6-0.3c-8.8-1.1-17.5-0.5-26.3-0.8c-8.7-0.2-17.4,0-26.1,0c-1.8-1.2-1.8-3-1.4-4.9
		c0.2-0.9,0.8-1.9,0.7-2.8c-0.7-17.5,1.5-35,1.1-52.5c-0.1-3.6,0.7-7.3,0.9-11c0.2-3.6,0-7.3,0-10.9c0-3.8-0.6-7.7,0.1-11.4
		c1.7-9.4,0.3-18.8,0.9-28.1c0.1-2.5,0.8-4.9,0.9-7.4C249.7,35,249.5,32.4,249.5,29.1z"/>
	<path class="st0" d="M285.5,302.6c4.6,14.1,8.6,28.6,12.7,42.9c-15.4,3.9-31.2-10.9-30.3-24.1C273.8,315.1,279.5,309,285.5,302.6z"
		/>
</g>
</svg>
