<?xml version="1.0" encoding="utf-8"?>
<!-- Generator: Adobe Illustrator 23.1.0, SVG Export Plug-In . SVG Version: 6.00 Build 0)  -->
<svg version="1.1" id="Layer_1" xmlns="http://www.w3.org/2000/svg" xmlns:xlink="http://www.w3.org/1999/xlink" x="0px" y="0px"
	 viewBox="0 0 500 500" style="enable-background:new 0 0 500 500;" xml:space="preserve">
<style type="text/css">
	.st0{fill:#52312C;}
	.st1{fill:#FFFFFF;}
</style>
<g>
	<path class="st0" d="M250,246c-12.5-15.6-24.4-30.4-36.3-45.3c-11.5,0-22.8,0-34.1,0c-19.1,0-38.1,0-57.2,0
		c-3.7,0-7.2-1.2-10.9-1.3c-2.4-0.1-4.8-2.4-7.2-3.6c-5.3-2.7-7-8.2-9.8-12.9c-0.2-0.3-0.2-0.6-0.3-0.9c-0.4-4.2-1-8.3-1-12.5
		c-0.1-45.5-0.1-91,0-136.5c0-4,0.7-7.9,1.2-12.5c1.3-2.1,3.1-4.6,4.3-7.4c1.3-3.2,4.1-4.7,6.7-6.1c3.2-1.8,6.4-4,10.5-3.2
		c8.5-2.2,17.2-0.9,25.8-1c77.6-0.1,155.3,0,232.9-0.2c4.8,0,9.2,2,12.7,1.2c9.5,3,15.1,8.6,18.2,18.6c2,14.9,0.7,31.6,0.9,48.3
		c0.2,17,0,34,0,51c0,16.8,0.1,33.7-0.1,50.5c0,3.5-0.8,6.9-1.4,11.3c-1.7,2.7-3.4,6.8-6.3,9.7c-2.7,2.8-6.7,4.3-9.8,6.3
		c-17.3,2.3-34.4,1-51.4,1.2c-17,0.2-34,0-51.4,0C274.5,215.4,262.5,230.4,250,246z M115,184.2c34.8,0,70.2,0,105.4,0
		c3.3,4.2,6.4,8.5,9.7,12.6c3.2,4,6.4,8,9.9,11.9c3.4,3.9,5.7,8.9,10.5,12.1c9.8-12.2,19.4-24.2,29.3-36.5c1.2,0,2.9,0,4.6,0
		c32.5,0,65,0,97.4,0.1c4,0,7.1-0.9,8.4-5.2c0-50.4,0-100.9,0-151.4c0-3.8-0.5-7-5.8-8.4c0.9,0.1,0.5,0,0.2,0c-89,0-178,0-267,0
		c-3.7,0-6.4,1.1-7.8,5.4c0,50.1,0,100.9,0,151.8C109.7,180.2,111,182.7,115,184.2z"/>
	<path class="st0" d="M69.2,288.1c4.5,2.3,8.7,4.2,12.8,6.4c3.8,2.1,7.7,4.1,11.1,6.7c1.9,1.4,3,3.8,4.3,5.9c1.1,1.8,2,3.6,2.8,5.1
		c2.3,13.4,1.2,26.5,1.4,39.6c0.1,13.1,0,26.1,0,39.2c0,1.7,0,3.4,0,5.6c-5.7,2.4-11.5,4.9-17.4,7.4c0.1,5.6-1.9,11-1.1,16.6
		c-1.6,3.5-0.4,7.4-1.2,10.9c-0.9,4-0.2,8.1-1.1,11.9c-0.8,3.7-0.2,7.4-1,10.9c-0.9,3.8-0.3,7.7-1.1,11.4c-0.8,3.9-0.2,7.8-1,11.4
		c-0.9,3.9-0.2,7.7-1,11.4c-0.6,2.9-0.7,5.8-0.9,8.9c-15.9,0-31.4,0-47.5,0c0.7-5.4-1-10.6-1.2-16c-0.2-4.1-0.1-8.4-1-12.4
		c-0.8-3.4-0.7-6.6-0.8-9.9c-0.1-2.7-1.5-5-1.2-7.8c0.3-2.4,0.8-5.1-0.9-7.3c-0.1-0.1,0-0.3,0-0.5c0.8-5.6-1.1-11-1.1-16.6
		c0-4.8-1.6-9.6-1-14.5c-1.6-2.6-0.8-5.5-1.1-8.4c-5.8-2.5-11.7-5-17.4-7.4c0-25.2-0.1-49.9,0.1-74.6c0-3.3,0.3-6.9,1.6-10.1
		c1.2-2.9,2.8-5.7,4.5-8.5c1.5-2.4,4.4-3.3,6.6-4.9c5.3-3.7,11.3-6,16.8-9.2c0.9-0.5,1.8-1.2,2.7-1.9c-4.9-3.5-8.7-7.4-11.6-12
		c-1.6-2.5-2.9-5.6-3-8.5c-0.2-3.4-1.1-6.6-1.2-9.9c-0.1-5.5,1.3-10.8,2.2-16.1c0.4-2.4,1.9-4.7,3.2-6.9c3-4.6,5.3-6.7,9.8-9.7
		c3.4-2.3,7.1-3.7,10.9-4.8c1.9-0.6,4-0.2,6.1-0.3c4.5-0.4,9,0.2,13,2.2c4.7,2.4,9.7,4.5,12.7,9.5c1.3,2.2,3.1,4,4.3,6.5
		c1.6,3.5,2.9,6.9,2.8,10.7c0,2.7,1.6,5,1.1,7.8c-0.5,2.7-0.9,5.5-1,8.3c-0.1,2.7-1.4,5-2,7.4c-0.8,3.6-2.9,6.2-5.1,8.7
		C74.7,282.9,72.1,285.2,69.2,288.1z M61,481c0.5-2.5,1.1-4.6,1.3-6.7c0.2-2.4,0-4.8,0-7.2c0-0.2-0.1-0.4,0-0.5
		c1.7-2.2,1.2-4.9,0.9-7.3c-0.3-2.8,1.1-5.2,1.2-7.8c0.1-3.3-0.4-6.6,0.9-9.9c0.7-2,0-4.4,0.2-6.6c0.2-2.3,0.7-4.5,1-6.8
		c0.3-3-0.3-5.9,0.9-8.9c0.8-1.9,0-4.4,0.2-6.6c0.2-2.1,0.8-4.2,1-6.3c0.2-2.2-0.2-4.5,0.1-6.7c0.2-2.1,0.9-4.1,1.5-6.5
		c4.8-2,9.8-4.1,14.8-6.2c0-23.8,0-47.6,0-71c-1-1.4-1.7-2.4-2.5-3.5c-10-5.2-20.1-10.6-30.4-15.9c-10.3,5.4-20.6,10.8-30.3,15.9
		c-1.1,1.5-1.9,2.5-2.6,3.5c0,23.7,0,47.4,0,71c5.2,2.2,10.3,4.4,14.8,6.3c0.7,2.5,1.4,4.1,1.6,5.9c0.2,2.2-0.1,4.5,0.1,6.7
		c0.2,2.3,1,4.5,0.9,6.8c-0.3,5.9,1.9,11.7,1.1,17.6c0,0.2-0.1,0.4,0,0.5c1.7,2.2,1.2,4.9,0.9,7.3c-0.3,2.8,1.1,5.2,1.2,7.8
		c0.1,3.3,0,6.6,0.8,9.9c0.9,4,0.4,8.3,1.1,12.4c0.7,4.2,0,8.6,1.6,12.9C49,481,55,481,61,481z M67.2,243.2
		c-0.6-0.6-1.6-1.5-2.5-2.5c-3.3-4-7.2-6-11.8-6c-1.9,0-3.7,0-5,0c-1.8,0.9-3.1,1.4-4.4,2.1c-4.9,2.4-7.9,7.3-8,12.9
		c0,5.1,0,10.3,0,14.4c2.9,8.8,9.8,11.8,16.5,14.9c6.9-3.1,13.8-6.3,16.5-15C67.9,257.8,69.6,250.6,67.2,243.2z"/>
	<path class="st0" d="M167,287.5c-6.8-5-11.8-10.3-14-17.7c-0.7-2.2-1.1-4.4-1.2-6.8c0-2.8-1.4-5.5-0.9-8.3c0.7-4.7,0.9-9.6,2.3-14
		c0.9-2.7,2.6-5.5,4.3-8c2.7-4,6.2-6.6,10.2-9c4.1-2.5,8.3-4.3,13.1-4.4c1.2,0,2.4,0.1,3.6,0c6.9-0.5,12.7,2.1,18.2,5.8
		c6,4.1,8.3,8.1,11.7,14.6c0.9,1.7-0.5,3.9,1.6,5c0.3,4.3,0.9,8.6,1,13c0.1,2.8-1.2,5.4-1.1,8.3c0.1,2.5-1.4,4.9-2.2,7.3
		c-0.9,2.7-3,5-5,7.2c-2.2,2.6-4.8,4.8-7.5,7.5c4.4,2.3,8.5,4.3,12.6,6.5c3.8,2.1,7.6,4.1,11.2,6.5c2.2,1.5,3.3,4,4.4,6.4
		c0.8,1.7,1.9,3.3,2.7,4.7c2.4,14,1.2,27.8,1.4,41.6c0.2,13.9,0,27.8,0,41.7c0,0.3-0.2,0.6-0.4,1.4c-5.4,2.3-11.1,4.7-17.2,7.3
		c0.7,5.3-1.8,10.4-1,15.8c-1.4,4.1-0.3,8.4-1.2,12.4c-0.8,3.4-0.7,6.6-0.8,9.9c-0.1,2.7-1.5,5-1.2,7.8c0.3,2.4,0.8,5.1-0.9,7.3
		c-0.1,0.1,0,0.3,0,0.5c0.8,5.8-1.3,11.3-1.1,17.1c0.1,2.2-0.8,4.5-0.9,6.8c-0.2,2.4,0.6,5-0.2,7.2c-1,2.8-0.7,5.6-0.9,8.5
		c-15.7,0-31.3,0-47.2,0c-0.4-4.4-1.1-9-1.1-13.6c0-2.6-1.2-4.8-1.2-7.3c0-2.6,0.7-5.4-0.2-7.7c-1.1-3-0.6-6-0.9-8.9
		c-0.2-2.3-0.8-4.5-1-6.8c-0.2-2.2,0.6-4.7-0.2-6.6c-1.2-3.3-0.6-6.6-0.9-9.9c-0.2-2.1-0.8-4.2-1-6.3c-0.2-2.2,0.6-4.7-0.2-6.6
		c-1.3-3.3-0.4-6.7-1-9.9c-0.5-3.1-1.3-6.2-0.9-9.6c-5.8-2.5-11.7-5-17.6-7.5c0-2,0-3.6,0-5.3c0-22.2-0.1-44.3,0.1-66.5
		c0-4,0.7-7.9,1.2-12.5c1.5-2.5,3.1-5.7,5-8.6c0.8-1.2,2-2.1,3.2-3c6.2-4.6,13.4-7.5,20-11.4C164.9,288.8,165.8,288.3,167,287.5z
		 M193,481.1c0.5-2.8,0.9-5.2,1.2-7.7c0.3-3-0.3-5.9,0.9-8.9c0.8-1.9,0-4.4,0.2-6.6c0.2-2.3,0.8-4.5,1-6.8c0.3-3.1-0.3-6.2,0.9-9.4
		c0.7-2,0-4.4,0.2-6.6c0.2-2.1,0.8-4.2,1-6.3c0.3-3.3-0.3-6.6,0.9-9.9c0.7-1.8,0-4.1,0.2-6.1c0.2-2.1,1-4.2,0.9-6.3
		c-0.1-4.4,0.2-8.6,1.6-13.2c4.8-2,9.9-4.2,14.9-6.3c0-23.9,0-47.6,0-70.8c-1-1.5-1.8-2.7-2.4-3.5c-10.5-5.5-20.6-10.8-30.6-16
		c-10.5,5.5-20.6,10.8-30.3,15.9c-1.1,1.4-1.8,2.5-2.7,3.5c0,23.6,0,47.3,0,71c5.1,2.2,10.2,4.4,14.9,6.4c0.6,2.3,1.3,4,1.5,5.7
		c0.2,2.2-0.1,4.5,0.1,6.7c0.2,2.1,0.8,4.2,1,6.3c0.3,3.3-0.2,6.6,0.9,9.9c0.7,2.1,0.2,4.8,0.1,7.2c-0.1,2.4,1.4,4.3,1.1,6.8
		c-0.6,5.7,1.8,11.3,1,17.1c0,0.2-0.1,0.4,0,0.5c1.8,2.4,0.7,5.2,1,7.8c0.3,2.6,1,5.2,1,7.8c0,4.2,0.1,8.2,1.7,12.1
		C181.1,481.1,187,481.1,193,481.1z M178.9,235.1C179.1,234.9,179,235.1,178.9,235.1c-1.2,0.6-2.4,1.1-3.5,1.7
		c-4.9,2.4-7.9,7.4-7.9,12.9c0,5.1,0,10.3,0,13.9c2.7,9.5,9.9,12.3,16.5,15.3c6.9-3.1,13.8-6.3,16.5-15c-0.6-6.2,1.1-13.4-1.2-20.3
		C194.7,236.7,188.3,233.3,178.9,235.1z"/>
	<path class="st0" d="M365.4,396.6c-5.8,2.5-11.6,5-17.4,7.4c0,5.7-1.8,11.1-1.1,16.7c-1.7,3.5-0.3,7.4-1.2,10.9
		c-0.9,4-0.2,8.1-1.1,11.9c-0.8,3.4-0.6,6.6-0.9,9.9c-0.2,2.1-0.8,4.2-1,6.3c-0.2,2.2,0.6,4.7-0.2,6.6c-1.3,3.5-0.5,7-1,10.4
		c-0.4,2.4-1.1,4.8-1,7.3c0,2.5,0.3,4.9-0.8,7.4c-0.7,1.5-0.1,3.7-0.1,5.9c-15.7,0-31.4,0-47.5,0c0.6-5.3-1.8-10.5-1-15.9
		c-1.4-3.9-0.4-8.1-1.2-11.9c-0.8-3.7-0.5-7.3-0.9-10.9c-0.3-2.4-1-4.8-1-7.3c0-2.5,0.7-5.1-1-7.3c-0.1-0.1,0-0.3,0-0.5
		c0.8-5.9-1.4-11.7-1.1-17.6c0.1-2.2-0.7-4.5-0.9-6.8c-0.2-2.2,0.6-4.7-0.2-6.6c-1.1-2.8-0.6-5.6-1-8.5c-5.7-2.4-11.4-4.8-17.4-7.3
		c0-5.8,0-11.4,0-17c0-5.7,0-11.3,0-17c0-5.5,0-11,0-16.5c0-5.7,0.3-11.4-0.1-17c-0.4-5.6,1.5-11,1.1-16.5c1.5-2.6,3.2-4.9,4.3-7.6
		c1.3-3.2,4.1-4.8,6.7-6.3c5.2-3.1,10.8-5.5,16.1-8.4c1.4-0.8,3.7-0.8,3.9-3.3c-4.7-2.9-8.6-7-11.2-11.7c-1.9-3.4-3.4-7.3-3.3-11.5
		c0-1.7-0.8-3.5-0.9-5.2c-0.1-3,0.4-5.9,0.8-8.9c0.4-2.9,0.9-5.9,1.4-8.8c0.4-2.4,1.9-4.7,3.3-6.8c1.3-2.1,2.9-4.1,4.7-5.7
		c1.6-1.5,4-2.3,5.5-3.9c2.9-2.9,6.9-3.4,10.4-4.8c2.1-0.8,4.7-0.2,7.1-0.3c6.8-0.5,12.6,2.2,18.3,5.6c5.9,3.6,9,9.2,11.9,15.1
		c0.8,1.6,0.9,3.4,1.3,5.1c0.9,3.7,1.2,7.6,1.1,11.4c-0.2,5.7-1.1,11.4-3.1,16.7c-1,2.7-3,5-4.9,7.2c-2.2,2.6-4.8,4.9-7.6,7.7
		c3.6,1.8,7.2,3.6,10.7,5.4c4.4,2.4,8.7,4.7,12.9,7.4c1.6,1,2.7,2.9,3.7,4.6c2,3.5,4.6,6.8,4,11.2c2.1,8.7,0.7,17.6,1,26.4
		c0.2,8.8,0.1,17.5,0.1,26.3C365.4,378.3,365.4,387.3,365.4,396.6z M283.1,315.6c0,23.9,0,47.7,0,71.3c5.2,2.2,10.2,4.3,14.7,6.3
		c0.6,2.2,1.4,3.9,1.5,5.6c0.2,4.3,0.1,8.7,1,13c0.7,3.2-0.2,6.6,1,9.9c0.7,2,0,4.4,0.2,6.6c0.2,2.3,1,4.5,0.9,6.8
		c-0.3,5.9,1.9,11.7,1.1,17.6c0,0.2-0.1,0.4,0,0.5c1.7,2.3,1.2,4.9,0.9,7.3c-0.3,2.8,1.3,5.2,1.1,7.8c-0.2,4.3,0.2,8.6,1.5,12.5
		c6,0,12,0,17.7,0c0.5-2.1,1.1-4,1.3-5.9c0.4-3.6,0-7.2,0.9-10.9c0.9-3.8,0.2-7.9,1.1-11.9c0.8-3.5,0.1-7.2,1-10.9
		c0.9-3.7,0.1-7.6,1-11.4c0.8-3.7,0.2-7.6,1-11.4c0.8-3.7,0.4-7.6,1-11.4c0.7-4.4,0.2-9,1.8-13.8c4.8-2,9.9-4.2,14.9-6.3
		c0-23.8,0-47.5,0-70.8c-1-1.5-1.8-2.7-2.4-3.6c-10.5-5.5-20.6-10.8-30.6-16c-10.4,5.5-20.6,10.8-30.3,15.9
		C284.6,313.7,283.8,314.7,283.1,315.6z M311.7,234.7c-2,1-3.5,2-5.1,2.6c-4.1,1.6-6.9,7.4-7.1,11.4c-0.2,4.8,0,9.6-0.1,14.4
		c0,1.2,0.5,2.1,0.9,3.2c1.8,4.6,5.1,7.5,9.3,9.7c2.1,1.1,4.3,2.1,6.3,3.1c6.9-3.1,13.8-6.3,16.5-15c-0.6-6.2,1.1-13.4-1.5-21.4
		c-0.2-0.2-1.4-0.9-2.3-1.9c-3.3-3.9-7.2-6-11.8-6C315,234.7,313.1,234.7,311.7,234.7z"/>
	<path class="st0" d="M424.3,497.4c0.1-5.7-1.9-11.1-1.1-16.7c-1.6-3.5-0.4-7.4-1.2-10.9c-0.9-4-0.2-8.1-1.1-11.9
		c-0.8-3.5-0.2-7.1-1-10.4c-0.9-4.2-0.2-8.5-1.1-12.4c-0.8-3.4-0.7-6.6-0.8-9.9c-0.1-2.7-1.5-5-1.2-7.8c0.3-2.4,0.4-4.9-0.8-7.4
		c-0.7-1.5-0.1-3.7-0.1-5.8c-5.7-2.5-11.6-5-17.5-7.5c0-1.8,0-3.3,0-4.8c0-22.5-0.1-45,0.1-67.5c0-3.8,0.8-7.6,1.3-12.1
		c1.4-2.4,3-5.6,4.9-8.5c0.8-1.2,2-2.1,3.2-3c6.2-4.6,13.4-7.6,20-11.4c0.9-0.5,1.9-1.1,2.9-1.7c-4.3-3.6-8.1-6.9-10.8-11.4
		c-2.2-3.6-3.9-7.5-3.9-11.7c-0.1-3.4-1.8-6.5-1.1-9.9c1.3-6,0.7-12.4,4.1-17.9c2.6-4.2,5.1-8.1,9.3-11.1c4-2.9,8.5-4.4,12.9-6.4
		c5.7,0.2,11.3-0.6,17,1.3c4.4,1.5,8.3,3.8,11.6,6.8c4.5,4.1,8.4,9.1,9.2,15.7c1.7,2.2,0.2,5.1,1.2,7.2c1.1,2.4,0.8,4.6,0.8,6.9
		c0,1.7-0.6,3.5-1,5.2c-0.4,1.9,0.6,3.9-0.9,5.9c-1,1.3-0.5,3.6-1.3,5.1c-1.4,2.6-3.1,5-5.1,7.2c-2.2,2.6-4.8,4.8-7.5,7.5
		c4.4,2.3,8.5,4.3,12.6,6.5c3.8,2.1,7.6,4.1,11.2,6.5c2.2,1.5,3.3,4,4.4,6.4c0.8,1.7,1.9,3.3,2.7,4.7c2.4,14,1.2,27.8,1.4,41.6
		c0.2,13.9,0,27.8,0,41.7c0,0.3-0.2,0.6-0.4,1.4c-5.4,2.3-11.1,4.7-17.2,7.3c0.7,5.3-1.8,10.4-1,15.8c-1.4,4.1-0.3,8.4-1.2,12.4
		c-0.8,3.4-0.7,6.6-0.8,9.9c-0.1,2.7-1.5,5-1.2,7.8c0.3,2.4,0.8,5.1-0.9,7.3c-0.1,0.1,0,0.3,0,0.5c0.8,5.8-1.3,11.3-1.1,17.1
		c0.1,2.2-0.8,4.5-0.9,6.8c-0.2,2.4,0.6,5-0.2,7.2c-1,2.8-0.7,5.6-0.9,8.5C455.9,497.4,440.3,497.4,424.3,497.4z M415.1,315.6
		c0,23.8,0,47.7,0,71.3c5.2,2.2,10.2,4.3,14.9,6.3c0.5,2.7,1.1,4.9,1.4,7.1c0.4,3.3-0.3,6.6,0.9,9.9c0.7,2,0,4.4,0.2,6.6
		c0.2,2.1,0.8,4.2,1,6.3c0.3,3.3-0.3,6.6,0.9,9.9c0.7,2,0,4.4,0.2,6.6c0.2,2.3,0.7,4.5,1,6.8c0.3,3,0.2,5.9,0.8,8.9
		c0.8,4.2,0.6,8.6,1.1,12.9c0.5,4.3,0.3,8.6,1.7,12.5c6,0,12,0,17.7,0c0.5-2.1,1.2-4,1.3-5.9c0.4-3.6,0-7.2,0.9-10.9
		c0.9-3.8,0.2-7.9,1.1-11.9c0.8-3.5,0.2-7.2,1-10.9c0.8-3.8,0.2-7.9,1.1-11.9c0.7-3.5,0.2-7.2,1-10.9c0.8-3.7,0-7.6,1.1-11.4
		c0.6-2.1-0.1-4.5,0.2-6.7c0.2-2.2,0.8-4.4,1.3-7.1c4.9-2.1,10-4.3,15.1-6.4c0-23.8,0-47.5,0-70.8c-1-1.5-1.8-2.7-2.4-3.6
		c-10.4-5.5-20.6-10.8-30.6-16c-10.4,5.5-20.6,10.8-30.2,15.9C416.6,313.7,415.8,314.7,415.1,315.6z M464.4,264.2
		c0-3.8-0.1-8.6,0-13.4c0.2-6.6-3.1-10.9-8.5-14c-1.2-0.7-2.5-1.4-3.6-2c-4.7-0.3-9.1-0.3-13.2,1.9c-4.4,2.4-7.7,7.5-7.7,12.6
		c0,5.3,0,10.6,0,15.7c4.9,8,4.5,8.4,16.5,13.9C454.9,275.9,461.6,272.8,464.4,264.2z"/>
	<path class="st1" d="M115,184.2c-4-1.5-5.3-4-5.3-7.8c0.1-50.9,0-101.7,0-151.8c1.4-4.4,4.1-5.5,7.8-5.4c89,0.1,178,0,267,0
		c0.3,0,0.7,0-0.2,0c5.3,1.5,5.8,4.6,5.8,8.4c-0.1,50.5,0,101,0,151.4c-1.3,4.3-4.4,5.2-8.4,5.2c-32.5-0.1-64.9-0.1-97.4-0.1
		c-1.7,0-3.4,0-4.6,0c-9.8,12.3-19.4,24.3-29.3,36.5c-4.8-3.2-7-8.2-10.5-12.1c-3.4-3.9-6.6-7.9-9.9-11.9c-3.3-4.1-6.4-8.3-9.7-12.6
		C185.2,184.2,149.8,184.2,115,184.2z M329.7,31c-3.3,3.3-7,7-11.2,11.2c3.3,3.3,6.8,6.8,10.1,10.1c-8.3,0-17.1-0.1-25.8,0
		c-3.6,0.1-7.3,0.6-10.9,1c-0.3,0-0.5,0.5-0.8,0.5c-4.2,1.1-7.6,3.5-10.7,6.6c-23.3,23.3-46.6,46.6-70,69.9
		c-1.6,1.6-3.5,3.1-5.2,4.6c-18.2,0-36.2,0-54.4,0c0,2.9,0,5.6,0,8.3c0,2.7-0.1,5.4,0.1,8c15.4,0,30.4,0.1,45.3,0
		c3.8,0,7.6-0.6,11.4-1c0.3,0,0.6-0.3,0.9-0.4c4.2-1.2,7.6-3.5,10.7-6.6c23.3-23.3,46.6-46.6,70-69.9c1.7-1.7,3.7-3.2,5.3-4.5
		c6.2,0,11.8,0,17.5,0c5.7,0.1,11.5-0.3,17.5,0.2c-3.7,3.7-7.1,7.1-10.5,10.5c3.6,3.6,7.2,7.2,10.8,10.8c5-5,10-9.9,14.9-14.9
		c4.9-5,10-9.7,14.5-14.8C349.3,50.6,339.5,40.7,329.7,31z M329.1,151.2c-3.6,3.6-7,7-10.2,10.2c4,4,7.6,7.6,11.2,11.2
		c9.6-9.6,19.3-19.3,29-29c0.1-0.1,0.1-0.3,0.1-0.4c0-0.2,0-0.3,0-0.3c-9.9-9.9-19.7-19.7-29.5-29.5c-3.4,3.4-7,7-11.2,11.2
		c3.4,3.4,6.8,6.8,10.1,10.1c-11,0-22.4,0-33.9,0c-4.5-2.6-7.5-6.7-11.2-10.2c-3.9-3.7-7.5-7.5-11.2-11.2
		c-3.6,3.6-7.2,7.2-10.8,10.8c6.5,6.5,13.1,13.3,19.9,19.8c2.5,2.4,5.3,4.6,9.1,5.5c1.8,0.4,3.6,0.4,5.3,0.9c1.9,0.5,3.7,1,5.8,1
		C310.7,151.2,319.9,151.2,329.1,151.2z M151,68.7c17,0,33.7,0.1,50.3-0.1c3.5,0,6,1.1,8.4,3.5c6,6.1,12.1,12.1,17.8,17.8
		c3.7-3.7,7.2-7.2,10.8-10.8c-6.5-6.5-13.2-13.2-19.9-19.9c-3.1-3.1-6.8-5.3-10.9-5.9c-4.6-0.7-9.2-1.4-14-1.3
		c-12.9,0.3-25.8,0.1-38.6,0.1c-1.3,0-2.6,0.1-3.9,0.2C151,57.9,151,63.1,151,68.7z"/>
	<path class="st1" d="M61,481c-6,0-12,0-17.9,0c-1.6-4.3-1-8.7-1.6-12.9c-0.7-4.2-0.1-8.5-1.1-12.4c-0.8-3.4-0.7-6.6-0.8-9.9
		c-0.1-2.7-1.5-5-1.2-7.8c0.3-2.4,0.8-5-0.9-7.3c-0.1-0.1,0-0.3,0-0.5c0.8-5.9-1.4-11.7-1.1-17.6c0.1-2.2-0.7-4.5-0.9-6.8
		c-0.2-2.2,0.1-4.5-0.1-6.7c-0.2-1.7-0.9-3.4-1.6-5.9c-4.5-1.9-9.6-4.1-14.8-6.3c0-23.6,0-47.3,0-71c0.7-1,1.5-2,2.6-3.5
		c9.7-5.1,20-10.5,30.3-15.9c10.2,5.4,20.4,10.7,30.4,15.9c0.8,1.1,1.6,2.2,2.5,3.5c0,23.4,0,47.2,0,71c-5.1,2.1-10.1,4.2-14.8,6.2
		c-0.6,2.4-1.3,4.4-1.5,6.5c-0.2,2.2,0.1,4.5-0.1,6.7c-0.2,2.1-0.8,4.2-1,6.3c-0.2,2.2,0.6,4.7-0.2,6.6c-1.2,3-0.6,6-0.9,8.9
		c-0.3,2.3-0.8,4.5-1,6.8c-0.2,2.2,0.6,4.7-0.2,6.6c-1.2,3.3-0.8,6.6-0.9,9.9c-0.1,2.7-1.5,5-1.2,7.8c0.3,2.4,0.8,5-0.9,7.3
		c-0.1,0.1,0,0.3,0,0.5c0,2.4,0.2,4.8,0,7.2C62.1,476.4,61.5,478.5,61,481z"/>
	<path class="st1" d="M67.2,243.2c2.4,7.4,0.7,14.6,1.4,20.8c-2.7,8.7-9.6,11.9-16.5,15c-6.8-3.1-13.7-6-16.5-14.9
		c0-4.1,0-9.3,0-14.4c0-5.6,3-10.5,8-12.9c1.3-0.6,2.6-1.2,4.4-2.1c1.2,0,3.1,0,5,0c4.7,0,8.6,2,11.8,6
		C65.6,241.7,66.6,242.6,67.2,243.2z"/>
	<path class="st1" d="M193,481.1c-6.1,0-11.9,0-17.7,0c-1.6-3.9-1.7-8-1.7-12.1c0-2.6-0.6-5.2-1-7.8c-0.3-2.6,0.8-5.4-1-7.8
		c-0.1-0.1,0-0.3,0-0.5c0.8-5.8-1.6-11.4-1-17.1c0.3-2.5-1.2-4.4-1.1-6.8c0.1-2.4,0.6-5-0.1-7.2c-1.2-3.3-0.6-6.6-0.9-9.9
		c-0.2-2.1-0.8-4.2-1-6.3c-0.2-2.2,0.1-4.5-0.1-6.7c-0.2-1.7-0.9-3.4-1.5-5.7c-4.7-2-9.8-4.2-14.9-6.4c0-23.7,0-47.4,0-71
		c0.8-1.1,1.6-2.1,2.7-3.5c9.6-5.1,19.8-10.4,30.3-15.9c10,5.2,20.1,10.5,30.6,16c0.6,0.8,1.4,2,2.4,3.5c0,23.3,0,47,0,70.8
		c-5,2.1-10.1,4.3-14.9,6.3c-1.5,4.6-1.7,8.9-1.6,13.2c0,2.1-0.8,4.2-0.9,6.3c-0.2,2,0.5,4.3-0.2,6.1c-1.3,3.3-0.6,6.6-0.9,9.9
		c-0.2,2.1-0.8,4.2-1,6.3c-0.2,2.2,0.6,4.7-0.2,6.6c-1.2,3.2-0.6,6.3-0.9,9.4c-0.2,2.3-0.8,4.5-1,6.8c-0.2,2.2,0.6,4.7-0.2,6.6
		c-1.2,3-0.6,6-0.9,8.9C194,475.8,193.5,478.3,193,481.1z"/>
	<path class="st1" d="M178.9,235.1c9.4-1.9,15.7,1.5,20.4,8.6c2.3,6.9,0.5,14,1.2,20.3c-2.7,8.7-9.6,11.9-16.5,15
		c-6.7-3.1-13.8-5.9-16.5-15.3c0-3.7,0-8.8,0-13.9c0-5.6,3.1-10.5,7.9-12.9C176.6,236.2,177.7,235.7,178.9,235.1
		C179,235.1,179.1,234.9,178.9,235.1z"/>
	<path class="st1" d="M283.1,315.6c0.7-0.9,1.5-2,2.5-3.3c9.7-5.1,19.8-10.4,30.3-15.9c10,5.2,20.2,10.5,30.6,16
		c0.6,0.9,1.4,2.1,2.4,3.6c0,23.3,0,47,0,70.8c-5,2.1-10.1,4.3-14.9,6.3c-1.6,4.8-1.1,9.4-1.8,13.8c-0.6,3.8-0.2,7.7-1,11.4
		c-0.8,3.9-0.2,7.8-1,11.4c-0.9,3.9-0.2,7.8-1,11.4c-0.9,3.7-0.2,7.4-1,10.9c-0.9,4-0.2,8.1-1.1,11.9c-0.8,3.7-0.5,7.3-0.9,10.9
		c-0.2,1.9-0.8,3.8-1.3,5.9c-5.7,0-11.7,0-17.7,0c-1.4-3.9-1.7-8.2-1.5-12.5c0.1-2.7-1.5-5-1.1-7.8c0.3-2.4,0.8-5-0.9-7.3
		c-0.1-0.1,0-0.3,0-0.5c0.8-5.9-1.4-11.7-1.1-17.6c0.1-2.2-0.7-4.5-0.9-6.8c-0.2-2.2,0.6-4.7-0.2-6.6c-1.2-3.3-0.3-6.7-1-9.9
		c-0.9-4.3-0.8-8.6-1-13c-0.1-1.7-0.9-3.4-1.5-5.6c-4.6-1.9-9.5-4.1-14.7-6.3C283.1,363.3,283.1,339.5,283.1,315.6z"/>
	<path class="st1" d="M311.7,234.7c1.4,0,3.2,0,5.1,0c4.6,0,8.5,2,11.8,6c0.9,1,2.1,1.8,2.3,1.9c2.6,8,0.9,15.2,1.5,21.4
		c-2.7,8.7-9.6,11.9-16.5,15c-2-1-4.2-2-6.3-3.1c-4.2-2.1-7.5-5.1-9.3-9.7c-0.4-1.1-0.9-2-0.9-3.2c0-4.8-0.2-9.6,0.1-14.4
		c0.2-4,3-9.7,7.1-11.4C308.2,236.7,309.7,235.7,311.7,234.7z"/>
	<path class="st1" d="M415.1,315.6c0.7-0.9,1.5-2,2.5-3.4c9.7-5.1,19.8-10.4,30.2-15.9c10,5.2,20.2,10.5,30.6,16
		c0.6,0.9,1.4,2.1,2.4,3.6c0,23.3,0,47,0,70.8c-5,2.1-10.2,4.3-15.1,6.4c-0.5,2.6-1.1,4.8-1.3,7.1c-0.2,2.2,0.4,4.6-0.2,6.7
		c-1.1,3.8-0.3,7.7-1.1,11.4c-0.8,3.7-0.3,7.4-1,10.9c-0.8,4-0.2,8.1-1.1,11.9c-0.8,3.7-0.2,7.4-1,10.9c-0.9,4-0.2,8.1-1.1,11.9
		c-0.8,3.7-0.5,7.3-0.9,10.9c-0.2,1.9-0.8,3.8-1.3,5.9c-5.7,0-11.7,0-17.7,0c-1.4-3.9-1.2-8.3-1.7-12.5c-0.5-4.3-0.3-8.8-1.1-12.9
		c-0.6-3-0.5-5.9-0.8-8.9c-0.2-2.3-0.8-4.5-1-6.8c-0.2-2.2,0.5-4.7-0.2-6.6c-1.2-3.3-0.6-6.6-0.9-9.9c-0.2-2.1-0.8-4.2-1-6.3
		c-0.2-2.2,0.6-4.7-0.2-6.6c-1.2-3.3-0.6-6.6-0.9-9.9c-0.3-2.2-0.8-4.4-1.4-7.1c-4.8-2-9.7-4.1-14.9-6.3
		C415.1,363.3,415.1,339.5,415.1,315.6z"/>
	<path class="st1" d="M464.4,264.2c-2.8,8.6-9.5,11.7-16.4,14.8c-12-5.5-11.7-5.9-16.5-13.9c0-5.1,0-10.4,0-15.7
		c0-5.2,3.3-10.2,7.7-12.6c4.1-2.2,8.5-2.3,13.2-1.9c1.1,0.6,2.3,1.2,3.6,2c5.4,3.1,8.7,7.4,8.5,14
		C464.3,255.6,464.4,260.4,464.4,264.2z"/>
	<path class="st0" d="M329.7,31c9.8,9.8,19.6,19.6,29.7,29.7c-4.5,5-9.6,9.8-14.5,14.8c-4.9,5-10,10-14.9,14.9
		c-3.6-3.6-7.2-7.2-10.8-10.8c3.4-3.4,6.8-6.8,10.5-10.5c-6-0.5-11.8-0.2-17.5-0.2c-5.7-0.1-11.3,0-17.5,0c-1.6,1.3-3.6,2.8-5.3,4.5
		c-23.3,23.3-46.7,46.6-70,69.9c-3,3.1-6.5,5.3-10.7,6.6c-0.3,0.1-0.6,0.4-0.9,0.4c-3.8,0.4-7.6,1-11.4,1c-14.9,0.1-29.9,0-45.3,0
		c-0.2-2.6,0-5.3-0.1-8c0-2.7,0-5.4,0-8.3c18.2,0,36.2,0,54.4,0c1.7-1.5,3.5-2.9,5.2-4.6c23.3-23.3,46.6-46.6,70-69.9
		c3-3,6.4-5.5,10.7-6.6c0.3-0.1,0.5-0.5,0.8-0.5c3.6-0.4,7.3-0.9,10.9-1c8.7-0.1,17.5,0,25.8,0c-3.3-3.3-6.8-6.8-10.1-10.1
		C322.8,37.9,326.4,34.3,329.7,31z"/>
	<path class="st0" d="M329.1,151.2c-9.2,0-18.5,0-27.7,0c-2,0-3.9-0.5-5.8-1c-1.7-0.5-3.5-0.5-5.3-0.9c-3.7-0.9-6.5-3.1-9.1-5.5
		c-6.8-6.5-13.4-13.3-19.9-19.8c3.6-3.6,7.2-7.2,10.8-10.8c3.7,3.7,7.4,7.5,11.2,11.2c3.7,3.5,6.7,7.6,11.2,10.2
		c11.5,0,22.9,0,33.9,0c-3.2-3.2-6.7-6.7-10.1-10.1c4.2-4.2,7.8-7.8,11.2-11.2c9.8,9.8,19.6,19.6,29.5,29.5c0,0,0,0.1,0,0.3
		c0,0.2,0,0.3-0.1,0.4c-9.7,9.7-19.4,19.4-29,29c-3.6-3.6-7.2-7.2-11.2-11.2C322.1,158.2,325.5,154.8,329.1,151.2z"/>
	<path class="st0" d="M151,68.7c0-5.7,0-10.8,0-16.3c1.3-0.1,2.6-0.2,3.9-0.2c12.9,0,25.8,0.2,38.6-0.1c4.8-0.1,9.4,0.6,14,1.3
		c4.1,0.6,7.8,2.9,10.9,5.9c6.7,6.7,13.4,13.4,19.9,19.9c-3.6,3.6-7.2,7.2-10.8,10.8c-5.7-5.7-11.8-11.7-17.8-17.8
		c-2.3-2.4-4.9-3.6-8.4-3.5C184.6,68.8,168,68.7,151,68.7z"/>
</g>
</svg>
