<?xml version="1.0" encoding="utf-8"?>
<!-- Generator: Adobe Illustrator 23.1.0, SVG Export Plug-In . SVG Version: 6.00 Build 0)  -->
<svg version="1.1" id="Layer_1" xmlns="http://www.w3.org/2000/svg" xmlns:xlink="http://www.w3.org/1999/xlink" x="0px" y="0px"
	 viewBox="0 0 517 572" style="enable-background:new 0 0 517 572;" xml:space="preserve">
<style type="text/css">
	.st0{fill:none;stroke:#82563D;stroke-width:8;stroke-linecap:round;stroke-linejoin:round;stroke-miterlimit:10;}
</style>
<g>
	<path class="st0" d="M478.7,411.8c-4.5-29.8-16.7-57.2-34.9-81.4c-25.9-34.4-49.4-46.5-100.2-22.8c-55.8,26-104.5,62.9-134.9,116.2
		c43.4,39.9,210.2,39.9,263.1,0.9c6.9,18.8,3.4,32.4-16.3,44.8c-35.4,22.3-73.9,27-117.2,23c-49.6-4.6-95-18.8-140-36
		c-15.1-5.8-29.5-11.6-46.1-10.4"/>
	<path class="st0" d="M177.5,40.1c-61.5-6.3-75.6,25.3-78.6,66.6C94.1,173,105,237.5,117,302.4c5.7,30.9,11.2,61.8,18.9,92.3
		c2,7.9-2.3,14.4-11.3,17.1"/>
	<path class="st0" d="M209.7,330.1c25.1-21.4,50.1-42.8,80.4-58.2c17.8-9.1,30.5-23.4,38.8-42c-5.5-5.2-6.3-13.9-17.7-18.6
		c-41-17-60-50.5-69.2-89.6c-8.4-35.6-26.5-64.3-62.7-81.2c1.2-2,1.9-3.4,2.8-4.8c27.5-39.9,55-40.9,84.7-1.9
		c8.4,11,16.8,22.4,21.6,36.1c8.5,24.8,30.6,40.3,52.9,53.2c15,8.7,23.5,21.7,33.5,33.3c15.9,18.5,12.4,34.7-3.9,55.6
		c-33.2,42.6-67.4,84-114.9,114.1c-7.1,4.5-14.9,10.1-17.5,19"/>
	<path class="st0" d="M322.3,276.4c32.7-6.5,61.4-23.1,94.1-30.8c56.2-13.3,76.2,8.8,87.3,52.3c7.1,27.9,2.6,55.9-3.9,83.8
		c-4,17.2-19.6,27.4-25.7,42.9"/>
	<path class="st0" d="M184.4,46.5c-11.6,15.3-8.3,33.2-6.3,49.4c5.2,41.7,13.4,83.1,20.1,124.7c6,37,13.6,74.2,8.6,111.6
		c-2.1,15.5-10.5,30.6-18.2,45c-3.8,7.2-6.6,13.9-6.5,21.7"/>
	<path class="st0" d="M25.7,270c-1.3-12.4,7.1-19.8,18.2-14.8c12.4,5.6,21.9,14.7,30.2,25.4c17.9,23,28.4,49.2,38.4,75.5
		c2.8,7.4-1,17-1.8,25.6"/>
	<path class="st0" d="M7.3,325.8c3.7-18.8,15-18.6,29.9-10.8c34.4,18,55.4,47.7,75.5,77.6c10.4,15.4,13.4,35.5,30.5,46.8
		c11.4,7.5,2.8,19.6,10.9,28.5c27.8,30,54,61.3,80.9,92.1c2.3,2.6,4.7,5.5,12.9,3.1c13.9-10.8,6.1-25.8-2-37.1
		c-15.4-21.7-38-37.5-59.2-54.1c-8-6.2-18.8-10.1-20.7-21.5"/>
</g>
</svg>
