<?xml version="1.0" encoding="utf-8"?>
<!-- Generator: Adobe Illustrator 23.1.0, SVG Export Plug-In . SVG Version: 6.00 Build 0)  -->
<svg version="1.1" id="Layer_1" xmlns="http://www.w3.org/2000/svg" xmlns:xlink="http://www.w3.org/1999/xlink" x="0px" y="0px"
	 viewBox="0 0 500 500" style="enable-background:new 0 0 500 500;" xml:space="preserve">
<style type="text/css">
	.st0{fill:#FFFFFF;}
	.st1{fill:#52312C;}
</style>
<g>
	<path class="st0" d="M479.3,428.5H20.1c-4.4,0-8-3.6-8-8V176.9c0-4.4,3.6-8,8-8h459.2c4.4,0,8,3.6,8,8v243.6
		C487.3,424.9,483.7,428.5,479.3,428.5z"/>
	<path class="st1" d="M25.9,497.5c-0.3-0.3-0.7-0.9-1-0.9c-4.7,0-8.3-1.7-11.4-4c-2.8-2.1-6.2-3.9-7.9-6.7c-0.7-1.2-3.1-7.5-3.1-8.7
		c0-0.6,0-1.3,0-1.9c0-137.5,0-275,0.1-412.5c0-7.7,2.6-15.1,6.7-22.1c4.1-7.1,9.5-13.6,17.4-18.8c4.5-2.9,8.5-6.3,13.4-8.8
		c5.4-2.8,11.4-5,17.8-6.6c6-1.5,12-3.1,18.5-3.1c0.1,0,0.3-0.5,0.5-0.8c115.5,0,231,0,346.5,0c0.2,0.3,0.3,0.8,0.5,0.8
		c10.9,0.2,20.5,3.5,30,7c5.4,2,10.3,4.5,14.6,7.7c3,2.3,6.3,4.5,9.2,6.9c3.4,2.8,6.7,5.8,8.8,9.3c2.8,4.5,6.4,8.6,7.8,13.6
		c0.7,2.4,1.6,4.7,2.3,7c1.9,6.8,1,13.6,1.1,20.4c0.2,6.9,0,13.8,0,20.8c0,126.4,0,252.8,0,379.2c0,3.9-0.7,7.7-3.6,11
		c-4.6,5.2-10.7,10.2-19.4,10.6c-0.2,0-0.3,0.5-0.5,0.8c-31.7,0-63.4,0-95.1,0c-0.3-0.3-0.6-0.9-1-0.9c-5.8-0.6-10.3-3-14.2-6
		c-3.9-2.9-5.6-6.5-7.1-10.4c-0.9-2.2-1-4.3-1.1-6.4c-0.1-10,0-20,0-30.4c-2,0-3.8,0-5.7,0c-23.9,0-47.7-0.1-71.6,0.1
		c-5.8,0-10.4-1-13.8-4.7c0-1.7,0-3.6,0-4.7c1.8-5,6.3-5.2,11.1-5.2c67.3,0,134.6,0,202.2,0c0-83.4,0-166.7,0-250.2
		c-151.7,0-303.5,0-455.4,0c0,83.4,0,166.6,0,250.2c1.8,0,3.7,0,5.6,0c66.2,0,132.4,0,198.6,0c4.7,0,8.5,0.6,10.7,4.3
		c2.7,4.5-0.9,9.8-7.4,10.2c-1.5,0.1-3,0-4.6,0c-26.7,0-53.4,0-80.6,0c0,1.5,0,2.9,0,4.3c0,9,0,18,0,27.1c0,3.5-1.4,6.8-3.9,10.9
		c-3.7,6-9.9,9.6-18.5,11c-0.4,0.1-0.7,0.6-1,0.9C89.3,497.5,57.6,497.5,25.9,497.5z M477.9,163.8c0-1.7,0-3.3,0-4.9
		c0-30.8,0-61.5,0-92.3c0-3.1-0.2-6.1-1-9.3c-1.7-6.2-4.4-12.1-9.2-18c-3.9-4.7-8.8-8.6-14.4-11.9c-4.8-2.8-9.7-6.1-16.4-6.6
		c-3.1-2.1-7.1-2.2-10.8-2.7c-3.9-0.5-7.7-1.2-11.8-1.1C310.4,17,206.7,17,102.9,17c-9.4,0-18.8-0.8-28.1,0.9
		c-2.6,0.5-5.4,0.4-7.9,1.1c-7.1,2.2-14.4,4.4-20.1,8.2C38.3,32.9,30.1,39,26.9,47.7c-2.8,2.1-2.7,5.1-3.4,7.6
		c-0.7,2.7-1.7,5.4-1.7,8.3c0.2,32.1,0.1,64.1,0.1,96.2c0,1.4,0,2.8,0,4C174.3,163.8,326,163.8,477.9,163.8z M375,443.4
		c0,10.9,0,21.3,0,31.8c0,4.7,4.1,7.8,10.5,7.8c27.3,0,54.6,0,81.9,0c6.3,0,10.5-3.1,10.5-7.8c0-9,0-18,0-27c0-1.6,0-3.1,0-4.7
		C443.5,443.4,409.5,443.4,375,443.4z M117.3,483c6.3-1.8,7.6-5.3,7.6-9.5c0-8.8,0-17.7,0-26.5c0-1.2-0.1-2.4-0.2-3.5
		c-34.4,0-68.4,0-102.5,0c0,11.5,0,22.9,0,33.3c1.2,3.7,4.2,5,7.4,6.2C58.8,483,88.1,483,117.3,483z"/>
	<path class="st1" d="M249.6,389.2c-43.4,0-86.8,0-130.2,0c-7.9,0-15.1-1.7-20.6-6.3c-1.4-1.2-3.1-2.2-4.6-3.4
		c-1.1-0.9-2.3-1.9-2.7-3c-1.2-3.7-3.2-7.1-3.2-11.1c0.2-41.4,0.1-82.8,0.1-124.2c0-6,2.9-11,8.4-15.3c3.1-2.4,6.5-4.5,10.5-5.7
		c3.9-1.2,8.1-2.1,12.5-2.1c51,0,102,0,153,0c35.8,0,71.6-0.1,107.4,0c12.8,0,21.6,5.5,28.5,12.9c0.3,3.2,2.8,6,2.8,9.3
		c0,42.2,0.1,84.4-0.1,126.6c0,5-2.7,9.6-7,13.8c-4.8,4.6-11.3,6.5-18.1,8.3c-1.7,0.5-3.8,0.2-5.8,0.2
		C336.8,389.2,293.2,389.2,249.6,389.2z M248.3,317.9c48.4-26.3,96.2-52.3,144.3-78.5c-2.2-2.2-4.3-4.1-5.4-5.2
		c-6.1-2.1-11.2-1.6-16.3-1.6c-80.3,0-160.6,0-240.9,0c-5.5,0-11-0.6-16.8,1.5c-4.7,3.5-4.8,3.7-5.1,7.8c6,3.3,12.2,6.6,18.3,10
		c5.5,3,11,5.9,16.5,8.9c5.7,3.1,11.2,6.3,16.9,9.4c7.3,4,14.8,7.8,22.1,11.8c5.7,3.1,11,6.6,16.9,9.4c7.4,3.6,14.3,7.7,21.6,11.4
		c7.6,4,14.8,8.4,22.3,12.6C244.3,316.5,246.4,317.1,248.3,317.9z M116.1,374.7c87.4,0,174.4,0,261.5,0c1.1,0,2.2,0,3.3,0
		c2.7,0.1,4.8-0.7,6.7-2c1.1-0.7,2.2-1.5,3.5-2.3c-1.6-0.9-2.8-1.7-4.3-2.4c-3.9-1.9-8-3.6-11.9-5.5c-10.8-5.2-21.4-10.6-32.2-15.8
		c-8.7-4.2-17.6-8.1-26.3-12.3c-11.5-5.5-22.8-11.2-34.3-16.8c-3.2,1.7-6.3,3.4-9.5,5.1c-6.2,3.3-12.4,6.6-18.6,9.9
		c-2.8-0.1-5.3,3-8.4,0.5c-4.8,0-7.7-2.7-11.2-4.5c-4.2-2.2-8-5.1-12.4-7c-2.2-1-4.3-3.4-7.6-1.7c-35,16.7-69.9,33.5-105.2,50.4
		C111.6,371.9,113.9,373.4,116.1,374.7z M391.7,353.1c0-32.3,0-63.8,0-95.2c-6.6,3.5-13.1,7-19.5,10.4c-5.5,3-11,6-16.4,9
		c-5.8,3.1-11.7,6.2-17.5,9.4c-5.7,3.1-11.3,6.2-16.9,9.4c-5.3,2.9-10.4,6.2-16,8.7c-2.4,1.1-3.9,2.5-6.4,3.9
		C330,323.5,360.5,338.1,391.7,353.1z M199.3,309.8c-14.7-8.9-30.1-16.6-45-24.8c-15-8.3-30.2-16.4-45.5-24.6
		c-1,3.8-1.1,88.3-0.2,92.9C138.8,338.8,169.1,324.3,199.3,309.8z"/>
	<path class="st0" d="M477.9,163.8c-151.9,0-303.6,0-455.9,0c0-1.3,0-2.7,0-4c0-32.1,0.1-64.1-0.1-96.2c0-2.9,0.9-5.6,1.7-8.3
		c0.7-2.5,0.6-5.5,3.4-7.6c3.1-8.7,11.3-14.8,19.9-20.4c5.7-3.8,13-6.1,20.1-8.2c2.4-0.7,5.3-0.6,7.9-1.1c9.3-1.7,18.7-0.9,28.1-0.9
		c103.8-0.1,207.5,0,311.3-0.1c4.1,0,7.9,0.6,11.8,1.1c3.7,0.5,7.8,0.7,10.8,2.7c6.7,0.5,11.6,3.9,16.4,6.6
		c5.6,3.2,10.6,7.2,14.4,11.9c4.8,5.9,7.6,11.8,9.2,18c0.9,3.2,1,6.2,1,9.3c0.1,30.8,0,61.5,0,92.3
		C477.9,160.5,477.9,162.1,477.9,163.8z M227.6,120.4c-32.5,0-64.6,0-96.2,0c-2.4-0.9-4.4-1.6-5.5-2.1c-1.5-1.5-2.5-2.4-3.1-3.1
		c-0.6-2.1-1.6-3.9-1.6-5.7c-0.2-7.4-0.2-14.8,0-22.2c0.2-7.3-1.2-14.6,1.7-22.1c2.4-1.5,5.1-3.3,7.5-4.8c77.4,0,154.2,0.1,231-0.1
		c6.5,0,11.7,0.9,15.6,4.8c0.2,0.3,0.5,0.5,0.8,0.7c2.2,4.9,1.2,10,1.3,15.1c0.1,7.9-0.1,15.8,0.1,23.7c0.1,4.8-0.2,9.6-4.4,13.5
		c-1.8,0.7-3.6,1.4-6,2.3c-1.5,0-3.7,0-5.8,0c-30.8,0-61.6,0-92.4-0.1c-4.2,0-7.3,1.2-9.8,3.4c-0.6,0.5-0.8,1.4-1.5,2.6
		c-1,3.6,2.2,6.2,6.1,8.6c33.2,0,66.4,0,99.6,0c3.1,0,6.1-0.2,9.3-0.8c7.4-1.6,12.3-4,16.9-8.3c2.6-2.4,3.7-5.4,6.1-7.7
		c2.8-14.2,0.9-28.4,1.5-42.6c0-0.3,0-0.6,0-1c-0.4-3.4-0.9-6.8-1.3-10.2c0-0.3-0.4-0.5-0.5-0.8c-1.5-3.4-3.3-6.5-6.8-9.1
		c-2.8-2-8.3-5.8-11.3-6.4c-4.8-1-9.4-2-14.5-2C287.3,46,210.7,46,134.1,46c-1.7,0-3.5-0.1-5.2,0c-1.4,0.1-2.7,0.6-4,0.9
		c-4.9,1.1-10.9,4.6-14.7,7.4c-3.5,2.6-4.9,6-7.3,8.7c-0.5,3.7-1.4,7.3-1.3,10.9c0.3,14.7-1.4,29.4,1.4,44.1c1.1,1.5,2.4,3,3.5,4.7
		c5.4,8.4,14.9,12.1,26.8,12.2c31.5,0.2,62.9,0.1,94.4,0.1c0.4,0,0.8-0.1,0.4-0.1c2-1,3.3-1.7,4.8-2.4c2.2-2.2,1.4-4.9,1.5-7.9
		C232.1,123.3,229.7,121.8,227.6,120.4z M155.2,97.2c3.5,0,6.4,1.1,9.6,1.1c56.8-0.1,113.6-0.1,170.4-0.1c1.3,0,2.6,0.2,3.9,0
		c4.1-0.6,8.1-1.7,9.4-5c0.6-1.6,0.4-3.4,0.5-4.1c-1.9-4.8-5.8-5.4-10.6-5.4c-59,0.1-118,0.1-176.9,0c-4.9,0-8.5,0.9-10.5,5
		c0,1,0,2.6,0,4.3C152.4,94.4,153.9,95.9,155.2,97.2z"/>
	<path class="st0" d="M375,443.4c34.5,0,68.4,0,102.9,0c0,1.6,0,3.2,0,4.7c0,9,0,18,0,27c0,4.7-4.1,7.8-10.5,7.8
		c-27.3,0-54.6,0-81.9,0c-6.3,0-10.5-3.1-10.5-7.8C375,464.7,375,454.3,375,443.4z"/>
	<path class="st0" d="M117.3,483c-29.3,0-58.5,0-87.8,0c-3.2-1.2-6.2-2.5-7.4-6.2c0-10.4,0-21.8,0-33.3c34.1,0,68.1,0,102.5,0
		c0.1,1.1,0.2,2.3,0.2,3.5c0,8.8,0,17.7,0,26.5C125,477.6,123.6,481.2,117.3,483z"/>
	<path class="st0" d="M248.3,317.9c-1.8-0.7-3.9-1.4-5.7-2.3c-7.5-4.2-14.7-8.6-22.3-12.6c-7.2-3.8-14.1-7.9-21.6-11.4
		c-5.9-2.8-11.2-6.3-16.9-9.4c-7.3-4-14.8-7.8-22.1-11.8c-5.7-3.1-11.2-6.3-16.9-9.4c-5.5-3-11-6-16.5-8.9
		c-6.2-3.3-12.3-6.7-18.3-10c0.3-4.2,0.4-4.3,5.1-7.8c5.8-2.1,11.3-1.5,16.8-1.5c80.3,0,160.6,0,240.9,0c5.1,0,10.2-0.5,16.3,1.6
		c1.2,1.1,3.2,3.1,5.4,5.2C344.4,265.5,296.7,291.5,248.3,317.9z"/>
	<path class="st0" d="M116.1,374.7c-2.1-1.3-4.5-2.8-7.1-4.4c35.3-16.9,70.3-33.6,105.2-50.4c3.3-1.7,5.4,0.7,7.6,1.7
		c4.5,1.9,8.2,4.8,12.4,7c3.4,1.8,6.4,4.5,11.2,4.5c3.1,2.5,5.6-0.6,8.4-0.5c6.2-3.3,12.4-6.6,18.6-9.9c3.2-1.7,6.3-3.4,9.5-5.1
		c11.5,5.6,22.8,11.3,34.3,16.8c8.7,4.2,17.6,8.1,26.3,12.3c10.8,5.2,21.5,10.5,32.2,15.8c3.9,1.9,8,3.6,11.9,5.5
		c1.4,0.7,2.7,1.5,4.3,2.4c-1.3,0.9-2.4,1.6-3.5,2.3c-1.9,1.3-4,2.2-6.7,2c-1.1-0.1-2.2,0-3.3,0
		C290.5,374.7,203.5,374.7,116.1,374.7z"/>
	<path class="st0" d="M391.7,353.1c-31.3-15-61.7-29.6-92.7-44.4c2.5-1.4,4-2.8,6.4-3.9c5.6-2.6,10.7-5.8,16-8.7
		c5.6-3.1,11.2-6.3,16.9-9.4c5.8-3.2,11.7-6.3,17.5-9.4c5.5-3,10.9-6,16.4-9c6.5-3.5,12.9-6.9,19.5-10.4
		C391.7,289.3,391.7,320.8,391.7,353.1z"/>
	<path class="st0" d="M199.3,309.8c-30.1,14.4-60.4,29-90.7,43.5c-0.9-4.6-0.8-89.1,0.2-92.9c15.3,8.2,30.4,16.4,45.5,24.6
		C169.1,293.2,184.5,301,199.3,309.8z"/>
	<path class="st1" d="M227.6,120.4c2.2,1.3,4.6,2.8,6.8,4.2c-0.2,2.9,0.6,5.6-1.5,7.9c-1.5,0.7-2.8,1.4-4.8,2.4
		c0.3-0.1,0,0.1-0.4,0.1c-31.5,0-62.9,0.1-94.4-0.1c-11.9-0.1-21.4-3.8-26.8-12.2c-1-1.6-2.3-3.2-3.5-4.7
		c-2.8-14.7-1.1-29.4-1.4-44.1c-0.1-3.6,0.8-7.1,1.3-10.9c2.5-2.8,3.8-6.1,7.3-8.7c3.7-2.8,9.7-6.3,14.7-7.4c1.3-0.3,2.7-0.8,4-0.9
		c1.7-0.2,3.5,0,5.2,0c76.6,0,153.2,0,229.8-0.1c5.1,0,9.8,1,14.5,2c3,0.6,8.5,4.4,11.3,6.4c3.5,2.6,5.4,5.7,6.8,9.1
		c0.1,0.3,0.5,0.5,0.5,0.8c0.5,3.4,0.9,6.8,1.3,10.2c0,0.3,0,0.6,0,1c-0.5,14.2,1.3,28.4-1.5,42.6c-2.4,2.3-3.5,5.3-6.1,7.7
		c-4.6,4.3-9.4,6.7-16.9,8.3c-3.2,0.7-6.2,0.8-9.3,0.8c-33.2,0-66.4,0-99.6,0c-3.9-2.4-7.1-5-6.1-8.6c0.7-1.2,0.9-2,1.5-2.6
		c2.5-2.2,5.6-3.4,9.8-3.4c30.8,0.1,61.6,0.1,92.4,0.1c2.2,0,4.3,0,5.8,0c2.3-0.9,4.1-1.6,6-2.3c4.2-3.9,4.5-8.7,4.4-13.5
		c-0.1-7.9,0-15.8-0.1-23.7c-0.1-5,1-10.1-1.3-15.1c-0.3-0.2-0.6-0.5-0.8-0.7c-3.9-3.9-9.1-4.8-15.6-4.8
		c-76.8,0.1-153.6,0.1-231,0.1c-2.4,1.5-5.1,3.3-7.5,4.8c-2.9,7.5-1.5,14.8-1.7,22.1c-0.2,7.4-0.1,14.8,0,22.2c0,1.8,1,3.6,1.6,5.7
		c0.7,0.7,1.7,1.6,3.1,3.1c1.1,0.4,3.1,1.2,5.5,2.1C162.9,120.4,195,120.4,227.6,120.4z"/>
	<path class="st1" d="M155.2,97.2c-1.3-1.3-2.8-2.8-4.2-4.3c0-1.6,0-3.3,0-4.3c1.9-4.1,5.6-5,10.5-5c59,0.1,118,0.1,176.9,0
		c4.8,0,8.7,0.6,10.6,5.4c-0.1,0.7,0.1,2.5-0.5,4.1c-1.3,3.4-5.2,4.4-9.4,5c-1.3,0.2-2.6,0-3.9,0c-56.8,0-113.6,0-170.4,0.1
		C161.6,98.3,158.7,97.2,155.2,97.2z"/>
</g>
</svg>
