<?xml version="1.0" encoding="utf-8"?>
<!-- Generator: Adobe Illustrator 23.1.0, SVG Export Plug-In . SVG Version: 6.00 Build 0)  -->
<svg version="1.1" id="Layer_1" xmlns="http://www.w3.org/2000/svg" xmlns:xlink="http://www.w3.org/1999/xlink" x="0px" y="0px"
	 viewBox="0 0 799.9 489.6" style="enable-background:new 0 0 799.9 489.6;" xml:space="preserve">
<style type="text/css">
	.st0{fill:none;stroke:#82563D;stroke-width:2;stroke-linecap:round;stroke-linejoin:round;stroke-miterlimit:10;}
</style>
<g>
	<path class="st0" d="M799.9,342.2c-5.3,0.8-10.7,0.6-16,0.6c-29.6,0.2-59.2,1.5-88.8,0.8c-16.4-0.4-32.8-0.9-49.2-2.1
		c-20.8-1.5-41.2-5-61.3-10.1c-9.5-2.4-18.8-5.5-28.2-7.9c-8.3-2-16.7-3-25.1-0.8c-9.8,2.6-16.1,9.3-20.6,17.9
		c-3,5.6-5.3,11.6-8.5,17.1c-2.3,3.9-3.3,8.1-4.5,12.3c-1.1,3.8,0.6,7.6-0.6,11.5c-1.6,5.4-2.6,11.1-4.7,16.3
		c-1.2,2.9-3.6,2.7-6.1,1.9c-11.6-3.5-22.6-8.6-33.2-14.5c-6.8-3.8-13.1-8.2-18.7-13.7c-8.1-7.9-13.4-17.5-16.7-28.2
		c-0.6-1.9-1.5-3.6-2.3-5.3"/>
	<path class="st0" d="M496.8,372.3c-1.9,0.5-3,2.1-4.2,3.5c-3.7,4.4-8.2,3.6-12.2,0.7c-5.6-4-9.2-9.7-12.7-15.5
		c-5-8.2-8.6-17.1-12.8-25.7c-5.9-12.3-13.8-22.7-24.5-31.2c-11.1-8.9-22.5-17.4-35.1-24c-3.4-1.8-7-3-11-3.6
		c-6.6-1-11.7,1.6-15.1,6.3c-6.9,9.3-11,20-12.8,31.5c-1.3,8.6-1,17,0.6,25.6c0.9,4.8,4.4,4.6,7.1,5.1c8.5,1.6,17.1,2.8,25.9,1.7
		c7.1-0.8,13.5-3.4,19.8-6.5c4.3-2.1,6.9-4,4.9-10c-1.4-4.5-1.4-10.2,1.1-15.2c1.9-3.9,3.5-5.6,6.6-5.3c2.8,0.3,5.7,3.5,6.1,6.9
		c0.1,1.1,0.4,1.7,1.6,1.5"/>
	<path class="st0" d="M161.7,125.3c2.4,3.9,6.7,4.9,10.3,6.4c11.9,4.9,24.1,8.8,36.5,12c1.5,0.4,3.1,0.4,4.6,1
		c1.1,0.4,2.7,0.4,3.3-1.1c0.5-1.2-0.4-1.9-1.4-2.7c-4.7-3.4-10-5.5-15.3-7.6c-10.1-4.1-20.7-6.4-31.3-9.1c-1.1-0.3-2.3-0.2-3.4,0
		c-3.4,0.8-6.4-0.6-9.6-1c-10-1.3-19.2,1.3-27.4,7.1c-9.3,6.7-15.5,16.1-21,25.9c-8.4,14.9-15.9,30.3-25.9,44.2
		c-2.5,3.5-2.3,4.2,1.9,6.1c4.7,2.2,9.9,2.6,14.9,2.9c16.2,1,32.1-0.3,48.1-3.6c17.6-3.6,34.7-8.5,50.7-16.9
		c8.2-4.3,15.8-9.3,22.9-15.2c2.3-1.9,4.3-4.8,8-4.6"/>
	<path class="st0" d="M488.8,311.7c0.1-3.5-2.4-5.8-4.3-8.3c-3.6-4.9-7.9-9-14.4-10c-3.2-0.5-7.7,1.1-9.5,3.8
		c-1.7,2.6-0.8,4.9,0.8,6.8c3.2,3.9,8,5.5,12.6,6.8c4.7,1.2,9.5,1.8,14.5,1.7c19.3-0.3,22.9-0.9,38.9-6.2c9.1-3,17.2-7.9,24.7-13.8
		c6.8-5.3,12.7-11.7,18-18.6c2.8-3.7,3-4.7,0.3-8c-9.7-12.1-21.7-21-36.2-26.8c-7.3-2.9-14.8-5.5-22.5-6.7c-6.9-1.1-14-0.8-21,1
		c-4,1.1-5.1,0.2-3.8-3.8c3.4-10.5,4.1-21.2,2.9-32c-1.2-11.2-5.9-21.3-12.2-30.4c-6.9-9.9-15.7-18.2-26.2-24.5
		c-2.1-1.2-3.4-1.4-5.4,0.4c-12.2,10.8-18.8,24.7-22.4,40.1c-3.3,14.2-4.9,28.6-6.2,43.1c-1.3,14.2-2.6,28.4-2.6,42.7
		c0,1.4-0.1,2.8,0.4,4.2"/>
	<path class="st0" d="M319.9,110.8c-5.1,7.4-12.6,11.6-20.2,15.6c-4.4,2.3-9.2,3.3-14.1,4.2c-1.3,0.3-2.6-0.1-3.8-0.4
		c-2.8-0.7-3.3-2.6-1.9-5.3c2.1-4.1,5.9-6.1,9.6-8.3c7.9-4.8,16.5-7.5,25.9-6.9c1.3,0.1,2.6-0.1,3.8,0.6c1.2,0.6,2.3,0,3-0.9
		c8.6-10.7,15.3-22.4,18.2-35.9c1.5-6.8,1.4-13.9,0.5-20.9c-1.7-14.6-6.4-28.5-10.9-42.4c-0.9-2.6-1.9-3.1-4.3-3.5
		c-5.3-0.8-10.5,0.1-15.6,1c-10.6,1.8-21,4.5-30.5,9.8c-19.7,11-31.4,27.6-35.2,49.9c-0.5,2.6,0.4,5.7-1.8,8"/>
	<path class="st0" d="M244,82.2c-1.6,3.2-0.6,6.6-0.3,9.9c0.7,6.4,1.7,12.8,4.5,18.7c0.7,1.5,1.7,2.8,2.6,4.2c0.9,1.4,2,2.2,3.5,1.8
		c1.8-0.5,1.9-2.1,2-3.8c0.3-5.8-0.6-11.5-2.9-16.7c-2.3-5.2-3.3-11.4-9-14.6c-0.4-0.2-0.4-0.5-0.4-0.8c-1.8-8.6-9.5-12.1-15.3-17.1
		c-9.2-8-20.1-12.6-32-15.4c-6.3-1.5-12.7-2.6-19.1-2.8c-13.1-0.4-26.2-0.2-39.3,1.3c-6.7,0.8-13.4,1.3-20.2,1.6
		c-1.2,0.1-2.3,0.6-3.4,0.8c-2.9,0.4-3.6,2-2.7,4.6c2.9,7.8,5.5,15.7,8.8,23.2c4.6,10.3,9.7,20.4,16.7,29.4
		c3.4,4.4,7.4,8.1,11.4,11.8c1.1,1,2.4,1.8,2.7,3.4"/>
	<path class="st0" d="M411.4,217.2c-7.5-2.7-13.1-8.5-19.4-13c-9.1-6.5-18.8-12-29.8-14.3c-5.4-1.1-11.2-1.4-16.7-0.8
		c-6.3,0.7-12.5,1.6-18.7,3c-4.1,1-4.4,1.8-3.1,5.7c8.2,23.2,21.7,42.9,40.1,59c9.7,8.5,21.2,14.1,33.9,16.8
		c5.5,1.1,11.2,0.4,16.8,0.5"/>
	<path class="st0" d="M256.2,327.7c4,0.4,7.4-1.8,11-2.8c7.8-2,15.7-2.2,23.7-1.4c12.8,1.2,24.6,6,36.2,11.1
		c7.6,3.4,15.2,7,22.6,10.9c2.9,1.5,2.5,2.9,1.1,5c-5.5,8.4-11.9,15.9-19,22.9c-7.7,7.5-15.8,14.4-26,18.2
		c-10.1,3.8-20.4,4-30.9,1.2c-2.9-0.8-5.7-2-8.8-1.9c-3.4,0-4,0.8-4.2,4.2c-0.4,9.1,1.5,18,2,27.1c0.9,17.7-1.9,34-13.7,48.1
		c-4.8,5.7-10.1,10.6-16.5,14.4c-3.7,2.3-4.7,2.2-6.8-1.5c-7.3-13-13.6-26.4-16.4-41.2c-0.6-3.2-0.4-6.5-1.9-9.5"/>
	<path class="st0" d="M254.7,148.5c-3.9-2.3-8.5-2-12.6-3.5c-3.1-1.2-6.5-2.2-7.9-6.2c1.7-5.3,6.8-6.9,11.8-7.2
		c4.4-0.3,8.6,1.5,11.1,5.9c1.1,2,1.3,7.2-0.8,9.9c-7.8,10.1-14.2,20.9-18.4,33.1c-4.2,11.8-6.9,23.8-5.5,36.3
		c1,9.1,4.3,17.6,8.7,25.5c1.7,3,3.7,5.9,5.7,8.8c2.7,3.8,4.8,4,8.3,0.8c8.9-8.1,16-17.6,22.1-27.8c3.5-5.8,6.3-11.9,7.7-18.7
		c1.2-5.4,0.8-10.7-0.2-16c-0.2-0.8-0.5-1.8-0.6-2.7c-0.3-2.6-1.8-2.9-4.2-3.1c-9.5-1.1-18.7-3.5-25.5-11c-2.8-3.1-2.1-7,1.5-8.3
		c1.5-0.5,3,0.3,4.6,0.7c9.4,2.5,15.8,8.6,20.9,16.5c0.2,0.4,0,1,0,1.5"/>
	<path class="st0" d="M253.5,331.5c0.8,4.2-1.3,7.4-3.9,10.2c-0.9,1-2.3,1.4-3.8,0.1c-1.4-1.2-2.2-3-1.4-4.2c2-2.8,3.9-6,7.9-6.6
		c2.4-0.3,3.1-2,3.3-4.2c1.4-16.1-2.8-31.2-9.1-45.7c-3.7-8.7-9.5-16.3-16.7-22.5c-4.4-3.8-7.3-3.7-11.8,0.4
		c-8.2,7.6-14.5,16.6-19.5,26.6c-4.1,8-7.1,16.4-8.2,25.2c-1.2,9.4-0.9,18.9,1.8,28.2c0.5,1.8,0.6,3.4-0.4,5"/>
	<path class="st0" d="M229.1,167.2c-5.5,16.4-13.2,31.9-16.1,49.2c-0.7,4-1,7.9-0.5,11.8c0.4,3.8,2.9,6.5,6,8.8
		c5.3,3.9,10.8,7.6,15.3,12.5c10.7,11.6,18.9,24.8,25.9,38.9c4.7,9.5,7.4,19.6,9.9,29.8c0.4,1.8-0.2,3.9,0.8,5.7"/>
	<path class="st0" d="M0,321.2c10,3,19.6,7.1,29.4,10.7c16.9,6.1,33.7,12.2,50.7,18c14.3,4.9,28.9,8.9,43.5,12.7
		c2,0.5,4.4,1.2,6.8,0.6c2.9-0.6,4.8,2.7,7.6,2.9"/>
	<path class="st0" d="M138.4,366.2c1.5,0.6,2.7,0.9,4.6,0.6c4.8-0.9,9.6,0.7,14.4,1c10.2,0.7,20.4,1.4,30.5-0.9
		c6.4-1.4,7.4-3.1,7.3-9.9c0-0.5,0.5-1,0.7-1.5"/>
	<path class="st0" d="M190.6,343.7c-3.3-3.1-4.9-7.4-7.1-11.1c-13.4-22-32.7-35.3-57.7-40.7c-5.2-1.1-7.1,0-7.9,5.3
		c-1.5,9.6-2.2,19.2-0.9,29c1.3,10.2,4,19.7,9.2,28.6c1.6,2.7,4.3,4.7,5.1,7.9"/>
	<path class="st0" d="M165.7,377.3c-1.7,3.5-5.2,4.5-8.2,6c-7.8,4-14.5,9.2-18.2,17.3c-2.9,6.3-4.1,13.2-4.7,20.2
		c-0.6,7.2-0.7,14.5,0,21.7c1,10.4,3.9,20.1,9.5,29c1.5,2.4,3.7,2.4,5.4,1.8c13.5-5.4,26.6-11.3,38.2-20.4
		c7.7-6.1,13.2-14.3,20.5-20.7c0.1-0.1,0-0.3,0-0.4c3.8-9.6,11.4-17.3,14-27.5c0.8-3.3,1.9-6.7,2-10.3c0-1.6-0.3-3.1-1.6-3.7
		c-1.4-0.7-2.2,0.7-3.1,1.8c-4.3,5.4-5.9,12-7.9,18.4c-1,3.4-1.6,7-1.7,10.6c-0.1,1.4,0.6,2.1,0.9,3.1"/>
	<path class="st0" d="M196.4,354.4c1.6,0.9,2.9,2.2,3.8,3.8c2,3.5,4.7,6.5,7.6,9.1c2.4,2.1,4.5,4.5,8.4,4.4c2.4,0,4.3,2.5,6.5,3.6"
		/>
	<path class="st0" d="M229.1,375.8c5.5-0.7,11-1.2,16.1-4.1c4.7-2.7,7.8-6.4,8.6-11.6c0.6-4-2.3-7.1-5.3-9
		c-7.1-4.5-15.4-6.8-23.5-5.2c-11.5,2.2-13.7,10.6-9.9,20.3c0.7,1.8,2.1,3.3,1.5,5.4"/>
	<path class="st0" d="M370.6,177.1c-4.8,2.5-10.1,3-15.3,4.1c-7.7,1.7-15.4,3.1-23.2,3.8c-10.8,1-21.5,1.7-32.4,1
		c-5.2-0.3-10.4-1.4-15.6-0.9"/>
	<path class="st0" d="M269.9,324.7c2,10.3,2.6,20.7-0.2,30.8c-3.3,12.1-12.4,18.9-23.9,23c-4.7,1.7-9.4,1.6-14.1,1.4
		c-1.9-0.1-3.7-0.8-4.2-3"/>
	<path class="st0" d="M410.2,216c1.9-4-1.8-6-3.6-8.3c-7.5-10-17.2-17.9-27-25.5c-9.2-7.1-18.8-13.8-29.2-19.2
		c-9.7-5-19.7-8.1-30.5-9.1c-11.6-1.1-23.1-1.9-34.7-2.7c-8.9-0.6-17.8-1.9-26.7-3c-0.5-0.1-1-0.5-1.5-0.7"/>
	<path class="st0" d="M322.5,109.6c0.8,2.3,3.1,1.6,4.6,2.1c9.2,3.2,16.7,8.9,23.9,15.1c11.5,9.9,21.8,20.9,31,33.1
		c0.1,0.1,0.3,0.2,0.4,0.4c6.9,10.2,4.7,12.5-5,15.6c-1.1,0.3-1.9,0.9-2.6,1.6"/>
	<path class="st0" d="M491.1,314c0.6,4.8,2.5,9.4,3.6,14.1c2.2,9.1,2.9,18.3,3.6,27.5c0.1,1.9-0.2,3.9,1.5,5.3"/>
	<path class="st0" d="M141.8,367.8c2.4,4.2,7,3.6,10.7,4.8c2.8,0.9,5.8,1.4,8.7,1.8c2,0.3,3.8,1.7,5.7,2.6"/>
	<path class="st0" d="M428.7,318.6c-0.9,8-5.9,12.9-12.4,16.8"/>
	<path class="st0" d="M483.8,237.7c-0.5,6.3-4.3,10.6-8.8,14.4c-0.6,0.5-2.3,0.6-3.3-0.3c-0.9-0.8-1.2-1.6-0.9-3.1
		c1-4.7,5-6.7,8-9.6c2.3-2.2,6.4-1.3,7.7-4.9"/>
</g>
</svg>
