<?xml version="1.0" encoding="utf-8"?>
<!-- Generator: Adobe Illustrator 23.1.0, SVG Export Plug-In . SVG Version: 6.00 Build 0)  -->
<svg version="1.1" id="Layer_1" xmlns="http://www.w3.org/2000/svg" xmlns:xlink="http://www.w3.org/1999/xlink" x="0px" y="0px"
	 viewBox="0 0 500 500" style="enable-background:new 0 0 500 500;" xml:space="preserve">
<style type="text/css">
	.st0{fill:#FFFFFF;}
	.st1{fill:#52312C;}
</style>
<g>
	<path class="st0" d="M350,360.7H91.9c-9.1,0-16.5-7.4-16.5-16.5V75.8c0-9.1,7.4-16.5,16.5-16.5H350c9.1,0,16.5,7.4,16.5,16.5v268.4
		C366.5,353.3,359.1,360.7,350,360.7z"/>
	<path class="st1" d="M2.5,275.1c1.3,0,1-1,0.9-1.7c-0.4-6,2.4-10.7,6.4-14.8c5-5,11.2-8.6,17-12.6c6.1-4.1,12-8.5,18-12.7
		c2.7-1.9,5.6-3.6,8.4-5.5c5.3-3.6,10.5-7.3,16.1-11.2c0-1.1,0-2.6,0-4c0-48.5,0-97,0-145.5c0-7,3.3-13.1,9.2-17.4
		c1.8-1.4,3.2-3.3,5.7-3.8c3.7-0.9,7.4-2,11.3-1.9c75.7,0.1,151.4,0.1,227,0.1c8.2,4.5,8.1,10.6,1,15.5c-1.5,0-3.1,0-4.7,0
		c-72.1,0-144.3,0-216.4,0c-4.4,0-8.9-0.7-13.7,1.4c-0.3,0.3-1.1,1.1-1.9,1.9c-1.3,1.4-2.1,3-2,5c0,0.5,0,1,0,1.4
		c0,74.8,0,149.5,0,224.3c0,0.5,0,1,0,1.4c30,15,60,29.9,90.4,45.1c1.5-1.1,3.2-2.4,4.8-3.8c3.3-2.8,6.4-5.9,10.2-8.2
		c0.5-0.3,0.9-0.9,1.4-1.4c3.5-3.6,7.5-6.5,11.5-9.6c2.5-1.9,4.6-4.2,7.1-6.2c5.5-4.4,11.6-6.5,18.4-5.7c4.8,0.6,9.1,2.6,13.1,5.9
		c5.2,4.3,9.9,9,15.5,12.8c2.6,1.8,4.5,4.3,7.1,6.2c3.9,2.9,7.4,6.4,11.4,9.9c0.6-0.2,1.4-0.4,2.2-0.8
		c29.1-14.6,58.3-29.2,87.4-43.7c0.4-0.2,0.9-0.2,1.4-0.3c0-33.9,0-67.7,0-101.3c1.3-2.5,2.4-4.9,5.4-5.6c4.5-0.8,8.2,0.4,10.1,5.6
		c0,7.2,0,14.9,0,22.8c6.7,4.6,13.5,9.2,20.3,13.9c5.1,3.6,10.2,7.3,15.3,10.9c3.2,2.2,6.8,4.1,9.8,6.6c4.9,3.8,10.6,6.5,14.8,11.2
		c2.6,3,5.6,9.7,5.6,13.6c0,67.5,0,135,0,202.5c0,4.6-1.6,8.7-4.9,11.9c-2.5,2.4-4.5,5.4-7.8,6.8c-2.8,1.2-5.5,2.6-8.7,2.3
		c-0.7-0.1-1.7-0.4-1.7,0.9c-132.7,0-265.4,0-398,0c0-1.3-1-1.1-1.7-0.9c-2.1,0.4-4-0.4-5.8-1c-9.3-3.4-15-10.6-15.7-20.5
		c-0.1-0.7,0.3-1.7-1-1.7C2.5,407.3,2.5,341.2,2.5,275.1z M220.3,322.2c-2.9,2.6-6.1,5.9-9.8,8.6c-5.4,4-10.2,8.7-15.5,12.8
		c-3.3,2.5-6,5.7-9.3,8.1c-2.6,1.8-4.6,4.3-7.1,6.2c-3.9,2.9-7.7,5.8-11.1,9.3c-0.6,0.6-1,1.3-1.7,1.7c-3.5,1.8-5.9,5-9.1,7.3
		c-3.2,2.3-5.7,5.5-9,7.7c-2.5,1.7-4.3,4.2-6.8,5.9c-5.5,3.7-10,8.4-15.1,12.4c-4.2,3.3-8.1,6.9-12.3,10.2
		c-4.4,3.5-8.6,7.2-12.9,10.9c-4,3.5-8,7-12.2,10.3c-5.6,4.5-10.9,9.5-16.4,14.3c-0.5,0.4-0.8,1-1.4,1.3c-3.5,2-6.3,5-9.4,7.6
		c-2.3,1.9-4.4,4-6.8,5.7c-1,0.8-2.5,1-3.8,1.2c-1.4,0.2-2.9,0-4.5,0c-1.4-1.8-2.8-3.7-3.9-5.2c0-2.1,0-3.7,0-5.3
		c3.5-2.9,6.3-6.2,9.9-9c5.7-4.4,10.9-9.5,16.4-14.2c2.2-2,4.3-4.2,6.9-5.7c2-1.2,3.3-2.8,5-4.2c1.7-1.4,3.4-2.7,5.1-4.1
		c3-2.6,5.7-5.5,8.9-7.8c5.4-3.7,9.9-8.5,15.1-12.4c4.2-3.2,8.1-6.9,12.2-10.2c4.4-3.5,8.5-7.4,12.9-10.9c3.3-2.6,6.1-6.1,9.6-8.4
		c2.9-1.9,5-4.6,7.9-6.4c3.7-2.4,6.7-5.8,10.1-8.9c-0.8-0.6-1.3-1.1-1.8-1.3c-10.6-5.2-21.2-10.3-31.8-15.6
		c-7.6-3.8-15.1-7.9-22.9-11.3c-2.6-1.1-5-2.8-7.5-4c-5-2.4-10-4.6-15-7c-20.9-10.1-41.5-20.6-62.2-31c-0.6-0.3-1.2-0.5-2.1-0.9
		c0,65.7,0,130.9,0,196.1c0.8,2.9,3.2,4,5.6,5.2c132.7,0,265.3,0,398,0c0.8,0,1.6,0,2.4,0c2.6,0.2,4.4-1.2,6-3
		c0.6-0.7,0.9-1.6,1.3-2.5c0-65,0-130.2,0-196c-1.7,0.6-3.1,0.9-4.4,1.5c-45.2,22.5-90.4,45.1-135.6,67.7c-1.2,0.6-2.2,1.4-3.5,2.3
		c2.9,2.4,5.6,4.7,8.2,6.9c2.9,2.5,5.5,5.3,8.5,7.5c5.3,3.8,10,8.4,15.1,12.5c4.2,3.3,8.1,6.9,12.2,10.2c5.5,4.4,10.7,9.3,16,14
		c2.4,2.1,4.6,4.3,7.2,6.1c5.5,3.9,10.2,8.7,15.5,12.7c3.3,2.5,5.9,5.7,9.3,8.1c2.6,1.8,4.6,4.3,7.1,6.2c3.9,2.9,7.7,5.8,11.1,9.3
		c0.6,0.6,1,1.4,1.7,1.7c3.1,1.1,4.6,3.9,6.7,5.9c1.4,1.3,2.5,3.6,1.3,5.5c-1.4,2.2-1.6,5.5-5.1,6c-4.8,0.2-7-0.4-10.4-3.5
		c-4.1-3.9-8.5-7.4-12.9-10.9c-3.6-2.9-6.8-6.1-10.2-9.2c-0.4-0.3-0.6-0.8-1-1c-3.7-2.4-6.9-5.4-10.1-8.2c-2.7-2.4-5.3-5-8.2-7.1
		c-5.4-3.9-10.2-8.7-15.5-12.7c-3.3-2.5-6-5.7-9.3-8.1c-2.6-1.8-4.6-4.3-7.1-6.2c-3.9-2.9-7.7-5.8-11.1-9.3c-0.6-0.6-1-1.3-1.7-1.7
		c-3.5-1.8-5.9-5-9.1-7.3c-3.2-2.3-5.8-5.4-8.9-7.7c-5.3-3.8-10-8.4-15.1-12.5c-4.2-3.3-8.2-6.8-12.2-10.2
		c-4.3-3.7-8.5-7.3-12.9-10.9c-5.2-4.3-10.2-8.9-15.4-13.2c-2.5-2.1-5.4-3.6-8.9-3C222.8,320.8,221.9,321.5,220.3,322.2z M69.1,236
		c-1.6,0.9-3,1.6-4.2,2.4c-4.3,2.9-8.5,5.9-12.8,8.8c-7.5,5.2-15,10.4-22.5,15.7c-1.2,0.8-3.2,0.8-3.1,3.1c7,3.5,14.1,6.9,21.2,10.5
		c7,3.5,13.9,7.2,21.3,10.4C69.1,269.8,69.1,253.2,69.1,236z M425.3,265.7c-3.9-2.9-7.2-5.6-10.8-7.8c-3.6-2.2-6.9-4.9-10.6-7
		c-3.9-2.1-7.1-5.3-10.9-7.7c-3.6-2.2-6.5-5.4-10.6-6.9c-0.8,8.5-0.6,47.2,0.3,50.6C396.8,279.9,410.8,272.9,425.3,265.7z"/>
	<path class="st1" d="M447,2.5c0,1.3,1,0.9,1.7,1c2,0.2,3.9,0.4,5.9,0.8c5.3,1.1,9.5,3.9,13.5,7.3c5.7,5,9.3,11.6,13.6,17.6
		c4,5.7,8.1,11.4,11.8,17.3c2.2,3.5,3.6,7.3,3.8,11.5c0.1,1.9-0.1,3.9,0.1,5.8c0.5,5.1-1.2,9.7-3.4,14.1c-2.3,4.4-5.5,8-9.7,11
		c-4.2,3.1-8.7,5.6-12.8,8.8c-4,3.1-8.5,5.5-12.4,8.6c-4.1,3.2-8.7,5.7-12.8,8.8c-4,3.1-8.4,5.5-12.4,8.6c-4.1,3.2-8.7,5.7-12.8,8.9
		c-4,3.1-8.4,5.5-12.4,8.6c-5,3.8-10.5,6.9-15.4,10.6c-4.2,3.1-8.7,5.7-12.8,8.8c-4,3.1-8.4,5.5-12.4,8.6c-4.1,3.2-8.7,5.7-12.8,8.9
		c-4,3.1-8.4,5.6-12.4,8.5c-8.3,6-16.8,11.6-25.2,17.5c-5.7,4.1-11.6,8-17.3,12.1c-7.5,5.4-15.6,10.1-23,15.7
		c-5.8,4.3-11.9,8.1-17.7,12.4c-6.1,4.5-12.4,8.8-18.8,13c-2.3,1.5-5,2.9-7.7,3.5c-6.1,1.2-12.2,2.7-18.2,4.1
		c-5.8,1.4-11.7,2.5-17.4,4.6c-3.1,1.1-6.6,1.3-9.8,2c-6,1.5-12,3-18,4.5c-3.7,0.9-7.4,1.8-11.2,2.4c-4.2,0.7-8.5,2.1-12.7,3.2
		c-5.3,1.4-10.1,0.4-14.1-3.4c-1.1-1-2.1-2-3.1-3.1c-2.4-2.6-3.1-8.1-2.7-11.5c0.6-4.6,3.4-7.8,5.7-11.2c6.1-8.9,12-17.9,18.2-26.8
		c4.9-7,9.4-14.2,14.4-21.1c5.1-7,9.7-14.4,14.6-21.5c2-2.9,5-5.1,7.9-7.4c6.8-5.3,14.4-9.4,21-14.8c2.9-2.4,6.4-4.1,9.4-6.3
		c5-3.8,10.5-6.8,15.4-10.8c2.8-2.3,6-4.1,9-6.2c5.5-3.9,11.3-7.3,16.5-11.6c2.9-2.4,6.4-4.1,9.5-6.3c5.2-3.6,10.2-7.3,15.3-10.9
		c3-2.1,6.1-4,9.1-6.2c5.5-3.9,11.3-7.3,16.5-11.5c3.8-3,8.1-5.4,12.1-8.2c4.2-3,8.7-5.7,12.8-8.9c3.9-3.1,8.4-5.6,12.4-8.5
		c5.1-3.6,10.5-6.8,15.4-10.7c3.1-2.4,6.6-4.4,9.8-6.7c5.1-3.7,10.5-6.8,15.4-10.7c3.1-2.4,6.6-4.3,9.8-6.7
		c5-3.7,10.4-6.9,15.4-10.7c4.1-3.1,8.7-5.6,12.8-8.6c2.8-2.1,5.8-3.9,8.9-5.4c2.9-1.3,5.8-2.6,9.2-2.4c1,0.1,2.6,1,3.2-0.9
		C446.4,2.5,446.7,2.5,447,2.5z M236.6,240.5c0.8-0.2,1.5-0.1,2-0.4c6.5-4.5,13.1-9,19.5-13.7c5.6-4,11.3-7.8,16.9-11.8
		c8.3-5.9,16.9-11.4,25.1-17.5c4.5-3.3,9.5-6,14-9.3c4.7-3.5,9.6-6.6,14.3-10c8.3-6,16.7-11.7,25.2-17.4
		c9.2-6.3,18.4-12.5,27.4-18.9c2-1.4,4-2.6,5.8-3.7c-0.4-1-0.6-1.8-1-2.4c-5.9-7.6-10.9-15.8-16.7-23.6
		c-5.3-7.2-10.1-14.8-15.1-22.2c-1.7-2.5-3-5.4-5.9-6.9c-4.2,3-8.3,6-12.5,8.8c-3.2,2.2-6.6,4.2-9.9,6.5
		c-5.1,3.6-10.2,7.3-15.3,10.9c-3.2,2.3-6.6,4.3-9.9,6.5c-5.1,3.6-10.2,7.3-15.3,10.9c-3.2,2.3-6.6,4.3-9.9,6.5
		c-5.1,3.6-10.2,7.3-15.3,10.9c-4.2,2.9-8.8,5.5-12.8,8.6c-5,3.8-10.4,7-15.4,10.7c-3,2.3-6.4,4.1-9.4,6.3
		c-7.1,5.3-14.3,10.4-21.8,15c-1.1,0.7-1.8,1.8-1.6,2.6c4.2,5.9,8,11.2,11.8,16.6c2.2,3.2,4.1,6.7,6.5,9.8
		c4.6,5.9,8.4,12.3,12.9,18.3C232.3,234.6,233.7,238.1,236.6,240.5z M395.7,50.1c3.7,5.4,7.2,10.4,10.6,15.4
		c2.8,4.1,5.3,8.5,8.4,12.4c2.4,3,4.4,6.2,6.4,9.4c2.1,3.2,4.7,6,6.6,9.4c1.6,3,4,5.6,6.1,8.3c2.1-1.4,4.1-2.3,5.7-3.7
		c5.9-4.7,12.4-8.3,18.4-12.8c6-4.5,12.5-8.3,18.3-13.1c3.9-3.3,5.7-6.8,5.7-11.6c0-2.2,0-4.5,0-7c-2.4-3.6-5.1-7.3-7.5-11.1
		c-4.4-6.9-9.6-13.3-13.8-20.3c-1.7-2.7-4.6-4.3-7.7-5.6c-3.6-1.4-7.2-0.5-10.8-0.8c-1.1-0.1-2.4,0.5-3.4,1.1
		c-3.2,2.1-6.3,4.3-9.4,6.5c-7,4.9-14.1,9.7-21,14.6C404,44.1,399.9,47.1,395.7,50.1z M400.1,128.4c7.4-5.1,14.1-9.8,20.9-14.5
		c-1.6-2.5-3-5-4.8-7.2c-4-4.9-7-10.3-10.8-15.4c-3-4-5.3-8.5-8.4-12.4c-4.9-6.2-8.8-13.1-13.9-19.5c-4.3,0.8-7.1,4.4-10.7,6.6
		c-3.7,2.2-7.2,4.9-10.7,7.4c0.8,1.3,1.3,2.2,1.9,3.1c2.7,4,5.5,8,8.2,12.1c2,2.9,3.7,5.9,5.8,8.7c5.3,7.1,10.3,14.3,15.1,21.8
		C395,122.3,397.7,125.3,400.1,128.4z M221.8,246.6c-1.3-1.6-2.4-2.9-3.4-4.3c-2.8-4.1-5.3-8.5-8.2-12.5c-5.9-7.9-11.3-16.2-17-24.3
		c-1.7-2.4-2.9-5.5-6-6.9c-6.8,9.9-13.5,19.7-20.1,29.4c7.1,9,12.6,19.1,19.5,27.5c6.3-1.2,11.9-2.7,17.6-4.2
		C210,249.8,215.8,248.7,221.8,246.6z M157.8,241.6c-5.8,8.5-11.3,16.5-17.2,25.1c10.3-2.5,19.9-4.8,29.8-7.1
		C166.1,253.6,162.2,248,157.8,241.6z"/>
	<path class="st1" d="M111.2,96.8c-0.4-1.2-0.7-2.2-1.2-3.7c0.4-2.8,2.6-5.2,5.3-7.4c51.1,0,102.4,0,153.8,0
		c2.3,1.1,4.5,2.5,5.2,5.3c1.2,5.2-1.1,8.5-7,10.2c-48.2,0-97.2,0-146.2,0.1C117,101.2,113.4,100.4,111.2,96.8z"/>
	<path class="st1" d="M116.1,134c-1.6-1.2-3.3-2.6-4.8-3.8c-0.4-1.4-0.7-2.6-1.2-4.1c0.2-0.7,0.6-1.8,1.3-3.8c1-0.9,2.8-2.4,4.4-3.7
		c29.3,0,58.3,0,87.3,0c1,0.7,1.9,1.4,3.6,2.6c1.9,2.9,3.6,6.6-0.1,10.3c-1.1,0.8-2.3,1.6-3.6,2.4C174.4,134,145.3,134,116.1,134z"
		/>
	<path class="st1" d="M251.4,277.6c0-1.9,0-3.9,0-6.2c1.2-1.2,2.7-2.7,3.9-3.9c27.2,0,53.9,0,80.8,0c1.3,1.4,2.7,3,4.5,4.9
		c-0.1,1.5,0,3.6-0.5,5.6c-0.6,2.4-4.6,4.9-7.4,5c-1.3,0.1-2.6,0-3.9,0c-22.5,0-45.1-0.1-67.6,0.1c-2.8,0-5-1.2-7.4-2.2
		C252.8,280.3,252.2,278.7,251.4,277.6z"/>
	<path class="st1" d="M115.3,166.9c-1.3-1.4-2.6-2.7-4.1-4.3c-0.3-0.9-0.6-2-1-3.5c0.2-0.6,0.6-1.8,1.3-3.8c1.1-0.9,2.8-2.4,4.5-3.8
		c14.4,0,28.6,0,42.7,0c1.6,0,3.3,0.6,5.4,1.1c0.9,1.2,2,2.7,3,4c0.7,4.8-0.6,8.4-5.7,10.4C146.3,166.9,130.9,166.9,115.3,166.9z"/>
	<path class="st1" d="M304.7,248.6c-1-1-2.3-2.3-3.8-3.8c0-1.9,0-4,0-6c1.3-1.3,2.7-2.7,3.5-3.5c4.1-2.1,7.9-1.6,11.6-1.7
		c4.8,0,9.7,0.1,14.5,0c2.7-0.1,5,1.1,7.4,2.1c1.1,0.4,1.7,2.1,2.5,3.3c0,1.8,0,3.8,0,5.9c-1.3,1.2-2.7,2.5-4.4,4
		c-4.7,1.7-10.1,1.2-15.4,1.2C315.4,250,310.2,250.5,304.7,248.6z"/>
	<path class="st0" d="M220.3,322.2c1.5-0.7,2.4-1.3,3.4-1.5c3.5-0.7,6.4,0.9,8.9,3c5.2,4.3,10.1,9,15.4,13.2
		c4.4,3.6,8.6,7.2,12.9,10.9c4,3.5,8.1,6.9,12.2,10.2c5.1,4,9.8,8.6,15.1,12.5c3.2,2.3,5.8,5.4,8.9,7.7c3.2,2.3,5.5,5.5,9.1,7.3
		c0.7,0.3,1.2,1.1,1.7,1.7c3.4,3.5,7.3,6.4,11.1,9.3c2.5,1.9,4.5,4.3,7.1,6.2c3.3,2.3,6,5.6,9.3,8.1c5.3,4,10.1,8.8,15.5,12.7
		c2.9,2.1,5.5,4.7,8.2,7.1c3.3,2.9,6.5,5.8,10.1,8.2c0.4,0.3,0.7,0.7,1,1c3.4,3.1,6.7,6.3,10.2,9.2c4.4,3.5,8.8,7.1,12.9,10.9
		c3.3,3.2,5.6,3.7,10.4,3.5c3.5-0.5,3.8-3.7,5.1-6c1.2-1.9,0-4.1-1.3-5.5c-2.1-2.1-3.6-4.9-6.7-5.9c-0.7-0.2-1.2-1.1-1.7-1.7
		c-3.4-3.5-7.2-6.4-11.1-9.3c-2.5-1.9-4.5-4.4-7.1-6.2c-3.3-2.3-6-5.6-9.3-8.1c-5.3-4.1-10-8.8-15.5-12.7c-2.5-1.8-4.8-4-7.2-6.1
		c-5.3-4.7-10.5-9.5-16-14c-4.1-3.3-8.1-6.9-12.2-10.2c-5.1-4.1-9.8-8.7-15.1-12.5c-3.1-2.2-5.7-5-8.5-7.5c-2.6-2.3-5.3-4.5-8.2-6.9
		c1.3-0.9,2.3-1.7,3.5-2.3c45.2-22.6,90.4-45.1,135.6-67.7c1.3-0.6,2.7-0.9,4.4-1.5c0,65.8,0,131,0,196c-0.5,0.9-0.7,1.8-1.3,2.5
		c-1.6,1.8-3.4,3.1-6,3c-0.8-0.1-1.6,0-2.4,0c-132.7,0-265.3,0-398,0c-2.4-1.2-4.7-2.3-5.6-5.2c0-65.2,0-130.4,0-196.1
		c0.9,0.4,1.5,0.6,2.1,0.9c20.7,10.4,41.3,20.9,62.2,31c5,2.4,10,4.6,15,7c2.6,1.2,4.9,2.9,7.5,4c7.8,3.4,15.3,7.4,22.9,11.3
		c10.5,5.3,21.2,10.4,31.8,15.6c0.5,0.3,1,0.7,1.8,1.3c-3.4,3.1-6.4,6.5-10.1,8.9c-2.9,1.9-5,4.6-7.9,6.4c-3.6,2.3-6.3,5.7-9.6,8.4
		c-4.4,3.5-8.5,7.4-12.9,10.9c-4.1,3.3-8,7-12.2,10.2c-5.2,4-9.7,8.7-15.1,12.4c-3.2,2.2-5.9,5.2-8.9,7.8c-1.6,1.4-3.4,2.7-5.1,4.1
		c-1.7,1.4-3,3.1-5,4.2c-2.5,1.5-4.6,3.7-6.9,5.7c-5.4,4.8-10.7,9.8-16.4,14.2c-3.6,2.7-6.4,6.1-9.9,9c0,1.6,0,3.2,0,5.3
		c1.1,1.5,2.5,3.3,3.9,5.2c1.6,0,3.1,0.2,4.5,0c1.3-0.2,2.8-0.5,3.8-1.2c2.4-1.8,4.5-3.9,6.8-5.7c3.2-2.5,5.9-5.5,9.4-7.6
		c0.5-0.3,0.9-0.9,1.4-1.3c5.4-4.8,10.7-9.8,16.4-14.3c4.1-3.3,8.1-6.8,12.2-10.3c4.3-3.7,8.5-7.4,12.9-10.9
		c4.2-3.3,8.1-6.9,12.3-10.2c5.1-4.1,9.7-8.8,15.1-12.4c2.5-1.6,4.2-4.1,6.8-5.9c3.2-2.2,5.8-5.4,9-7.7c3.1-2.3,5.5-5.5,9.1-7.3
		c0.7-0.4,1.2-1.1,1.7-1.7c3.4-3.5,7.2-6.4,11.1-9.3c2.5-1.9,4.5-4.3,7.1-6.2c3.3-2.3,6-5.6,9.3-8.1c5.3-4,10.1-8.8,15.5-12.8
		C214.2,328.1,217.4,324.8,220.3,322.2z M261.1,371.8c-1.7-1.7-3.5-3.9-5.6-5.7c-1.5-1.3-3.2-2.3-4.9-3.2c-6.2-3.5-12.7-6.2-20-6.5
		c-2.9-0.1-5.8,0.1-8.7,0c-6-0.2-11.4,1.9-16.6,4.2c-5.7,2.5-10.7,6.1-14.8,10.9c0,1.9,0,3.8,0,4.9c1.2,4.4,4.5,4.9,7.1,6.2
		c3-0.7,5.6-1.8,7.5-3.6c2.3-2.2,5.1-3.4,7.8-4.6c2.4-1.1,5.1-2.2,7.7-2.3c4.5-0.2,9.1-0.5,13.6,0.8c3.8,1,7.3,2.6,10.7,4.6
		c2.5,1.5,4.7,3.5,6.7,5c4.9,0.7,7.8-1.2,9.7-5.6C261.1,375.5,261.1,373.9,261.1,371.8z"/>
	<path class="st0" d="M69.1,236c0,17.2,0,33.8,0,50.9c-7.3-3.3-14.3-6.9-21.3-10.4c-7-3.5-14.1-7-21.2-10.5
		c-0.2-2.3,1.9-2.2,3.1-3.1c7.5-5.3,15-10.5,22.5-15.7c4.2-3,8.5-5.9,12.8-8.8C66.2,237.6,67.5,236.9,69.1,236z"/>
	<path class="st0" d="M425.3,265.7c-14.5,7.3-28.5,14.2-42.5,21.2c-0.9-3.3-1.1-42.1-0.3-50.6c4.2,1.4,7.1,4.7,10.6,6.9
		c3.8,2.3,7,5.5,10.9,7.7c3.7,2.1,7,4.8,10.6,7C418.2,260,421.4,262.8,425.3,265.7z"/>
	<path class="st0" d="M236.6,240.5c-2.9-2.4-4.3-5.8-6.5-8.8c-4.5-6-8.3-12.4-12.9-18.3c-2.4-3.1-4.3-6.6-6.5-9.8
		c-3.7-5.4-7.6-10.7-11.8-16.6c-0.2-0.8,0.5-1.9,1.6-2.6c7.6-4.6,14.7-9.8,21.8-15c3-2.3,6.4-4.1,9.4-6.3c5-3.7,10.4-6.9,15.4-10.7
		c4.1-3.1,8.6-5.7,12.8-8.6c5.2-3.6,10.2-7.3,15.3-10.9c3.2-2.2,6.6-4.3,9.9-6.5c5.1-3.6,10.2-7.3,15.3-10.9
		c3.2-2.2,6.6-4.3,9.9-6.5c5.1-3.6,10.2-7.3,15.3-10.9c3.2-2.2,6.6-4.3,9.9-6.5c4.2-2.9,8.2-5.8,12.5-8.8c2.9,1.5,4.2,4.4,5.9,6.9
		c5.1,7.4,9.8,15,15.1,22.2c5.7,7.7,10.8,15.9,16.7,23.6c0.4,0.6,0.6,1.4,1,2.4c-1.8,1.2-3.9,2.4-5.8,3.7
		c-9.1,6.4-18.3,12.6-27.4,18.9c-8.4,5.8-16.9,11.5-25.2,17.4c-4.7,3.4-9.6,6.5-14.3,10c-4.5,3.4-9.5,6-14,9.3
		c-8.2,6.1-16.8,11.6-25.1,17.5c-5.6,4-11.4,7.8-16.9,11.8c-6.4,4.7-13,9.1-19.5,13.7C238.1,240.4,237.4,240.3,236.6,240.5z"/>
	<path class="st0" d="M395.7,50.1c4.2-3,8.3-6,12.4-8.9c7-4.9,14-9.7,21-14.6c3.1-2.2,6.2-4.4,9.4-6.5c1-0.6,2.3-1.2,3.4-1.1
		c3.6,0.3,7.1-0.7,10.8,0.8c3.2,1.3,6.1,2.8,7.7,5.6c4.2,7.1,9.4,13.5,13.8,20.3c2.5,3.8,5.1,7.5,7.5,11.1c0,2.5,0,4.8,0,7
		c0,4.8-1.8,8.3-5.7,11.6c-5.7,4.9-12.2,8.7-18.3,13.1c-6,4.5-12.6,8.1-18.4,12.8c-1.6,1.3-3.6,2.3-5.7,3.7c-2-2.7-4.4-5.3-6.1-8.3
		c-1.9-3.4-4.5-6.2-6.6-9.4c-2.1-3.2-4.1-6.4-6.4-9.4c-3.1-3.9-5.6-8.3-8.4-12.4C402.9,60.4,399.4,55.4,395.7,50.1z"/>
	<path class="st0" d="M400.1,128.4c-2.4-3.2-5.1-6.2-7.2-9.5c-4.8-7.4-9.8-14.7-15.1-21.8c-2.1-2.8-3.9-5.8-5.8-8.7
		c-2.7-4-5.5-8-8.2-12.1c-0.6-0.9-1.1-1.8-1.9-3.1c3.5-2.5,6.9-5.2,10.7-7.4c3.6-2.2,6.4-5.8,10.7-6.6c5,6.4,9,13.3,13.9,19.5
		c3.1,3.9,5.4,8.4,8.4,12.4c3.7,5,6.8,10.5,10.8,15.4c1.8,2.2,3.2,4.8,4.8,7.2C414.2,118.6,407.4,123.3,400.1,128.4z"/>
	<path class="st0" d="M221.8,246.6c-6,2.2-11.9,3.2-17.7,4.7c-5.7,1.5-11.3,2.9-17.6,4.2C179.6,247,174.1,237,167,228
		c6.7-9.8,13.4-19.5,20.1-29.4c3.1,1.5,4.3,4.5,6,6.9c5.7,8.1,11.1,16.4,17,24.3c3,4,5.5,8.4,8.2,12.5
		C219.4,243.7,220.5,244.9,221.8,246.6z"/>
	<path class="st0" d="M157.8,241.6c4.4,6.3,8.4,12,12.6,18c-9.8,2.4-19.4,4.7-29.8,7.1C146.5,258.1,152,250.1,157.8,241.6z"/>
	<path class="st1" d="M261.1,371.8c0,2.1,0,3.7,0,4.9c-1.8,4.4-4.8,6.4-9.7,5.6c-2-1.5-4.2-3.5-6.7-5c-3.3-2-6.8-3.6-10.7-4.6
		c-4.5-1.2-9.1-1-13.6-0.8c-2.6,0.1-5.3,1.2-7.7,2.3c-2.7,1.2-5.5,2.4-7.8,4.6c-1.9,1.8-4.5,3-7.5,3.6c-2.6-1.3-5.9-1.8-7.1-6.2
		c0-1.1,0-3,0-4.9c4.1-4.8,9.1-8.5,14.8-10.9c5.3-2.3,10.7-4.4,16.6-4.2c2.9,0.1,5.8-0.1,8.7,0c7.3,0.2,13.8,3,20,6.5
		c1.7,1,3.5,1.9,4.9,3.2C257.6,367.9,259.4,370,261.1,371.8z"/>
</g>
</svg>
