<?xml version="1.0" encoding="utf-8"?>
<!-- Generator: Adobe Illustrator 23.1.0, SVG Export Plug-In . SVG Version: 6.00 Build 0)  -->
<svg version="1.1" id="Layer_1" xmlns="http://www.w3.org/2000/svg" xmlns:xlink="http://www.w3.org/1999/xlink" x="0px" y="0px"
	 viewBox="0 0 500 500" style="enable-background:new 0 0 500 500;" xml:space="preserve">
<style type="text/css">
	.st0{fill:#52312C;}
	.st1{fill:#FFFFFF;}
</style>
<g>
	<path class="st0" d="M497.6,415.5c-1.1,0.9-2.2,1.7-3.6,2.8c-162.4,0-325.1,0-488.2,0c-0.8-1-1.8-2.2-3.3-4
		c0-108.3,0-217.5,0-327.1c1-0.8,2.3-1.8,4.1-3.3c161.8,0,324.6,0,487.4,0c1.1,0.9,2.3,1.8,3.5,2.8
		C497.6,196.3,497.6,305.8,497.6,415.5z M25.8,96.1c1.2,0.9,1.8,1.2,2.2,1.7c13,12.2,25.1,25.2,38.5,37
		c12.4,10.9,23.4,23.3,35.8,34.3c13.3,11.8,25.2,25.2,38.6,37c12.4,10.9,23.5,23.1,35.8,34.3c14.4,13,27.6,27.3,42.1,40.2
		c5.2,4.6,9.6,10,15.2,14.2c3.9,2.9,8,4.2,12.6,4.7c1.3,0.1,2.6,0.6,3,0.7c1.8-0.3,2.9-0.6,3.9-0.7c3.5-0.2,6.9-0.9,9.9-2.9
		c2-1.3,4.2-2.6,5.9-4.3c7.5-6.9,14.5-14.2,22.1-20.9c12.5-11.1,23.6-23.5,36.2-34.6c13.1-11.6,24.8-24.6,37.9-36.3
		c12.6-11.1,23.8-23.8,36.5-34.9c13-11.5,24.6-24.3,37.5-36c10.9-9.8,21.1-20.6,31.5-30.8c0.5-0.4,0.9-0.9,1.4-1.3
		c0.3-0.3,0.7-0.7,1.4-1.5C324.4,96.1,175.8,96.1,25.8,96.1z M27.8,405.8c148.5,0,297,0,445.7,0c-0.4-0.6-0.7-0.9-1-1.1
		c-4.1-3.8-8.4-7.4-12.8-10.8c-4-3.1-7.5-6.7-11.3-10c-0.8-0.8-1.5-1.9-2.4-2.2c-2.2-0.8-3.4-2.8-5-4.2c-1.7-1.3-3.4-2.6-5.1-4
		c-2-1.7-4-3.5-6-5.2c-5.1-4.5-10.5-8.9-15.7-13.4c-4.8-4.2-9.8-8.2-14.6-12.5c-4.9-4.3-10-8.4-14.9-12.8
		c-4.7-4.2-9.5-8.1-14.2-12.1c-5.3-4.6-10.6-9.2-16-13.7c-4.7-3.8-9.2-7.9-13.8-11.8c-5.1-4.4-10.1-8.8-15.3-13
		c-4.2-3.5-8.1-7.2-12.2-10.8c-2.5,2.5-4.9,4.8-7.3,7.2c-9.7,9.2-19.3,18.4-29,27.5c-1.7,1.6-3.5,3.1-5.5,4.2
		c-6.5,3.4-13.3,5.7-20.8,5.7c-2.6,0-5.2-0.4-7.8-0.8c-7.4-1.1-14-3.9-19.5-8.9c-7.1-6.4-13.7-13.1-20.8-19.4
		c-6.2-5.5-11.9-11.6-17.8-17.4c-3.6,3.3-6.8,6.9-10.8,9.8c-3.4,2.5-6,5.8-9.5,8.4s-6.3,6.1-9.9,8.8c-3.4,2.5-6.1,5.8-9.5,8.4
		c-3.5,2.6-6.3,6.1-9.9,8.8c-3.4,2.5-6.3,5.6-9.5,8.4c-6.6,5.8-13,11.8-19.8,17.4c-3.1,2.6-5.8,5.6-9.1,8.2
		c-4.2,3.3-7.6,7.4-12,10.7c-2.9,2.1-5.4,4.7-8.1,7.2c-7,6.3-14,12.6-21.2,18.8c-2.7,2.4-5.3,4.8-8.1,7.2
		C40.8,393.6,34.4,399.8,27.8,405.8z M484.9,397.7c0-98,0-195.4,0-293.1c-3.2,2.7-6.4,5.2-9.3,7.9c-12.6,11.7-24.2,24.3-37.1,35.6
		c-13,11.5-24.5,24.5-37.6,36c-12.4,10.9-23.5,23.3-35.8,34.3c-14.5,13.1-27.6,27.8-42.8,40.6c2.4,1.9,4.8,3.5,6.8,5.3
		c4.9,4.6,10.2,8.8,15.2,13.1c5,4.3,10,8.4,14.9,12.8c4.6,3.9,9.3,7.8,13.9,11.8c5.3,4.6,10.7,9.1,16,13.8c4.7,4.2,9.6,8,14.2,12.1
		c4.8,4.2,9.7,8.2,14.6,12.5c5.2,4.5,10.4,8.9,15.6,13.5c4.7,4.2,9.5,8.1,14.3,12.1c6.4,5.3,12.5,10.9,18.7,16.4
		c0.5,0.4,0.9,0.9,1.4,1.3c4.5,3,8.4,7,12.5,10.5C481.7,395.4,483.1,396.4,484.9,397.7z M15.3,399.1c2.7-2.2,5.4-4.3,8-6.5
		c3.3-2.9,6.5-6,9.8-8.9c6.6-5.8,13.1-11.8,19.8-17.4c3.1-2.6,5.8-5.7,9.1-8.2c3.6-2.7,6.6-6.3,10.2-9.1c3.2-2.5,5.8-5.6,9.2-8.1
		c3.5-2.6,6.3-6.1,9.9-8.8c3.4-2.5,6.1-5.8,9.5-8.4c3.9-2.9,6.9-6.7,10.9-9.8c3.4-2.5,6.3-5.6,9.5-8.4c6.6-5.8,13.1-11.8,19.8-17.4
		c3.1-2.6,5.8-5.7,9.1-8.1c3.5-2.6,6.4-6,9.8-8.8c5.5-4.5,10.6-9.6,16-14.5c-2.5-2-5-3.8-7.3-6c-12.9-12.1-24.9-24.9-38.2-36.6
		c-12.5-11-23.5-23.6-36.2-34.6c-8.8-7.6-16.7-16.3-25.1-24.4c-8.3-8.1-16.8-15.8-25.2-23.9c-5.9-5.6-11.6-11.5-17.5-17.1
		c-3.6-3.4-7.4-6.5-11.2-9.9C15.3,203.1,15.3,301.2,15.3,399.1z"/>
	<path class="st1" d="M25.8,96.1c150,0,298.6,0,448,0c-0.7,0.8-1.1,1.1-1.4,1.5c-0.5,0.4-0.9,0.9-1.4,1.3
		c-10.5,10.2-20.6,21-31.5,30.8c-12.9,11.6-24.6,24.5-37.5,36c-12.6,11.2-23.9,23.8-36.5,34.9c-13.1,11.6-24.8,24.6-37.9,36.3
		c-12.5,11.1-23.7,23.6-36.2,34.6c-7.6,6.7-14.6,14-22.1,20.9c-1.8,1.6-3.9,2.9-5.9,4.3c-3,2-6.4,2.6-9.9,2.9c-1,0.1-2,0.3-3.9,0.7
		c-0.4-0.1-1.7-0.4-3-0.7c-4.6-0.6-8.7-1.8-12.6-4.7c-5.6-4.3-10-9.6-15.2-14.2c-14.5-12.9-27.7-27.2-42.1-40.2
		c-12.3-11.1-23.4-23.4-35.8-34.3c-13.4-11.8-25.3-25.2-38.6-37c-12.4-11-23.4-23.4-35.8-34.3C53.1,123.1,41,110.1,28,97.8
		C27.6,97.5,27,97.1,25.8,96.1z"/>
	<path class="st1" d="M27.8,405.8c6.6-6.1,13-12.2,19.8-17.9c2.8-2.2,5.3-4.8,8.1-7.2c7.2-6.2,14.1-12.5,21.2-18.8
		c2.7-2.4,5.2-4.9,8.1-7.2c4.3-3.3,7.8-7.4,12-10.7c3.3-2.5,6-5.5,9.1-8.2c6.8-5.6,13.2-11.6,19.8-17.4c3.2-2.8,6.1-6,9.5-8.4
		c3.6-2.6,6.4-6.2,9.9-8.8c3.4-2.6,6.1-5.8,9.5-8.4c3.6-2.6,6.3-6.2,9.9-8.8c3.5-2.6,6.1-6,9.5-8.4c4-2.9,7.2-6.5,10.8-9.8
		c5.9,5.8,11.6,11.9,17.8,17.4c7.1,6.3,13.7,13.1,20.8,19.4c5.4,4.8,12,7.8,19.5,8.9c2.6,0.4,5.2,0.8,7.8,0.8
		c7.5-0.1,14.3-2.4,20.8-5.7c2-1.1,3.8-2.6,5.5-4.2c9.7-9.1,19.4-18.3,29-27.5c2.4-2.2,4.8-4.7,7.3-7.2c4,3.6,8,7.3,12.2,10.8
		c5.2,4.3,10.2,8.7,15.3,13c4.6,3.9,9.2,8,13.8,11.8c5.4,4.5,10.7,9.1,16,13.7c4.7,4.2,9.5,8,14.2,12.1c4.9,4.3,10,8.4,14.9,12.8
		c4.8,4.2,9.8,8.2,14.6,12.5c5.2,4.5,10.5,8.9,15.7,13.4c2,1.8,4,3.5,6,5.2c1.6,1.5,3.4,2.7,5.1,4c1.7,1.3,2.8,3.3,5,4.2
		c1,0.3,1.6,1.6,2.4,2.2c3.7,3.4,7.3,7,11.3,10c4.4,3.5,8.7,7.1,12.8,10.8c0.3,0.2,0.5,0.6,1,1.1
		C324.8,405.8,176.3,405.8,27.8,405.8z"/>
	<path class="st1" d="M484.9,397.7c-1.7-1.3-3.2-2.5-4.5-3.6c-4.2-3.5-8-7.4-12.5-10.5c-0.5-0.3-0.9-0.9-1.4-1.3
		c-6.2-5.5-12.4-11.1-18.7-16.4c-4.8-3.9-9.6-8-14.3-12.1c-5.2-4.5-10.4-8.9-15.6-13.5c-4.8-4.2-9.8-8.2-14.6-12.5
		c-4.7-4.2-9.5-8-14.2-12.1c-5.3-4.6-10.7-9.1-16-13.8c-4.6-3.9-9.3-7.8-13.9-11.8c-4.9-4.3-10-8.5-14.9-12.8
		c-5.1-4.4-10.4-8.5-15.2-13.1c-2-1.9-4.4-3.5-6.8-5.3c15.2-12.9,28.3-27.5,42.8-40.6c12.3-11.1,23.4-23.4,35.8-34.3
		c13-11.5,24.6-24.5,37.6-36c12.9-11.5,24.6-23.9,37.1-35.6c2.9-2.7,6.1-5.2,9.3-7.9C484.9,202.3,484.9,299.9,484.9,397.7z"/>
	<path class="st1" d="M15.3,399.1c0-98,0-196.1,0-294.5c3.8,3.4,7.6,6.5,11.2,9.9c5.9,5.6,11.6,11.5,17.5,17.1
		c8.4,8.1,16.9,15.8,25.2,23.9c8.4,8.1,16.3,16.7,25.1,24.4c12.6,11,23.6,23.6,36.2,34.6c13.3,11.7,25.3,24.6,38.2,36.6
		c2.2,2.1,4.8,3.9,7.3,6c-5.5,4.9-10.5,10.1-16,14.5c-3.4,2.8-6.3,6.2-9.8,8.8c-3.3,2.5-6,5.5-9.1,8.1c-6.7,5.7-13.2,11.6-19.8,17.4
		c-3.2,2.8-6.1,6-9.5,8.4c-4,2.9-7,6.9-10.9,9.8c-3.4,2.6-6.1,5.8-9.5,8.4c-3.6,2.6-6.4,6.2-9.9,8.8c-3.3,2.5-5.9,5.6-9.2,8.1
		c-3.7,2.8-6.6,6.3-10.2,9.1c-3.3,2.5-6,5.5-9.1,8.2c-6.7,5.7-13.2,11.6-19.8,17.4c-3.3,2.9-6.5,6-9.8,8.9
		C20.7,394.8,18,396.9,15.3,399.1z"/>
</g>
</svg>
