<?xml version="1.0" encoding="utf-8"?>
<!-- Generator: Adobe Illustrator 23.1.0, SVG Export Plug-In . SVG Version: 6.00 Build 0)  -->
<svg version="1.1" id="Layer_1" xmlns="http://www.w3.org/2000/svg" xmlns:xlink="http://www.w3.org/1999/xlink" x="0px" y="0px"
	 viewBox="0 0 306.6 525" style="enable-background:new 0 0 306.6 525;" xml:space="preserve">
<style type="text/css">
	.st0{fill:none;stroke:#FEF3E9;stroke-width:6;stroke-linecap:round;stroke-linejoin:round;stroke-miterlimit:10;}
</style>
<g>
	<path class="st0" d="M265.3,122.9c6.7-0.1,13.5,0.2,20.1-1.8c2.5-0.8,4.4-1.7,5.9-3.5c6.9-8.2,6.1-26.1-1.3-34.1
		c-7.7-8.4-17.7-13.3-27.4-18.7c-11.4-6.2-22.4-13.2-34.1-18.6c-28.3-13.1-55.1-29.4-84.1-41c-3.4-1.4-5.5-0.8-8.8,0.6
		c-18.7,7.8-22.3,25.2-26.4,41.7c-2.1,8.5,5.7,12.9,11.8,17.3c14.6,10.6,31.7,16.1,48.1,22.7c10,4.1,20,8.2,30.1,12
		c16.6,6.2,33.4,12.1,50.1,18.1c0.3,0.1,0.5,0.4,0.7,0.7"/>
	<path class="st0" d="M95.5,123.6c-4.9,4.5-3.6,10-1.2,14.6c5.6,10.7,12.5,20.7,17.7,31.6c5.4,11.2,12.9,19.8,23.5,26.1
		c1.6,0.9,3.2,2.2,4.8,2.4c5.2,0.6,7.1,4.2,9.4,8.1c10.7,17.7,19.4,36.4,29.8,54.3c6.4,11,13,22,18.9,33.3c4.1,8,10.6,14.1,14.8,22
		c6.2,11.6,12.3,23.3,18.3,35c8.7,16.8,17.6,33.5,25.8,50.6c8.4,17.5,17.1,35,24.6,52.9c6.6,15.8,13.7,31.5,18.1,48.1
		c1,4,0.3,8.4-2.5,12c-2.5,3.2-6,4.3-8.6,1.2c-9.6-11.5-20.9-21.4-30.4-33.2c-11.8-14.8-23.7-29.4-34.5-45
		c-11.1-16-21.5-32.4-32.2-48.7c-6.6-10.1-14.1-19.8-19.3-30.8c-9.3-19.4-21-37.4-31.6-56.1c-11.6-20.3-24-40.1-35.9-60.2
		c-2.7-4.6-5.3-9.4-2.8-15.4c4.3-10.7-0.6-21.3-5.8-29c-7.6-11.1-12.9-23.8-22-33.9c-2.4-2.7-4.6-5.7-6.4-9.1
		c-2.7-5.1-7.6-7.7-13.8-7.5c-5,0.1-7.7-4.2-5.3-8.6c7.4-13.3,0.5-20.7-6.8-27.3c-9.2-8.2-19.3-15.2-24.2-27.4
		c-2.1-5.2-2.5-10.5-1.6-15.4c2.6-13.9-2.3-26-7.6-38.1c-0.8-1.8-2.2-3.5-2.6-5.4c-0.5-2.4-1.1-5.5,2-6.5c2.1-0.7,4.9-0.8,6,2.5
		c0.5,1.5,1.9,2.6,2.8,3.9c6.7,9.5,14.7,17.7,25.1,23.7c13,7.5,22.3,18.3,25.8,33.8c1.8,8.2,6.4,15.9,5.1,24.8"/>
	<path class="st0" d="M52.8,148.3c2.2,8.4,6.6,16,11,23.2c10.4,17.1,18.4,35.5,30.4,51.7c1.9,2.6,3.1,5.7,6.1,7.3"/>
	<path class="st0" d="M52.8,129.6c3.4-1,5.3-4.1,8.1-5.9c8.2-5.2,16.4-10.5,26.7-10.8c3.3-0.1,5.7,1.3,6.6,4.1
		c3.8,11,12,19.4,17.7,29.3c9.2,16.1,19.7,31.4,30,46.8c1.3,2,0.4,3.6,0.6,5.4"/>
	<path class="st0" d="M205.2,307.4c-12.1,2.6-22.8,8.1-32.8,15.3c-4.7,3.4-7.1,8.5-11.3,12.1"/>
	<path class="st0" d="M199.1,297.4c-5.8,4.4-12.9,5.3-19.4,7.9c-7.7,3-14,7.5-19.3,13.6c-1.7,1.9-3.1,4-5.4,5.3"/>
	<path class="st0" d="M32.1,56.8c-1.8,4.6,2,7.3,4.1,9.9c10.3,12.9,18.9,26.9,26.7,41.5c0.5,1,0.5,1.8,0.6,2.7"/>
	<path class="st0" d="M81.5,112.3c-2.4-4.5-6.3-5.9-10.6-3.9c-7,3.2-14.1,6.3-20.1,11.3"/>
</g>
</svg>
