<?xml version="1.0" encoding="utf-8"?>
<!-- Generator: Adobe Illustrator 23.1.0, SVG Export Plug-In . SVG Version: 6.00 Build 0)  -->
<svg version="1.1" id="Layer_1" xmlns="http://www.w3.org/2000/svg" xmlns:xlink="http://www.w3.org/1999/xlink" x="0px" y="0px"
	 viewBox="0 0 565.2 517.5" style="enable-background:new 0 0 565.2 517.5;" xml:space="preserve">
<style type="text/css">
	.st0{fill:none;stroke:#FDF3E9;stroke-width:5;stroke-linecap:round;stroke-linejoin:round;stroke-miterlimit:10;}
</style>
<g>
	<path class="st0" d="M355,26.9c5.5,6,12,11.3,16.5,18.3c8.9,13.8,21.3,17.6,34.6,20.9c24.3,6,48.3,13.4,72.6,19.1
		c8.4,2,13.2,7.1,15.3,15.7c7.8,31.5,15,63.2,23,94.7c0.7,2.7-0.8,3.8-0.3,5.7"/>
	<path class="st0" d="M219.5,423.1c30.1,15.5,61.1,28.3,90.3,46c1.9,1.1,3.9,2,7,3.6c30.2-87.9,62.6-174.4,97.7-260.1
		c-100.7-57.3-206-106.9-310-162.2C72.6,135.8,40.7,221.4,8.3,308c12.5,9.9,27.1,13.8,40.2,21.2c29.6,16.7,61,28.6,90.2,46.3
		c0.6,0.4,1.6,0,2.4,0"/>
	<path class="st0" d="M270.6,275.2c11.1,42.8,26.5,83.8,37,126.9c4.4,18.1,10.8,35.6,12.9,54.4"/>
	<path class="st0" d="M161.3,219.4c-19.7,13.9-42.5,18.9-63.1,30.5C73.3,263.9,46,271,21,285"/>
	<path class="st0" d="M368,336.6c7.7,11,8.4,25.3,12.5,37.9c6.8,21.1,13.7,42.1,22.1,62.4c8.2,20,10.2,41.1,9.4,62.8"/>
	<path class="st0" d="M406.1,226.4c-41.6,14.4-83.7,26.9-124.8,43.1c-8,3.1-16.5,4.3-24.9,5.7c-8.6,1.4-12.4,7.8-12.9,16.8
		c-0.4,7.7-1,14.3-8.5,16.8c-0.9,0.3-1.9,1.6-2.4,2.7c-8.1,20.2-25,13.5-36.8,12.5c-10.1-0.8-21.7-11.5-25.9-25.2
		c-3.5-11.4-8.7-23.3-1.8-36.4c2.5-4.8,0.9-12.3,8.6-12.5c5.9-0.1,1.4-10.3,7.1-11"/>
	<path class="st0" d="M101.8,63.2c13,27.2,22.5,56.3,31.7,85.3c10.1,32.2,24.4,61.2,40.8,89.1"/>
	<path class="st0" d="M385.9,290.6c44,16.3,88,32.3,131.8,49.2c4.2,1.6,7.9,2.1,12,2.4"/>
	<path class="st0" d="M229,300.3c6.9-28.6,1.3-46.4-21.4-52.9c-8.6-2.5-26.8,7.5-29.6,16.7c-3,9.8-0.3,32.5,10.5,39.2
		s21.2,12.6,33.4,5.4"/>
	<path class="st0" d="M249.2,276.6c-1.5-8.9-5.7-16.9-8.9-24.8c-4.9-11.9-16.7-18.1-26.9-21.9c-8.6-3.2-19.9-3.6-27.1,7.6"/>
	<path class="st0" d="M268.2,53.4c9.4,11.3,7.1,27.2,11.5,40.6c5.7,17.4,14.5,33.6,15.8,52.8"/>
	<path class="st0" d="M545.1,236.2c4.2,4.4,8.4,8.8,13.2,13.8c-7.5,8.7-14.2,16.7-20.4,23.9c3,13.4,5.1,25.7,8.5,37.6
		c3.8,13.4,1.9,24.2-7.2,33.6c-4.8,5-8.8,11.1-13.2,16.6"/>
	<path class="st0" d="M521.3,367.3c-16.6,20.5-33.3,40.9-49.9,61.4"/>
	<path class="st0" d="M162.4,389.6c16.9,8.7,32.3,20.9,49.9,27.9"/>
	<path class="st0" d="M306.2,39.5c-12.8-7.7-24.6-6.3-33.3,4.2C255.4,65,238,86.4,220.6,107.8"/>
	<path class="st0" d="M466.7,149.7c12.7,13.9,25.4,27.9,38,41.8"/>
	<path class="st0" d="M364.5,473.3c13.8,12,23.3,29.6,38.6,40.3c6-13,19-18.8,25.6-31.9"/>
	<path class="st0" d="M390.6,64.6c10.3,11.6,20.6,23.2,30.9,34.9"/>
	<path class="st0" d="M431,110.6c10.3,11.2,20.6,22.3,30.9,33.5"/>
	<path class="st0" d="M309.8,35.3c-7.9,9.8-15.9,19.5-23.7,29.3c-2.7,3.3-5.7,4.7-9.5,4.2"/>
	<path class="st0" d="M463.1,438.4c-9.1,11.6-18.2,23.2-27.3,34.9"/>
	<path class="st0" d="M331.2,435.6c9.5,10.7,19,21.4,28.5,32.1"/>
	<path class="st0" d="M528.5,286.4c-11.1,13.9-22.2,27.9-33.3,41.8"/>
	<path class="st0" d="M507.1,315.7c8.8,10.6,20.1,18.2,27.3,30.7"/>
	<path class="st0" d="M509.5,197.1c10.5,7,15.9,20.6,26.1,27.9"/>
	<path class="st0" d="M224.2,278c-9-4.6-14.2,3.1-20.3,8.5c-4.2-8.1-10.1-13.7-17.7-16.8"/>
	<path class="st0" d="M350.2,21.4C345.1,16.2,340,11,334.2,5c-5.9,7.5-11.6,14.8-17.3,22"/>
</g>
</svg>
