<?xml version="1.0" encoding="utf-8"?>
<!-- Generator: Adobe Illustrator 23.1.0, SVG Export Plug-In . SVG Version: 6.00 Build 0)  -->
<svg version="1.1" id="Layer_1" xmlns="http://www.w3.org/2000/svg" xmlns:xlink="http://www.w3.org/1999/xlink" x="0px" y="0px"
	 viewBox="0 0 501 297" style="enable-background:new 0 0 501 297;" xml:space="preserve">
<style type="text/css">
	.st0{fill:none;stroke:#FDF3E9;stroke-width:11;stroke-linecap:round;stroke-linejoin:round;stroke-miterlimit:10;}
</style>
<g>
	<path class="st0" d="M479.1,209.8c-2.1,26.4-19.7,40.2-41.8,48.9c-27.4,10.9-57.2,11.9-85.9,14.1c-26,1.9-52,12.6-78.5,3.3"/>
	<path class="st0" d="M250.7,15.9c-5.8,9-1.3,18.4,0.3,26.9c7.4,38.6,16.4,76.9,24.1,115.5c4.2,21.1,7.3,42.5,9.8,63.8
		c1.6,14.4,2,29.2-12,39.3c-7,5,2,14.4-7.3,21.5c-47.6-1.3-97.4,3.4-147.3,5.3c-50.6,1.9-68.5-21.8-81.1-61.2
		c-11-34.4-27.4-67.7-22.2-105.6c0.7-5.4,1.9-9.8,4.6-14.9C32.1,82,52.8,63.2,64.7,38.2C70.5,25.9,84.2,21.1,98.4,18
		c48.9-11,97.9-12,147.4-7.2c17.1,1.7,35.2,0.6,51.4-1.2c50.1-5.5,98.3,6.9,147.4,9.1c15.4,0.7,25.7,9.6,29.8,26.6
		c11.5,46.9,18.4,94.1,16.9,142.5c-0.4,12.7-5.5,17.6-19.5,20.3c-61.1,11.7-122.9,17.4-184.3,26.4"/>
	<path class="st0" d="M282.6,234.4c-28.7,1.2-57.7,2.8-85.9,3.1c-34.7,0.3-71.5,7.5-105.6-8"/>
	<path class="st0" d="M49.4,74.8c11.9,16.7,0.6,36.3,7.1,54.1c9.4,25.8,14.5,53.2,25.6,78.1c7.4,16.5,7,27.3-5.4,39.9
		c-6.5,6.6-10.1,16.1-15,24.3"/>
</g>
</svg>
