<?xml version="1.0" encoding="utf-8"?>
<!-- Generator: Adobe Illustrator 23.1.0, SVG Export Plug-In . SVG Version: 6.00 Build 0)  -->
<svg version="1.1" id="Layer_1" xmlns="http://www.w3.org/2000/svg" xmlns:xlink="http://www.w3.org/1999/xlink" x="0px" y="0px"
	 viewBox="0 0 517 622.3" style="enable-background:new 0 0 517 622.3;" xml:space="preserve">
<style type="text/css">
	.st0{fill:none;stroke:#FDF3E9;stroke-width:6;stroke-linecap:round;stroke-linejoin:round;stroke-miterlimit:10;}
</style>
<g>
	<path class="st0" d="M465.8,547.7c6.8-1.1,11.9,1.8,16.6,6.6c5,5.1,15,6.7,21.4,3.7c4-1.8,6.3-4.5,5.9-9.5
		c-0.7-7.7-0.8-15.4-0.9-23.1c-0.1-5-3.3-8-6.7-10.7c-10.3-8.1-13.9-18.6-13.4-31.5c0.3-6.9,3.6-12.2,7.1-17.2
		c2.9-4.2,3.4-7.6,3.3-12.6c-0.3-12.6-4.1-24.6-4.5-37.2c-0.1-3.9-2.5-7.3-5.6-9.9c-9.5-8-13.4-18.1-12.6-30.5
		c0.4-5.8,1.8-10.8,5.9-14.8c6.1-6.1,7.3-12.9,6.1-21.5c-1.2-8.2-2.8-16.3-3.1-24.7c-0.2-4.8-0.2-10.6-5.4-14.1
		c-5.6-3.7-10.4-8.3-10.7-15.6c-0.5-10.2-1-21.1,5.3-29.5c4.6-6.1,4.1-10.9,3.3-17.6c-1.2-9.6-1.9-19.3-3.4-28.9
		c-0.8-5-2.9-8.8-6-12.4c-8.8-10.1-10.3-22.5-3.7-32.7c8.7-13.6,5.5-26.9,4.7-40.8c-0.6-8.8-2.9-15.4-10.7-21
		c-7.6-5.5-8.8-22.1-2.5-30.1c7.4-9.3,7.9-19.1,6.5-29.9c-1.2-8.8-1.9-17.6-2.5-26.4c-0.2-2.7-0.6-4.4-3.3-5.9
		c-7.5-4.1-18.7-1.7-22.3,5.9c-5.1,11-26.3,17.2-33.8,5.7c-6.6-10.2-15.5-4.2-23.2-3.7c-5.7,0.4-11.6,0.9-17.4,2.1
		c-7.3,1.5-13.4,3.3-18.5,10.5c-7.9,11.1-21.2,12-31.7,2.6c-5.9-5.3-11.7-6.4-19.2-4.9c-7.3,1.4-14.8,1.9-22.3,2.6
		c-8.2,0.8-15.2,3.6-19,11.6c-5,10.6-22.7,13.1-32.2,3.2c-4.8-5-9-6.9-16.7-5.4c-8.8,1.7-18,3.2-27.1,3.9c-4.6,0.4-8.4,1.9-11.9,6.3
		c-5.1,6.3-10.3,13.6-20.4,13.6c-5.1,0-9.7-0.9-13.1-4.4c-6-6-12.6-7.4-20.8-5.8c-8.7,1.6-17.6,2.6-26.4,3.3
		c-5.3,0.5-8.7,2.5-10.8,7.5C65.5,75.3,46.1,80,37,69.6c-5.2-6-17.5-6.8-23.8-2.6c-2.6,1.7-3.9,4.2-3.3,7.4
		c2.4,13.4,2,27.1,4.7,40.5c1,5,4.4,7.3,6.8,10.7c5.7,8.2,10.9,16.3,6.9,27.3c-1.5,4.3-4,7.1-7,9.7c-3.1,2.7-3.5,5.7-3.2,9.2
		c0.8,8.5,1.7,17.1,2.5,25.6c0.5,6,1.6,11.1,6.4,15.9c11.3,11.3,12.7,24.1,4.1,37.7c-4,6.4-3,12.7-3,19.1c0,8.3,0.8,16.5,1.6,24.8
		c0.5,4.9,1.6,9.4,5.6,13.3c14.9,15,15.5,29.8,2.5,46.1c-1.6,2.1-2.8,4.2-2.4,6.6c1.9,12.1,1.7,24.2,1.5,36.3
		c-0.1,5.2,1.4,9.9,5.9,12.3c17.7,9.2,15.2,34.9,5.5,47.9c-3.9,5.2-4.7,9.8-4.1,15.9c1,9.6,1.1,19.3,0.9,28.9
		c-0.2,7.4,1.6,13.5,7.6,18.2c12.5,9.9,13.7,31.8,4.4,41.6c-9.9,10.5-6.7,21.5-7.7,32.7c-0.1,0.8,0.8,1.7,0.7,2.5
		c-0.1,5.6-0.1,11.2,6.7,13.2c7.6,2.2,16.3-1,19.7-7.4c4.9-9.1,12-13.3,22.4-12.5c3.6,0.3,6.6,0.9,9.1,3.4c3.4,3.5,6.9,6.9,9.6,9.7
		c12.1-1.7,23.1-3.6,34.1-4.6c7.3-0.7,12.6-2.5,17.6-9c10.1-13.2,19.3-15.6,35.1-2.5c4.3,3.5,8.2,5.3,13.4,4.8
		c11.6-1.2,23.1-2.4,34.7-3.8c3.9-0.5,6.8-2.6,9.2-6.1c11.3-17.2,23.5-19,37.8-4.8c4.2,4.2,8.3,4.6,13.4,4
		c10.2-1.2,20.4-2.1,30.6-3.4c4.9-0.6,8.7-2.3,11.8-7.3c10.2-16.7,25.2-17.3,37.1-5.2c6.2,6.3,15,3.9,22.2,2.9
		c5.7-0.8,11.8-1.9,17.4-2.3c8.7-0.7,14.5-2.8,18.4-11.1c2.5-5.5,8.1-8.2,14.6-7.5"/>
	<path class="st0" d="M191.5,319.7c-5.7,18.3-0.5,35.3,7.8,51.1c9.1,17.2,24.2,26.6,44.3,26.6"/>
	<path class="st0" d="M352.7,365.2c-6.1,10.1-17.1,13.5-26.5,18.8c-12.9,7.4-26.7,12.4-42,12.7c-7.7,0.1-13.4-2.8-18.2-8.4"/>
	<path class="st0" d="M233.7,261.1c-6.5,12.2,0.4,22.6,5.1,33c4.8,10.5,12.2,19.4,19.7,28.1c5.2,6,11.9,8.6,19.8,8.3"/>
	<path class="st0" d="M393.1,293.3c-2.2,10.5-11.5,13.9-19.1,18.9c-10.3,6.8-22.3,9.8-33.9,13c-5.8,1.6-12.5,1.5-18.2-2.9
		c-4.3-3.3-8.7-2.2-12.3,1.6c-7,7.3-15.7,11.2-25.6,12.4"/>
	<path class="st0" d="M385.7,205c3.6,8.3-1.1,15.8-4.5,22.1c-8,14.7-20.4,25.5-35.9,32.5c-5.8,2.6-10.6,0.3-15.7-1.7"/>
	<path class="st0" d="M391.4,291.8c-23.2-6.8-44.2-1.2-63.5,12.3c-3.1,2.2-4.6,5.9-5.5,9.2c-0.8,3.1-2.7,4.5-4.4,6.5"/>
	<path class="st0" d="M312.2,262.8c-2.3-8.6-7.1-16.4-7.5-25.6c0-0.8-0.3-1.8-0.8-2.5c-10.2-11.7-19.4-24.6-34.4-31
		c-6.1,9-5.9,21.9,0.6,31.8c6.9,10.4,16.7,18,26.4,25.6c2.9,2.3,6.3,2.6,9.9,2.5c3.2,0,6.7-0.9,9,2.6c-1.8,12.9-1.8,26.1-6.3,38.8
		c-1.9,5.3,1.5,10.7,3.9,15.6"/>
	<path class="st0" d="M234.6,258.6c18.6,11.5,34.4,25.7,44.7,45.4c3.3,6.3,4.5,12.3,1.6,19.1c-1.1,2.6-3.3,5.7-0.8,8.1
		c4.5,4.3,3.8,9.3,2.3,14.1c-3.1,9.9-3.4,20.6-8.9,29.8c-4.9,8.2-10.3,15.3-20.7,16.5c-2,0.2-3.9,1.1-5.8,1.6"/>
	<path class="st0" d="M333.7,129.8c9.9,15.1,16.3,30.8,12.7,49.6c-1.2,6.1-1.9,11.7-6.9,15.6c-6.6,5.2-10.9,4.4-16.5-2.4
		c-8.4-10.1-7.4-22.3-6.2-33.8c0.8-7.4,5.1-14.4,7.9-21.5c1.5-3.8,4.1-6.5,8.2-7.4"/>
	<path class="st0" d="M353.6,364.2c-9.9-9.8-21.7-6-33.2-5.7c-10.1,0.3-19.6,3.6-28.8,7c-4.3,1.6-8.2,2-12.5,2.2"/>
	<path class="st0" d="M229.6,433.7c-2.3-7.6,0.9-13.9,5.9-18.9c5.9-5.9,9.5-13.5,9.3-20.8c-0.3-10.9,1.3-22.2-6.7-32.4
		c-11.7-15-26.2-26.8-40-39.4c-1.3-1.2-3.8-1.2-5.7-1.7"/>
	<path class="st0" d="M237,436.2c15.3-10,32.1-14.4,50.4-13.2c1.4,0.1,2.7,0.6,4.1,0.8c3.3,0.4,6.3,3.2,7.1,5.1
		c1.5,3.7-2.9,5.8-5.5,7.1c-13.9,7.4-29,9.6-44.5,8.2c-3.4-0.3-7.5-2.4-9.8-4.9c-4.7-5.3-9.4-5.3-15.1-2.3
		c-13.4,7-24.2,16.6-30.5,30.6c-3.1,7-8.2,13-9.9,20.6"/>
	<path class="st0" d="M385.7,205c-11.8,7.5-31.9,17-39.5,29c-3,4.6-5.3,9.5-10.9,11.4c-2.2,0.8-2.9,2.4-3.2,4.2
		c-1.5,9.5-8.3,13.4-16.6,15.7"/>
	<path class="st0" d="M331.2,200c-1.1,9.9-2.3,19.8-3.3,29.7c-0.6,6.1,1.2,11.6,4.9,16.5"/>
	<path class="st0" d="M314.7,372.6c-9.1,2.8-18.3,5.2-27.2,8.4c-5.7,2-9.6-1.4-14.1-3.4"/>
	<path class="st0" d="M332,162c-0.1,11.9,1,23.8-1.7,35.5"/>
	<path class="st0" d="M355.1,304.9c-10.3,4.9-20.5,10-32.2,10.7"/>
	<path class="st0" d="M217.2,360.2c8,9.3,13.6,21,25.6,26.4"/>
	<path class="st0" d="M289.1,231.4c4.3,5.5,6,14.1,15.7,13.2"/>
	<path class="st0" d="M264.3,302.4c3.3,5.8,5.2,12.4,9.9,17.3"/>
	<path class="st0" d="M112.3,127.3c-7.6,3.9-15.4,7.4-20.7,14.8c-9.5,13.3-6.2,31.2,2.4,39c11.9,10.8,29.4,12.4,42.1,3.8
		c13.9-9.3,21.5-24.2,14-39.4c-5.7-11.5-15-18.7-28.8-18.3c-2.7,0.1-5.5,0-8.3,0"/>
	<path class="st0" d="M410.5,56.3c-10.1,1.9-20.3,3.4-30.5,4.3c-15.5,1.4-30.8,4.3-46.3,6.4c-23.7,3.1-47.4,6-71,9.1
		c-18.5,2.4-36.9,4.9-55.3,7.4c-24.5,3.3-49,6.7-73.5,9.9c-23.9,3.1-47.9,6.2-71.9,9c-5.5,0.6-6.9,3.6-6.6,8.4
		c0.8,12.9,1.6,25.9,2.5,38.8c1.6,22,3.2,44.1,4.9,66.1c1.9,24.2,3.9,48.5,5.8,72.7c1.4,17.6,2.4,35.3,4.2,52.8
		c1.9,17.9,2.2,35.9,4.7,53.7c1.1,7.6,1.4,15.4,1.6,23.1c0.6,23.8,4,47.3,5.5,71c1.3,20.4,3.5,40.7,4.7,61.1
		c0.4,6.8,2.7,7.6,9.9,7.6c17.5-0.1,34.7-3.7,52-5.5c14.6-1.5,29.3-4.2,43.9-5.7c25.6-2.6,51-7.1,76.8-8.9
		c15.5-1.1,30.8-3.8,46.3-5.6c13.5-1.5,27.1-2.3,40.4-4.3c17.3-2.6,34.8-3.2,52.1-6.3c11.9-2.1,24.2-2.4,36.3-3.5
		c4.1-0.4,8.4-0.7,12.4-1.7c3.9-1,5.4-4.1,5-8.2c-0.9-9.4-1.7-18.7-2.5-28.1c-2.5-27.3-4.8-54.5-7.5-81.8c-1.7-17.6-4-35.2-5.7-52.9
		c-2.4-23.9-4.5-47.9-6.6-71.9c-1.9-21.2-3.5-42.4-5.9-63.6c-2.6-22.8-4.6-45.7-6.6-68.6c-2.2-25.9-4.8-51.8-7.5-77.6
		c-0.6-5.8-4.9-8.1-10.6-7.4"/>
</g>
</svg>
