<?xml version="1.0" encoding="utf-8"?>
<!-- Generator: Adobe Illustrator 23.1.0, SVG Export Plug-In . SVG Version: 6.00 Build 0)  -->
<svg version="1.1" id="Layer_1" xmlns="http://www.w3.org/2000/svg" xmlns:xlink="http://www.w3.org/1999/xlink" x="0px" y="0px"
	 viewBox="0 0 675 537" style="enable-background:new 0 0 675 537;" xml:space="preserve">
<style type="text/css">
	.st0{fill:none;stroke:#FDF3E9;stroke-width:4;stroke-linecap:round;stroke-linejoin:round;stroke-miterlimit:10;}
</style>
<g>
	<path class="st0" d="M316.5,485.1c-60.9,3.8-121.8,8-182.8,11.3c-21.7,1.2-43.5,0.7-65.3-0.1c-9.4-0.3-18.1,8.8-28.8,1.2
		c-1.3-13.8-3-27.3,12.2-36c6.3-3.6,10.4-13.2,14.9-20.6c9-14.7,20.8-16.3,34.3-11.4c-9.4,20.8-20.8,37.2-44.1,28.7"/>
	<path class="st0" d="M301.8,174.9c-70.7,3.7-141.4,1.8-212.1,0"/>
	<path class="st0" d="M89.6,144.2c5.2,3.1,10.9,1.9,16.3,1.9c46.8,0.1,93.6,0.3,140.3-0.1c18.5-0.2,37-3.9,55.5,0.1"/>
	<path class="st0" d="M301.8,201.7c-70.7,0-141.4,0-212.1,0"/>
	<path class="st0" d="M634.7,234.2c-25.2,7.4-51.5,2-76.7,9.5c-35.8,10.7-72.3,16.5-109.3,17.3"/>
	<path class="st0" d="M326.3,46.5c-5.8,19.4-0.9,38.7,2,57.4c8,51.4,16,102.7,16.1,155.2c0,2.6,1.9,5.2,3.4,8.7
		c10.1-29.2,14.7-60.1,31-86.8c-11.3-19.4-9.7-39.8,1.4-59.8"/>
	<path class="st0" d="M536.8,471.7c-1.1,0.6-2.2,1.8-3.3,1.8c-49,1.4-97.9,2.8-146.9,3.7c-6.8,0.1-13.3,1.3-19.6,4"/>
	<path class="st0" d="M608.5,305.1c-52.8,0-105.5,0-158.3,0.1c-1.6,0-3.3,1.2-4.9,1.8"/>
	<path class="st0" d="M608.5,333.8c-52.2,0.6-104.4,1.3-156.6,1.9"/>
	<path class="st0" d="M608.5,360.6c-49.5-0.6-99-1.1-148.5,1.9"/>
	<path class="st0" d="M202.2,289.8c-26.1,2.6-52.2,4.8-78.3,7.8c-16.9,1.9-33.7,6.2-50.6,7.2c-13,0.8-25.4,2.7-37.5,8"/>
	<path class="st0" d="M331.2,278.3c4.9-2.6,9.2-6.6,15-5.9c7.9,51.4,9.4,105.5,14.4,159.1c1.3,13.6-8.2,28.3-19.6,28.4
		c-10.8,0.1-22,8.1-32.8-1.4c-1.7-1.5-5.8-1.4-7.9,0c-21.8,14.1-45.6,8.3-68.6,9.3c-21.5,0.9-43.8-5.4-63.6,9.8
		c-7.8,6-16.2,3.5-24.5,3.8"/>
	<path class="st0" d="M608.5,389.4c-39.7,0.6-79.5-0.2-119.1,2.7c-14.5,1.1-21.2-4.4-26.2-18c-1.6-4.5-3.3-8.9-4.9-13.4"/>
	<path class="st0" d="M257.7,232.3c-56-0.9-112.1,2.2-168.1-1.9"/>
	<path class="st0" d="M316.5,284c-0.7,5.9-4.6,4.9-8.1,5.9c-20.6,6.1-41,13.2-62,17.1c-16.5,3.1-31.4,2-40.8-17.3"/>
	<path class="st0" d="M443.7,176.8c10.5-16.9,11.1-37.9,1.6-53.6c-9-14.8-32.7-23.6-47.3-17.1c-4,1.8-7.7,5-11.5,7.5"/>
	<path class="st0" d="M562.9,186.3c-13-15.9-29.1-13.8-43.9-7.1c-12.4,5.6-25.1,8.8-37.7,12.9"/>
	<path class="st0" d="M559.6,171c-12.9-12.2-26-9.9-41-4.4c-16.1,5.8-32.8,16.5-50.4,4.4"/>
	<path class="st0" d="M469.8,389.4c-24.5,5.6-49-3.1-73.4,0"/>
	<path class="st0" d="M323,282.1c-39.1-5.2-77.5,2.7-115.9,9.6"/>
	<path class="st0" d="M70.1,75.3C71.5,63,82.3,58.5,86.7,48.7c-14-8.6-31.3-7-41.1,3.6c-9.6,10.4-13,28.8-8.2,44"/>
	<path class="st0" d="M531.9,207.4c-20.2,12-40.2,26.4-63.6,9.6"/>
	<path class="st0" d="M564.5,203.6c-14.7-22.8-37-23.5-58.7-1.9"/>
	<path class="st0" d="M455.2,358.7c-19.5,4.4-39.2,0.7-58.7,1.9"/>
	<path class="st0" d="M440.5,188.3c-20.3,12.9-40.1,17.7-58.7-3.8"/>
	<path class="st0" d="M238.1,466c0.9-16.3,14.6-23.1,19.6-36.4c-26.7-5.9-43.5,7.5-45.7,36.4"/>
	<path class="st0" d="M257.7,241.9c0.8-10.6,7.2-12.6,14.7-13.5c19.3-2.4,36.6,2.4,50.6,19.2c5.4,6.4,10.9,12.8,16.3,19.2"/>
	<path class="st0" d="M393.2,163.4c26.2-15.8,39.5-7.1,48.8,13.5c6,13.2-2.4,40.2-16.3,53.4c-6.7,6.4-14.1,11.6-21.1,17.3"/>
	<path class="st0" d="M662.4,429.6c0,10.2,0,20.4,0,31.8c-52.8,2.5-105.5,10.3-158.3-1.1"/>
	<path class="st0" d="M30.9,82.9c-14.2,5.9-21.4,19.5-19.5,38.3C15,157,19,192.7,22.8,228.5"/>
	<path class="st0" d="M434,42.7c-13.9,33.6-16.4,35.3-46.2,30.6c5.4-11,17.8-16,18.5-30.6"/>
	<path class="st0" d="M559.6,464c0-14.2,13.3-18.7,19.2-35.4c-13.7,2.8-25.2-4.9-33.9,10.5c-4.1,7.2-8.7,14.1-13,21.1"/>
	<path class="st0" d="M115.8,485.1c3-23.4,23.8-30,32.8-47.7c1.2-2.4,5.1-2.9,8.9-4.8c-28.4-14.8-38.4,6.2-49.9,23.9"/>
	<path class="st0" d="M659.1,238.1c-2.7,2.6-5.4,5.1-8.2,7.7c-18.2,16.9-19,19.2-14.6,46.5c5-4.7,9.8-9.3,14.6-13.9"/>
	<path class="st0" d="M37.4,402.8c11.7-0.2,15.6-14,24.6-19.8c2.9,18.3,4.7,34.4-13,45.1c-12.5,7.6-18.4,21-10,37.9"/>
	<path class="st0" d="M659.1,115.5c-3.3,3.2-6.1,7.5-9.9,9.4c-18.3,9.3-16,26.5-13.1,44.9c8.6-6.3,13.4-17.6,23-21.7"/>
	<path class="st0" d="M358.9,276.4c12.9,15.8,31.3,16,47.3,23"/>
	<path class="st0" d="M575.9,40.8c10.9,4.8,21.9,2,32.6-0.3c17.6-3.7,21.4-9.6,24.7-33.7c-50,4-99.3,13.1-148.7,20.6"/>
	<path class="st0" d="M510.6,46.5c-14.1-7.5-24.7,0.8-30.6,13.7c-8.9,19.3-21.4,19.4-37,14.9c4.5-12.9,19.6-19.1,17-36.2"/>
	<path class="st0" d="M303.4,429.6c-19.4,0-32.9,12.6-39.2,36.4"/>
	<path class="st0" d="M223.5,48.5c-2.1,8.9-9.8,12.6-13.6,20.7c-6.8,14.4-19.7,7.4-31.8,6.3c6.4-10.1,12.3-19.3,19.3-30.3
		C160,39.4,124,45.6,88.1,44.7"/>
	<path class="st0" d="M659.1,176.8c-8.3,3-11.8,12.8-19.2,18c-10.3,7.3-5.4,21.8-3.7,33.7"/>
	<path class="st0" d="M399.7,456.4c2.2-12.1,15.3-15.7,16.4-29c-18-7.1-30.1,2-39.3,19.4c-4.5,8.5-8.9,18-19.5,9.6"/>
	<path class="st0" d="M189.2,466c-1.8-16.6,11.8-23.7,16.3-36.4c-13.5-4.9-25-2.9-34.4,11.3c-8,12.1-19.7,20.7-25.8,34.7
		c-3.7,8.3-9.2,10.5-16.4,9.5c-12.1-1.7-23.8,6-35.9,1.9"/>
	<path class="st0" d="M465,201.7c5.7,5.6,10.5,8.3,19.7,6.7c23-3.9,46.2-6.6,70.2-2c19.4,3.7,40.1-2.1,60.9-3.7
		c5.7-36.5-0.2-72.5,2.6-108.2"/>
	<path class="st0" d="M61.9,140.4c3.9,14.2,2.6,26.2-8.1,36.5c-20.5,19.9-23.2,47.7-22.9,76.5c0.2,13.4-0.8,26.8,1.4,40.3
		c1.5,9.4-4.8,11.1-11.2,11.4"/>
	<path class="st0" d="M363.8,479.4c-14.7,1.9-29.4,3.8-44.1,5.7"/>
	<path class="st0" d="M611.8,462.1c2.1-14.5,15.9-19.3,20.2-32.5c-29-1.9-35.1,2.5-48,34.4"/>
	<path class="st0" d="M60.3,82.9c3,25.7-0.9,33.5-22.8,46"/>
	<path class="st0" d="M448.6,333.8c-17.4,0-34.8,0-52.2,0"/>
	<path class="st0" d="M376.8,261c15.9-13.3,33.3-14.3,50.4-5.3c7.6,4,16.9-0.3,23.4,10.7c9.6,16.3,8,26.4-8.6,32.9"/>
	<path class="st0" d="M357.3,427.7c-19.4-2.4-29.4,12.9-39.2,28.7"/>
	<path class="st0" d="M432.3,167.2c-12.2,8.9-27.1-1.8-39.2,7.7"/>
	<path class="st0" d="M468.2,427.7c-18-7.6-30.1,1.5-39.2,19.2"/>
	<path class="st0" d="M316.5,466c7,29.5-5.5,49-24.5,65.1"/>
	<path class="st0" d="M35.8,220.8c13.6,1.3,15.7-16.9,26.5-21.2c1.8,17,5.6,34.3-11.8,44.2"/>
	<path class="st0" d="M647.7,312.7c-17.4,9.8-13.6,27.2-11.7,45c7.5-7.7,14.5-14.9,21.5-22"/>
	<path class="st0" d="M660.8,56.1c2.9,38.9,1.6,77.9,1.4,116.8c-0.1,16.6,4.1,34.4-7,51.2c17.5,13.8,6.5,34,6.1,50.3
		c-0.9,44.2-0.4,88.3,3.5,132.1c1.8,20-14.5,23.7-17.5,38.3c-1.2,5.8-7.2,10.3-11,15.4"/>
	<path class="st0" d="M651,370.2c-15.6,9.3-17.3,24.4-13.4,42.1c10.7,0.7,12.6-16.3,23.2-15.3"/>
	<path class="st0" d="M637.9,56.1c-8,21.9-23.7,13.8-39.1,15.7c6-12.7,17.7-17.3,17.9-31"/>
	<path class="st0" d="M32.5,282.1c15.1,3.3,18.8-15.6,29.6-21.6c2.4,15.6,4.3,30.5-6.7,42.6"/>
	<path class="st0" d="M373.6,59.9C366,80.6,351.1,74.3,337,75.4c2.4-14.2,15.5-16.7,17.1-28.9"/>
	<path class="st0" d="M106,59.9c-6.5,15.3-17.3,18.2-31,17.6c-19.5-0.9-38.9,16-40.6,34.1c-0.8,8.8-0.2,18.2,1.6,26.7
		c3.8,17.8-3.5,36.3,3,53.7"/>
	<path class="st0" d="M634.7,38.9c8.5,6.4,19.1,2.2,28.2,4.8c-0.9,12.6-9,16.3-13.8,19.4c-16.8,11-16.2,26.9-13,44.9
		c7.8-6.5,15.4-12.9,23-19.3"/>
	<path class="st0" d="M373.6,456.4c39.7,1.9,79.4,3.6,119.1,5.9c6.3,0.4,9.4-3.5,13.1-7.8c6.5-7.4,9.3-18.1,16.8-25.1
		c-11,1.5-23-9.3-31.6,5.9"/>
	<path class="st0" d="M257.7,245.7c1.3,16.9,12.5,24.4,22.8,32.6"/>
	<path class="st0" d="M533.5,23.6c-4.7,8.6-5.8,18.5-17.6,22.4c-8.2,2.7-13.6,17.7-20.6,27.9c10.1,0.4,19.6,5.9,28.5-2.4"/>
	<path class="st0" d="M481.3,29.3c-14.8,14.2-32.6,7.3-49,9.2c-40.1,4.6-80.6,1.5-120.8,7.1c-7.1,1-9,4.5-13.1,8.4
		c-7.7,7.3-9.3,20.7-19.4,25.1"/>
	<path class="st0" d="M78.2,462.1c-2.1,12.6-15.3,18.3-14.7,32.6"/>
	<path class="st0" d="M482.9,188.3c0-28.1,0-56.2,0-88.1c44,0,88.1,0,132.2,0"/>
	<path class="st0" d="M437.2,301.3c-9.2,4.5-18.5,0.5-27.7,0"/>
	<path class="st0" d="M30.9,305.1C32,321,33.7,337,34,353c0.7,28.1-0.8,56.3,3.4,84.3"/>
	<path class="st0" d="M277.3,48.5c-26.6-3.3-53.2-6.1-80-1.9"/>
	<path class="st0" d="M168,46.5c-8.5,15.8-17.4,30.9-35.9,30.7c-3.3,0-6.3-0.1-8.1-4.1c1.3-11.4,12.6-15.5,14.7-26.6"/>
	<path class="st0" d="M251.2,48.5c-7.6,8.6-15.1,17.2-19.8,29.3c7.7,6.5,16.5,2,24.7,3.3"/>
	<path class="st0" d="M461.7,174.9c4.5,8.1,8.7,16.6,17.9,18.2"/>
	<path class="st0" d="M321.4,61.9c-9.7,12.5-19.4,24.8-35.9,15.3"/>
	<path class="st0" d="M298.5,48.5c-10.9-4.9-19.5-2.9-26.3,9.4c-3.9,7.1-9.6,12.9-14.5,19.3"/>
	<path class="st0" d="M425.8,261c-6.4,5.1-16-2.1-21.2,7.7"/>
	<path class="st0" d="M104.3,462.1c-6.2,10.4-9.2,24.2-21.2,28.7"/>
	<path class="st0" d="M63.5,132.7c-5,11.6-17.4,13.8-22.8,24.9"/>
	<path class="st0" d="M585.7,15.9c-4.5,19.6-20.9,28.1-29.4,44"/>
	<path class="st0" d="M57,328.1c-8.3,3-10.1,16.2-19.6,17.2"/>
	<path class="st0" d="M561.2,19.7c-11.9,27.1-11.9,27.1-34.3,23"/>
	<path class="st0" d="M86.4,456.4c6.3,3.5,13.1,1.2,19.6,1.9"/>
	<path class="st0" d="M34.2,150c-5.4,6.4-10.9,12.8-16.3,19.2"/>
	<path class="st0" d="M138.6,456.4c4.9,1.3,9.8,2.6,14.7,3.8"/>
	<path class="st0" d="M34.2,180.6c-4.4,5.1-8.7,10.2-13.1,15.3"/>
	<path class="st0" d="M510.6,27.4c1.6,7.3-8.1,8-6.5,15.3"/>
	<path class="st0" d="M161.4,456.4c3.5,5.2,9.5-1.4,13.1,3.8"/>
	<path class="st0" d="M489.4,46.5c-3.8-1.3-7.6-2.6-11.4-3.8"/>
	<path class="st0" d="M44,251.5c-3.8,0.6-7.6,1.3-11.4,1.9"/>
	<path class="st0" d="M553.1,209.3c2.6,4.6,4.8,9.7,9.8,11.5"/>
</g>
</svg>
