<?xml version="1.0" encoding="utf-8"?>
<!-- Generator: Adobe Illustrator 23.1.0, SVG Export Plug-In . SVG Version: 6.00 Build 0)  -->
<svg version="1.1" id="Layer_1" xmlns="http://www.w3.org/2000/svg" xmlns:xlink="http://www.w3.org/1999/xlink" x="0px" y="0px"
	 viewBox="0 0 581.4 468.5" style="enable-background:new 0 0 581.4 468.5;" xml:space="preserve">
<style type="text/css">
	.st0{fill:none;stroke:#82563D;stroke-width:8;stroke-linecap:round;stroke-linejoin:round;stroke-miterlimit:10;}
</style>
<g>
	<path class="st0" d="M574.1,207.6c-11.9,2.4-19.6,2.7-31.6,4.1c-6.8,0.8-13.8,1.2-20.5,1.1c-21.9-0.5-39.9,6.8-56.4,17.4
		c-11.6,7.5-23.1,14.8-36.8,19.4c-10.9,3.7-22.1,6-33.7,7.3c-6.1,0.7-12.2,1.1-18.3,1.3c-19.2,0.5-37-3.9-54.2-9.9
		c-30.3-10.6-58.5-24.6-88-36.6c-27-11-55.3-18.9-84.5-24.1c-30.9-5.4-62.4-6.3-93.8-4.8c-14.1,0.7-28.4,1.9-42.6,5.4
		c1,7.4,6.5,13.5,10.5,19.8c13.1,20.8,28.4,40.6,47.6,58c14.1,12.8,30.4,23.2,51.3,27.5c14.7,3.1,29.5,5.1,44.8,2.5
		c5.7-1,11.7-0.5,17.6-1.1c22.9-2.3,45.8-4.9,68.9-3.9c1.7,0.1,3.3-0.2,4.4,1.2"/>
	<path class="st0" d="M428.1,174.1c-0.5-13.7-3.6-27-7.4-40.2c-5.9-20.5-12.5-40.8-22-60.4C388.3,52,374.4,32,360.6,11.9
		c-2.6-3.7-4.6-3.7-7.4,0c-15.8,20.8-26.8,43.2-33.7,67.1c-3.6,12.4-7.8,24.6-10.5,37.2c-2.1,10-3.9,19.9-5.9,29.9
		c-1.8,8.8-1.4,17.6-2.1,26.3c-1,11.5,0.3,23.2,2.3,34.7c0.8,4.6,0.4,9.3,1.3,14.1c0.6,3,1.4,6,1.7,9.1"/>
	<path class="st0" d="M574.1,207c-3.4-4.5-9.6-2.7-14-3.3c-9.2-1.2-18.5-2.2-27.8-2.7c-21.8-1.2-41.9-5.3-60.4-16.2
		c-13.5-8-29.3-12.8-47.4-9.7c-18.6,3.2-34.8,9.5-47.5,21c-16.9,15.2-28.5,33.4-39.7,51.8c-17.5,28.6-35.5,56.9-59.4,82.3
		c-18.8,20.1-44.5,31.7-72.6,40.3c-16.3,5-53.5,11.8-70.5,13.3"/>
	<path class="st0" d="M430.3,248.5c3.3,10,0,29.4-4.6,37.1c-4.8,11.8-13.1,23-20.3,34.3c-11,17.3-28.7,28.6-48.3,38.5
		c-18.3,9.3-38.7,13.3-58.8,18.2c-29,7.1-51.5,21.3-65.9,43.4c-7.3,11.2-11.7,23.5-11.9,36.5c0,1,0.5,2.4-0.1,3"/>
	<path class="st0" d="M134.6,383.9c1,3.1,4.5,3.7,7.4,4.8c23.8,9.3,44.2,22.1,59.4,40.3c6.6,7.9,11.2,16.7,15.2,25.7
		c0.9,2.1,2.4,3.3,3.9,4.8"/>
	<path class="st0" d="M428.8,175.3c0.2,0.6,0.7,1.2,0.7,1.8c-0.9,16.1,2.9,32.1,1.4,48.2c-0.7,7.8-2.2,15.4-0.6,23.2"/>
</g>
</svg>
