<?xml version="1.0" encoding="utf-8"?>
<!-- Generator: Adobe Illustrator 23.1.0, SVG Export Plug-In . SVG Version: 6.00 Build 0)  -->
<svg version="1.1" id="Layer_1" xmlns="http://www.w3.org/2000/svg" xmlns:xlink="http://www.w3.org/1999/xlink" x="0px" y="0px"
	 viewBox="0 0 898.2 565.2" style="enable-background:new 0 0 898.2 565.2;" xml:space="preserve">
<style type="text/css">
	.st0{fill:none;stroke:#82563E;stroke-width:2;stroke-linecap:round;stroke-linejoin:round;stroke-miterlimit:10;}
</style>
<g>
	<path class="st0" d="M545.9,57.4c-65.6,21.1-132.4,38.7-196.4,65.4c35.4,126.7,70.4,251.9,105.6,377.8c14.3,0.9,27-3.3,39.8-5.9
		c36.7-7.4,73-16.7,109.4-25.2c32.9-7.7,65.9-14.8,98.3-24.6c13.4-4,25.8-9.9,27.6-25.6c0.8-7.5-1.3-15.6-3.5-23
		c-4.8-16.2-10.5-32.2-14.3-48.7c-0.5-2.2-1.1-5.1,0.8-7.3c10.7-0.2,11.7,15.7,25.8,13.7c-9.6-10.8-15.8-22.1-26.7-29.5"/>
	<path class="st0" d="M135.4,325.8c0.1,12.5-1.7,23.7-10.5,34.4c-8.7,10.6-14.7,23.7-13.7,39.9c11.6,12.8,29.4,16,45,22.7
		c14.2,6.1,29.3,11.9,44.9,0.6c0.3,0.8,0.7,1.6,1,2.4c-1.6,4.8-2.6,9.9-4.9,14.2c-5,9.3-14.1,12.4-24.1,7.2
		c-14.6-7.7-28.3-17.1-42.7-25.2c-11.8-6.6-21.1-5.3-29,4.8c-27,34.7-52.1,70.7-75.4,108"/>
	<path class="st0" d="M259.3,167.9c16.7,0,33.3-0.9,48.7,8.3c13.3,8,19.3,19.3,19.2,34.2c0,8.9-0.1,17.7-2,26.8
		c-7.7,35.8-44.1,37.4-67,20.5c-20.7-15.3-33.7-39.4-14.7-78.8"/>
	<path class="st0" d="M543.5,53.7c-30.4,7.3-61,13.7-91,22.1c-31.1,8.7-62.5,15.8-93.6,24c-3.4,0.9-6,3.8-9.9,2.2
		c-2.3,8.2,0.5,14.5,1.4,20.9"/>
	<path class="st0" d="M576.3,188.6c17.8-8,32.9-3.7,46,10.5c25.8-0.3,47.6,8.4,66,27c11.2,11.3,24.8,19.8,42.5,13.1
		c2.4-7.6-3.6-12.3-7.5-17.7c-15.7-21.7-35-40.5-50.9-62c-8.1-11-20-12.1-31.7-13.1c-12.2-1-23.6-2.6-35.4-7
		c-14.2-5.2-36.2,8.7-31.4,22.5"/>
	<path class="st0" d="M214.3,211.7c-2.6-6.9-8.8-9.1-14.5-7c-26.3,9.3-50.6,22.5-72.1,39.5c-2.4,27.8,4.5,53.4,6.4,79.3"/>
	<path class="st0" d="M733,237.2c5.3-5.3,8.7-0.9,12.1,2.4c13.4,13.3,27.1,26.4,40,40.2c8.5,9,20.2,14.5,26.8,24.9
		c0.7,12.2-3.9,19.2-15.6,23.9c-20,8.1-36.7,21.3-49.7,39.4c19.1,5.7,45.2-13.2,58.1-41"/>
	<path class="st0" d="M554.4,51.3c4.9-6,9.7,0.5,15.7-0.1c16.4-12,36.4-9.4,56.4-9.6c13.6,8.1,15.7,22.9,18.8,36.5
		c4.2,18.4,7.1,37.1,9.6,55.9c0.6,4.4,4.1,5.3,5.9,8.6c-0.2-36.7-9.1-71.8-15.9-108c-14.7-0.6-27.7-2-39.4,5.8"/>
	<path class="st0" d="M730.6,240.8c-8.6,25.2-30.2,44.7-49.7,43.7c3.5,16.2,15,25.8,26.6,35.3"/>
	<path class="st0" d="M192.5,253c1.9,4,4.1,7.8,7.3,10.9c4.5-0.6,8.8,2.4,12.9,1.2c5.6,14-0.2,28.8,3.2,42.5
		c4.7,19.1-0.3,34.9-11.3,49.9c-2.7,3.7-0.9,6.7,1.2,9.7"/>
	<path class="st0" d="M898.2,369.6c-18.7-17.4-38.3-33.3-61.8-44c-9-4.1-17.9-2.7-26.8-3.4"/>
	<path class="st0" d="M349.2,125.4c-3.5,2.8-5,6.5-4.9,10.9c0.4,16.6-1.7,33.3,1.3,49.8c5.8,31.6-2.5,59.6-20.9,84.9
		c-5.5,7.6-13.4,11.1-24.1,11.7c-11.2,0.6-22.7,2.7-34.1,4.2"/>
	<path class="st0" d="M341.9,178.9c-7.3-7.5-14.9-14.3-24.2-19.6c-20.3-11.8-40.7-6.5-56.5,4.9c-10.8,7.8-24.9,12.3-32.9,25.4
		c-4.4,7.3-6.5,15.5-11.6,22.2"/>
	<path class="st0" d="M573.9,242c14.8,10,28.3,22,44.9,29.2c11.7,5,23.7,8.1,36.4,4.8"/>
	<path class="st0" d="M179.1,261.5c-1.9-5.3,6.2-9,0.8-15.6c-12.3-2-24.3,4.1-35.9,9.8c-10.8,5.3-5.4,16.5-6.1,25.3
		c-1.2,14.1,1.5,28.4-1.3,42.5"/>
	<path class="st0" d="M134.1,350.1c21.1,7.3,42.6,13.4,64.4,18.1c1.9,0.4,4-0.7,6.1-1.1"/>
	<path class="st0" d="M208.2,222.6c-21.7,1.7-40.1,11.4-57,24.4c-1.2,0.9,1.5,2.3,2.3,3.5"/>
	<path class="st0" d="M214.3,262.7c1.2-1.2,2.4-2.4,4-4c9.5,18.8,22.9,31.6,45.9,29.5"/>
	<path class="st0" d="M610.3,160.6c7.5,5.5,15.6,6.1,25.4,3.3c-5-4.1-10-6.8-15.7-5.6c-9.2,1.9-17.9-0.4-26.8-1.4"/>
	<path class="st0" d="M207,367.1c12.5,2.9,21.3-4.5,30.8-10.8c-2.2-7.9-9.5-9-15.6-12.6c-5.4,7.8-10.1,16.2-16.4,23.4"/>
	<path class="st0" d="M219.2,249.3c6.1,4.1,6.6,11.8,10.9,17c8.9,10.9,21.7,14.7,34,19.4"/>
	<path class="st0" d="M617.6,195.9c-14.3,1.7-28.3-1.8-42.5-2.4"/>
	<path class="st0" d="M237.4,369.6c-18.9,4.1-23.4,21-28.4,35.5c-2.1,6-4.4,12-6.9,17.9"/>
	<path class="st0" d="M633.4,215.3c-18-4-36.5-5.6-54.7-8.5"/>
	<path class="st0" d="M233.8,372c-2.6,15.7-14,25.9-23.1,37.7"/>
	<path class="st0" d="M588.5,210.4c3.1,4.7,8,7.6,11.8,11.3c9.1,8.8,17.5,8.2,27.1,2.1"/>
	<path class="st0" d="M662.6,210.4c-0.4,2,1,4.4-2.3,6.9c-7.6,1.3-16-0.2-24.5-2"/>
	<path class="st0" d="M216.7,218.9c2.2,8.4,1.1,17,1.2,25.5"/>
	<path class="st0" d="M324.9,267.5c-8.5,3.1-16.4,7.2-23.1,13.4"/>
	<path class="st0" d="M571.5,215.3c0.3-2.9-3.9-3.1-3.6-6.6c1-1.6,2.3-3.6,3.6-5.8c2.1,0.5,4.1,1,6.4,1.6
		c-0.9,11.9-17.2,21.2-6.5,35.1"/>
	<path class="st0" d="M170.6,279.7c-2.1,7.2-2.9,14.3,2.6,20.9c11.3-7.1,9.4-21,15.6-30.6"/>
	<path class="st0" d="M584.8,159.4c3.1,3.7,4.8-1.2,6.8-1.8c-13.5-0.7-22.1,7.8-30.1,16.9c1.6,6.2,3.9,11.9-3.5,15.2"/>
	<path class="st0" d="M213.1,217.7c-2.2,8.5-6.6,16.1-9.7,24.3"/>
	<path class="st0" d="M573.9,189.8c-3.8,6.9-9.5,3.1-14.6,2.4"/>
	<path class="st0" d="M211.9,276c-5.3,0.8-10.5,1.6-15.8,2.4"/>
	<path class="st0" d="M185.2,259c-8.5,3.1-10.4,11.1-13.4,18.2"/>
	<path class="st0" d="M639.5,201.9c-7,6.1-2.1,17.8-10.9,23.1"/>
	<path class="st0" d="M624.9,200.7c3.6,7.1,5.5,14.3,1.2,21.9"/>
	<path class="st0" d="M173,279.7c1.8,3.8,1.3,8.8,6.1,10.9"/>
	<path class="st0" d="M196.1,261.5c-3.3,1.4-3.9,6.6-8.5,6.1"/>
	<path class="st0" d="M561.7,181.3c-3.1,1.5-6.4,2.9-3.6,7.3"/>
	<path class="st0" d="M572.7,47.7c-7.9-5.8-7.3,5.6-12.1,6.2c-5.3,0.4-10.6-6.5-15.9-0.1c3.3,3.7,7.1,2.8,11,1.2"/>
</g>
</svg>
