<?xml version="1.0" encoding="utf-8"?>
<!-- Generator: Adobe Illustrator 23.1.0, SVG Export Plug-In . SVG Version: 6.00 Build 0)  -->
<svg version="1.1" id="Layer_1" xmlns="http://www.w3.org/2000/svg" xmlns:xlink="http://www.w3.org/1999/xlink" x="0px" y="0px"
	 viewBox="0 0 812.7 503.1" style="enable-background:new 0 0 812.7 503.1;" xml:space="preserve">
<style type="text/css">
	.st0{fill:none;stroke:#82563D;stroke-width:2;stroke-linecap:round;stroke-linejoin:round;stroke-miterlimit:10;}
</style>
<g>
	<path class="st0" d="M37.3,474.8c4,3.7,2.5,6.2-2.1,6.1c-9.1-0.1-18.4,2-27.1-2.4c-3.7,11,0,17.3,10.3,17.1
		c27.6-0.5,55.2-1.3,82.7-2c2.4-0.1,5.3-0.8,7.3,0.1c8.7,4.1,13.2,0.5,17.1-7.3c1.3-2.7,6.4-3.2,9.1-5.5c17.3-14.7,38-19,59.7-21"/>
	<path class="st0" d="M427.9,231.8c-34,5.9-39.3,27-43,63.9c-0.7,7.1-2.7,14-4.1,21c-1.1,5.2-3.5,7.4-9.5,6.5"/>
	<path class="st0" d="M728.9,139.4c-0.8-9.8,6-18.4,2.7-28.6c14.3,3,29-1.5,34.7-15.5c11-26.7,20.5-53.9,13.9-83.7
		c-0.5-2.2-0.7-4.8,2.8-6.6c9.8,9.5,16.6,21.3,22.4,33.8c1.8,4,1.7,8.2-0.2,11.4C793,70.9,783,93.3,765.3,109.8
		C753.3,121.2,743.8,131.3,728.9,139.4"/>
	<path class="st0" d="M507,156.1c15,23.4,30.4,34,57.7,39.5c14,2.9,28.4,5.4,42.9,4.4c10.9-0.7,21.4,3.4,32.5,1.3
		c9.1-1.7,17.2-4.4,24-10.7"/>
	<path class="st0" d="M277.1,365.9c11,10.3,20.3,23.9,10.6,35.7c-11.9,14.3-28.4,18.5-45.2,21.7c-24.2,4.7-49.1,6.4-72.3,15.8
		c-0.8,0.3-2.1-0.6-3.1-1"/>
	<path class="st0" d="M37.3,474.8c19.1-4.7,37.2-7.2,56.6-5.3c2,0.2,4.2-0.6,6.3-1"/>
	<path class="st0" d="M122.1,386.8c2.1,3.5,1.2,7.2-0.1,10.4c-5,12.8-5,26.5-7,39.9c-1.8,11.7,3,23,5,34.5c0.5,2.8,0.7,5.6,1.1,8.4"
		/>
	<path class="st0" d="M250.9,381.6c-11.1,8.7-38.6,35.1-52.4,38.6c-19.6,5-34.2,16.9-47,31.6c-2.2,2.6-6.4,6.2-0.1,9.3"/>
	<path class="st0" d="M128.4,493.7c3.6,6.1,11.3,6.1,14.3,3.8c9.2-7.1,18.6-2.7,27.6-2.4c24.8,1,49.6,0.5,74.9,0.7
		c0-5.9,0-10.8,0-15.7c-7.2,2.2-14.8,0.3-22.5,0c-14-0.5-28.2,3.5-41.8-1.3c-11.2-3.9-22.6,2.8-33.6-2"/>
	<path class="st0" d="M96,453.8c3.4,3.5,5.5,6.9,5.6,12.6c0.1,7.3,8.5,8.1,13.3,11.4c3.3,2.3,7.8,2.8,10.4,6.4"/>
	<path class="st0" d="M122.1,386.8c-8.8,9.9-13.5,22.9-15.9,35.6c-2.3,12.3,3.2,24.7-1.9,36.7"/>
	<path class="st0" d="M394.4,203.6c-26.2,24.6-56.2,64.4-76.3,93.3c-4.8,6.9-10.5,13.7-10.6,23"/>
	<path class="st0" d="M600.2,162.4c9.1,18.1,26.1,19.7,44,24c4.1,1,15.8,3.2,19.9,4.2"/>
	<path class="st0" d="M89.7,466.4c-1.1-10.1-9.7-10.8-16.7-13.6c-12.6-5-30-1.2-43-1"/>
	<path class="st0" d="M394.4,203.6c-0.6,13.4-7.6,26-1.4,42c-16.5-6.8-28.5-1.4-40.5,4.1"/>
	<path class="st0" d="M30,451.8c4.5,6.1,11.1,6.4,17.8,6.3c13-0.2,25.5,2,37.7,6.3"/>
	<path class="st0" d="M371.3,323.2c-21.7-8.1-44.6-13.3-63.9-3.3"/>
	<path class="st0" d="M209.8,480c-16.6-3.7-34.7-12.5-52.1-7.4c-1.5,0.4-3.5-0.6-5.2-0.9"/>
	<path class="st0" d="M169.2,407.8c-23,3.4-34.8,16.8-38.1,39.7c-1.3,9.1-2.8,18.9-8,27.3"/>
	<path class="st0" d="M609.6,199.1c-7.4-9.2-18.8-13.4-26.6-22.7c-9.9-11.8-19.9-23.1-26.8-38.3c-14.5,12.3-30.6,18.9-49.2,18"/>
	<path class="st0" d="M88.6,472.7c-15.9,3-32,4.7-48.2,5.2"/>
	<path class="st0" d="M169.2,407.8c-11.1,6.3-26.6,31.4-36.7,38.7"/>
	<path class="st0" d="M393.4,218.2c10,8.5,22.6,10.3,34.6,13.6"/>
	<path class="st0" d="M194.4,460c-12.2-4.6-32.8-2.7-44,2.2c-5.8,2.5-8.5,6.5-8.3,12.7"/>
	<path class="st0" d="M277.1,365.9c-0.3,1.4-1.3,3-1,4.2c5,16.7-2.6,30.4-10.6,44"/>
	<path class="st0" d="M250.9,381.6c6.8,5.4,13,11.7,22,13.6"/>
	<path class="st0" d="M227.9,480"/>
	<path class="st0" d="M600.2,162.4c-4.3,5.4-10.1,8.8-15.7,12.6"/>
</g>
</svg>
