<?xml version="1.0" encoding="utf-8"?>
<!-- Generator: Adobe Illustrator 23.1.0, SVG Export Plug-In . SVG Version: 6.00 Build 0)  -->
<svg version="1.1" id="Layer_1" xmlns="http://www.w3.org/2000/svg" xmlns:xlink="http://www.w3.org/1999/xlink" x="0px" y="0px"
	 viewBox="0 0 637.2 847.8" style="enable-background:new 0 0 637.2 847.8;" xml:space="preserve">
<style type="text/css">
	.st0{fill:none;stroke:#52312C;stroke-width:6;stroke-linecap:round;stroke-linejoin:round;stroke-miterlimit:10;}
</style>
<g>
	<path class="st0" d="M625.2,787.6c-4.8,5-12.8,11.4-19.2,14.7c-32.7,16.8-66.9,28.3-103.4,34.3c-29.2,4.8-58.5,5.5-87.8,4.7
		c-23.7-0.7-47.3-4.2-70.4-9.6c-36.5-8.5-71.8-20.8-105.3-38c-45.6-23.4-86.8-52.8-121.6-90.5c-20.1-21.8-37.3-45.9-51.5-72
		c-0.9-1.6-0.5-3-0.8-4.4"/>
	<path class="st0" d="M495.6,24.4c-20.3-6.5-50.5-12.9-71.3-14.7c-8.9-0.8-18-1.4-26.9-0.8c-30,2.2-59.7,5.4-88.7,14.4
		C280.8,32,254.1,43,228.8,57.4c-24.5,14-47.5,29.9-68.8,48.6c-31.9,28-59,59.8-81.6,95.7c-19.6,31.1-35.1,63.9-46.3,99
		c-8.4,26.5-14.7,53.3-18,80.9"/>
	<path class="st0" d="M495.6,24.4c-7.8,5.8-17.6,6.9-26.2,11.1c-17,8.2-33.7,16.8-49.4,27.2c-32.9,21.6-64.4,44.9-92.1,73
		c-5.3,5.4-10.4,11-15.7,16.5"/>
	<path class="st0" d="M356.6,680.7c5-6.4,2-13.9,2.5-20.9c1.7-24.3-4.3-46.8-16.5-67.8c-1.3-2.2-1.7-5.2-5.2-5.3
		c-8.5,18.8-5.8,54.3,7,73c1.7,2.5,2.8,5.3,4.4,7.8c2.5,4.1,2.8,8.6-0.3,11.1c-4.3,3.4-9.5,0.1-11.8-3.4c-8-12.4-19.6-21.8-28-33.8
		c-3.5-5.1-8.4-8.4-13.1-12.1"/>
	<path class="st0" d="M227.9,286.1c-7.7-7.7-9-18.4-13-27.8c-2.5-6.1-4.2-12.3-3.7-19.1c0.3-4.1,1.1-8,4.6-9.3
		c3.2-1.2,7.2,0,9.4,3.3c6.1,9.2,13,17.2,8.4,30.6c-4.4,12.8-7.1,26.9-1.4,40.7c0.9,2.1-0.9,4.1-1.5,6.1
		c-4.1,14.1-8.4,28.2-11.2,42.6c-1.6,8.4-0.8,17.4-0.2,26c1.9,26.4,0.9,52.9,5.2,79.1c2.6,15.7,5.6,31.3,8.7,46.9
		c0.8,3.8,16,64,16.1,67.8"/>
	<path class="st0" d="M444.4,747.6c19.9,10.3,40.8,17.9,62.6,23.6c36.5,9.6,73.5,15.4,111.3,14.6c2.6-0.1,4.8,0.6,7,1.8"/>
	<path class="st0" d="M270.5,404.3c-1,6.4,3.9,10.8,5.3,16.5c4,15.6-0.2,30.3-5.8,44.2c-3.4,8.6-5.7,18.7-14.4,24.5"/>
	<path class="st0" d="M299.2,616.4c4.4-4.7,3.5-11.2,4-16.5c1-11.8,2.4-23.7,0.4-35.6c-1.3-8.2-4.1-12.2-9.6-12.2
		c-6.4,0.1-9.4,5.5-11.6,12.9c-2.8,9.3-0.3,17,4,24.3c5.3,9.1,4.2,20.6,11.7,29c2.4,2.6-2.1,6.4-4.8,9.2c-6.7-1.8-14.6,0.9-21.9-2.4
		c-12-5.4-24.4-10.3-33.9-20c-4.8-5-5.5-11.8-1.8-15.6c5-5.2,15.7-7.3,18.9-2.4c9.3,14.3,23.5,24.5,32.4,39"/>
	<path class="st0" d="M269.6,260c5.1,0.6,9.5-2.5,14.8-1.9c8.3,0.9,12.1,7.1,8.7,15c-6.3,14.8-18.9,21.7-33.2,25.8
		c-5.1,1.5-10.5,5-16.4,2.4"/>
	<path class="st0" d="M270.5,411.2c-12.1,10.6-16.3,25.2-18.9,40c-2.2,12.4-2.8,25.3,3.1,37.4c0.7,1.5,1.5,4,0.8,5.1
		c-5.6,9.1-8.4,20-17.3,27"/>
	<path class="st0" d="M254.9,362.6c-13.9,8.2-24.4,19.2-29.5,34.8c-0.6,1.9-1.6,2.8-3.5,2.6"/>
	<path class="st0" d="M235.7,247.8c4.6-1.5,4.9-6.2,6.9-9.6c3.6-6.1,7.3-12.2,15.7-11.2c5.6,0.7,10.7,10.3,11.4,18.1
		c1.1,11.7-4.8,20.9-9.8,30.4c-5,9.4-13.9,16.1-18.4,26c-0.9,1.9-4.6,4.7-8.4,3.6"/>
	<path class="st0" d="M335.7,675.5c-6.5,3.3-12.8,0.3-19.1-0.8c-9.6-1.8-18.6-6.3-28.7-6.1"/>
	<path class="st0" d="M187.1,303.4c6.4,8.1,12.5,16.4,19.2,24.3c5.7,6.7,5.9,15.9,11.2,22.7"/>
	<path class="st0" d="M349.6,679.8c9.3,6.8,15.6,17,25.2,23.5"/>
	<path class="st0" d="M280.1,572.9c-2.6-2.3-5.7-4.3-7.7-7c-4.9-6.5-11.2-7.1-18.3-5.1"/>
	<path class="st0" d="M14.1,375.3c0,0-22.2,125.7,52.1,255.9"/>
</g>
</svg>
